<?xml version="1.0" encoding="utf-8"?>
<!-- Generator: Adobe Illustrator 28.1.0, SVG Export Plug-In . SVG Version: 6.00 Build 0)  -->
<svg version="1.1" xmlns="http://www.w3.org/2000/svg" xmlns:xlink="http://www.w3.org/1999/xlink" x="0px" y="0px"
	 viewBox="0 0 343.56 157.66" style="enable-background:new 0 0 343.56 157.66;" xml:space="preserve">
<style type="text/css">
	.st0{display:none;fill:#F2F1F2;}
	.st1{display:none;fill:#2F332C;}
	.st2{fill:#A7BF39;}
	.st3{fill:#60741C;}
	.st4{fill:none;stroke:#60741C;stroke-width:0.5;stroke-miterlimit:10;}
	.st5{display:none;}
	.st6{display:inline;fill:#A1B9A4;}
	.st7{display:inline;fill:#849886;}
	.st8{display:inline;fill:#837470;}
	.st9{display:inline;fill:#70675F;}
	.st10{display:inline;fill:#536D55;}
	.st11{display:inline;fill:#C3B4D1;}
	.st12{display:inline;fill:#344830;}
	.st13{fill:#4D8F41;}
	.st14{fill:#809157;}
</style>
<g id="Layer_2">
	<rect class="st0" width="343.56" height="157.66"/>
	<rect class="st1" width="343.56" height="157.66"/>
	<g>
		<path class="st2" d="M235.54,60.22h-2.46v-0.89h5.98v0.89h-2.47v7.2h-1.06V60.22z"/>
		<path class="st2" d="M239.67,64.71c0.02,1.43,0.94,2.02,1.99,2.02c0.76,0,1.21-0.13,1.61-0.3l0.18,0.75
			c-0.37,0.17-1.01,0.36-1.93,0.36c-1.79,0-2.85-1.18-2.85-2.93s1.03-3.13,2.72-3.13c1.89,0,2.4,1.67,2.4,2.73
			c0,0.22-0.02,0.38-0.04,0.49H239.67z M242.76,63.95c0.01-0.67-0.28-1.71-1.46-1.71c-1.07,0-1.54,0.98-1.62,1.71H242.76z"/>
		<path class="st2" d="M245.09,63.42c0-0.68-0.01-1.27-0.05-1.81h0.92l0.04,1.14h0.05c0.26-0.78,0.9-1.27,1.61-1.27
			c0.12,0,0.2,0.01,0.3,0.04v1c-0.11-0.02-0.22-0.04-0.36-0.04c-0.74,0-1.27,0.56-1.42,1.36c-0.02,0.14-0.05,0.31-0.05,0.49v3.09
			h-1.04V63.42z"/>
		<path class="st2" d="M250.58,59.95v1.67h1.51v0.8h-1.51v3.13c0,0.72,0.2,1.13,0.79,1.13c0.28,0,0.48-0.04,0.61-0.07l0.05,0.79
			c-0.2,0.08-0.53,0.14-0.94,0.14c-0.49,0-0.89-0.16-1.14-0.44c-0.3-0.31-0.41-0.83-0.41-1.51v-3.17h-0.9v-0.8h0.9v-1.39
			L250.58,59.95z"/>
		<path class="st2" d="M254.45,59.98c0.01,0.36-0.25,0.65-0.67,0.65c-0.37,0-0.64-0.29-0.64-0.65c0-0.37,0.28-0.66,0.66-0.66
			C254.2,59.32,254.45,59.61,254.45,59.98z M253.28,67.42v-5.8h1.05v5.8H253.28z"/>
		<path class="st2" d="M259.3,67.42l-0.08-0.73h-0.04c-0.32,0.46-0.95,0.86-1.78,0.86c-1.17,0-1.77-0.83-1.77-1.67
			c0-1.4,1.25-2.17,3.49-2.16V63.6c0-0.48-0.13-1.34-1.32-1.34c-0.54,0-1.1,0.17-1.51,0.43l-0.24-0.7c0.48-0.31,1.17-0.52,1.91-0.52
			c1.78,0,2.21,1.21,2.21,2.37v2.17c0,0.5,0.02,1,0.1,1.39H259.3z M259.14,64.46c-1.15-0.02-2.46,0.18-2.46,1.31
			c0,0.68,0.46,1.01,1,1.01c0.76,0,1.24-0.48,1.4-0.97c0.04-0.11,0.06-0.23,0.06-0.34V64.46z"/>
		<path class="st2" d="M261.87,63.42c0-0.68-0.01-1.27-0.05-1.81h0.92l0.04,1.14h0.05c0.26-0.78,0.9-1.27,1.61-1.27
			c0.12,0,0.2,0.01,0.3,0.04v1c-0.11-0.02-0.22-0.04-0.36-0.04c-0.74,0-1.27,0.56-1.42,1.36c-0.02,0.14-0.05,0.31-0.05,0.49v3.09
			h-1.04V63.42z"/>
		<path class="st2" d="M266.48,61.61l1.27,3.43c0.13,0.38,0.28,0.84,0.37,1.19h0.02c0.11-0.35,0.23-0.79,0.37-1.21l1.15-3.41h1.12
			l-1.58,4.14c-0.75,1.99-1.27,3.01-1.99,3.63c-0.52,0.46-1.03,0.64-1.3,0.68l-0.26-0.89c0.26-0.08,0.61-0.25,0.92-0.52
			c0.29-0.23,0.65-0.64,0.89-1.17c0.05-0.11,0.08-0.19,0.08-0.25c0-0.06-0.02-0.14-0.07-0.28l-2.15-5.35H266.48z"/>
		<path class="st2" d="M274.32,59.43c0.5-0.08,1.16-0.16,2-0.16c1.03,0,1.79,0.24,2.27,0.67c0.44,0.38,0.71,0.97,0.71,1.69
			c0,0.73-0.22,1.31-0.62,1.73c-0.55,0.59-1.45,0.89-2.47,0.89c-0.31,0-0.6-0.01-0.84-0.07v3.24h-1.04V59.43z M275.37,63.33
			c0.23,0.06,0.52,0.08,0.86,0.08c1.26,0,2.03-0.61,2.03-1.73c0-1.07-0.76-1.58-1.91-1.58c-0.46,0-0.8,0.04-0.98,0.08V63.33z"/>
		<path class="st2" d="M285.63,64.47c0,2.15-1.49,3.08-2.89,3.08c-1.57,0-2.78-1.15-2.78-2.99c0-1.94,1.27-3.08,2.88-3.08
			C284.5,61.48,285.63,62.69,285.63,64.47z M281.02,64.53c0,1.27,0.73,2.23,1.76,2.23c1.01,0,1.76-0.95,1.76-2.25
			c0-0.98-0.49-2.23-1.74-2.23C281.56,62.27,281.02,63.42,281.02,64.53z"/>
		<path class="st2" d="M288.14,59.98c0.01,0.36-0.25,0.65-0.67,0.65c-0.37,0-0.64-0.29-0.64-0.65c0-0.37,0.28-0.66,0.66-0.66
			C287.88,59.32,288.14,59.61,288.14,59.98z M286.96,67.42v-5.8h1.05v5.8H286.96z"/>
		<path class="st2" d="M289.77,63.18c0-0.6-0.01-1.09-0.05-1.57h0.94l0.06,0.96h0.02c0.29-0.55,0.96-1.09,1.92-1.09
			c0.8,0,2.05,0.48,2.05,2.47v3.47h-1.05v-3.35c0-0.94-0.35-1.72-1.34-1.72c-0.7,0-1.24,0.49-1.42,1.08
			c-0.05,0.13-0.07,0.31-0.07,0.49v3.49h-1.05V63.18z"/>
		<path class="st2" d="M297.65,59.95v1.67h1.51v0.8h-1.51v3.13c0,0.72,0.2,1.13,0.79,1.13c0.28,0,0.48-0.04,0.61-0.07l0.05,0.79
			c-0.2,0.08-0.53,0.14-0.94,0.14c-0.49,0-0.89-0.16-1.14-0.44c-0.3-0.31-0.41-0.83-0.41-1.51v-3.17h-0.9v-0.8h0.9v-1.39
			L297.65,59.95z"/>
		<path class="st2" d="M300.21,66.34c0.31,0.2,0.86,0.42,1.39,0.42c0.77,0,1.13-0.38,1.13-0.86c0-0.5-0.3-0.78-1.08-1.07
			c-1.04-0.37-1.54-0.95-1.54-1.64c0-0.94,0.76-1.7,2-1.7c0.59,0,1.1,0.17,1.43,0.36l-0.26,0.77c-0.23-0.14-0.65-0.34-1.19-0.34
			c-0.62,0-0.97,0.36-0.97,0.79c0,0.48,0.35,0.7,1.1,0.98c1.01,0.38,1.52,0.89,1.52,1.75c0,1.02-0.79,1.74-2.17,1.74
			c-0.64,0-1.22-0.16-1.63-0.4L300.21,66.34z"/>
		<path class="st3" d="M235.41,72.09v1.65h1.58v0.42h-1.58v1.66h-0.45v-1.66h-1.58v-0.42h1.58v-1.65H235.41z"/>
		<path class="st3" d="M238.92,71.84h-0.01l-0.79,0.43l-0.12-0.47l0.99-0.53h0.53v4.55h-0.59V71.84z"/>
		<path class="st3" d="M243.22,72.55c0,0.96-0.5,1.44-1.09,1.44c-0.57,0-1.06-0.46-1.06-1.37c0-0.91,0.5-1.42,1.1-1.42
			C242.8,71.19,243.22,71.68,243.22,72.55z M241.56,72.59c-0.01,0.58,0.2,1.02,0.59,1.02c0.41,0,0.59-0.43,0.59-1.04
			c0-0.55-0.16-1.02-0.59-1.02C241.76,71.56,241.56,72.02,241.56,72.59z M242.09,75.9l2.68-4.71h0.39l-2.68,4.71H242.09z
			 M246.19,74.43c0,0.96-0.5,1.44-1.09,1.44c-0.57,0-1.06-0.46-1.06-1.37c0-0.92,0.5-1.43,1.1-1.43
			C245.77,73.07,246.19,73.56,246.19,74.43z M244.52,74.47c-0.01,0.58,0.22,1.02,0.6,1.02c0.41,0,0.59-0.43,0.59-1.04
			c0-0.55-0.16-1.02-0.59-1.02C244.73,73.44,244.52,73.9,244.52,74.47z"/>
		<path class="st3" d="M251.72,75.66c-0.22,0.11-0.67,0.22-1.25,0.22c-1.33,0-2.33-0.84-2.33-2.39c0-1.48,1-2.48,2.47-2.48
			c0.59,0,0.96,0.13,1.12,0.21l-0.15,0.5c-0.23-0.11-0.56-0.2-0.95-0.2c-1.11,0-1.84,0.71-1.84,1.95c0,1.16,0.67,1.9,1.81,1.9
			c0.37,0,0.75-0.08,0.99-0.2L251.72,75.66z"/>
		<path class="st3" d="M256.36,73.41c0,1.62-0.99,2.49-2.19,2.49c-1.25,0-2.12-0.97-2.12-2.4c0-1.5,0.93-2.48,2.19-2.48
			C255.53,71.02,256.36,72.01,256.36,73.41z M252.7,73.49c0,1.01,0.55,1.91,1.51,1.91c0.97,0,1.51-0.89,1.51-1.96
			c0-0.94-0.49-1.92-1.51-1.92C253.21,71.52,252.7,72.45,252.7,73.49z"/>
		<path class="st3" d="M261.13,73.75c-0.04-0.66-0.08-1.45-0.07-2.04h-0.02c-0.16,0.55-0.36,1.14-0.59,1.79l-0.83,2.29h-0.46
			l-0.76-2.25c-0.22-0.67-0.41-1.27-0.55-1.83h-0.01c-0.01,0.59-0.05,1.38-0.09,2.09l-0.13,2.02h-0.58l0.33-4.72h0.78l0.81,2.28
			c0.2,0.58,0.36,1.1,0.48,1.59h0.02c0.12-0.48,0.29-0.99,0.5-1.59l0.84-2.28h0.78l0.29,4.72h-0.59L261.13,73.75z"/>
		<path class="st3" d="M266.76,73.75c-0.04-0.66-0.08-1.45-0.07-2.04h-0.02c-0.16,0.55-0.36,1.14-0.59,1.79l-0.83,2.29h-0.46
			l-0.76-2.25c-0.22-0.67-0.41-1.27-0.55-1.83h-0.01c-0.01,0.59-0.05,1.38-0.09,2.09l-0.13,2.02h-0.58l0.33-4.72h0.78l0.81,2.28
			c0.2,0.58,0.36,1.1,0.48,1.59h0.02c0.12-0.48,0.29-0.99,0.5-1.59l0.84-2.28h0.78l0.29,4.72h-0.59L266.76,73.75z"/>
		<path class="st3" d="M269.02,71.1v4.72h-0.61V71.1H269.02z"/>
		<path class="st3" d="M270,75.08c0.27,0.17,0.67,0.31,1.09,0.31c0.62,0,0.99-0.33,0.99-0.8c0-0.44-0.25-0.69-0.89-0.94
			c-0.77-0.27-1.25-0.67-1.25-1.34c0-0.74,0.61-1.28,1.53-1.28c0.48,0,0.83,0.11,1.04,0.23l-0.17,0.5c-0.15-0.08-0.47-0.22-0.9-0.22
			c-0.64,0-0.89,0.38-0.89,0.71c0,0.44,0.29,0.66,0.94,0.91c0.8,0.31,1.2,0.69,1.2,1.39c0,0.73-0.54,1.36-1.65,1.36
			c-0.46,0-0.95-0.13-1.21-0.3L270,75.08z"/>
		<path class="st3" d="M273.45,75.08c0.27,0.17,0.67,0.31,1.09,0.31c0.62,0,0.99-0.33,0.99-0.8c0-0.44-0.25-0.69-0.89-0.94
			c-0.77-0.27-1.25-0.67-1.25-1.34c0-0.74,0.61-1.28,1.53-1.28c0.48,0,0.83,0.11,1.04,0.23l-0.17,0.5c-0.15-0.08-0.47-0.22-0.9-0.22
			c-0.64,0-0.89,0.38-0.89,0.71c0,0.44,0.29,0.66,0.94,0.91c0.8,0.31,1.2,0.69,1.2,1.39c0,0.73-0.54,1.36-1.65,1.36
			c-0.46,0-0.95-0.13-1.21-0.3L273.45,75.08z"/>
		<path class="st3" d="M277.59,71.1v4.72h-0.61V71.1H277.59z"/>
		<path class="st3" d="M282.69,73.41c0,1.62-0.99,2.49-2.19,2.49c-1.25,0-2.12-0.97-2.12-2.4c0-1.5,0.93-2.48,2.19-2.48
			C281.86,71.02,282.69,72.01,282.69,73.41z M279.03,73.49c0,1.01,0.55,1.91,1.51,1.91c0.97,0,1.51-0.89,1.51-1.96
			c0-0.94-0.49-1.92-1.51-1.92C279.53,71.52,279.03,72.45,279.03,73.49z"/>
		<path class="st3" d="M283.48,75.82V71.1h0.67l1.51,2.39c0.35,0.55,0.62,1.05,0.85,1.53l0.01-0.01c-0.06-0.63-0.07-1.2-0.07-1.94
			V71.1h0.57v4.72h-0.62l-1.5-2.4c-0.33-0.53-0.64-1.06-0.88-1.58l-0.02,0.01c0.04,0.59,0.05,1.16,0.05,1.95v2.02H283.48z"/>
		<path class="st2" d="M233.86,88.95c0.47,0.29,1.15,0.53,1.87,0.53c1.07,0,1.69-0.56,1.69-1.38c0-0.75-0.43-1.19-1.52-1.61
			c-1.32-0.47-2.13-1.15-2.13-2.29c0-1.26,1.04-2.2,2.61-2.2c0.83,0,1.43,0.19,1.79,0.4l-0.29,0.85c-0.26-0.14-0.8-0.38-1.54-0.38
			c-1.1,0-1.52,0.66-1.52,1.21c0,0.76,0.49,1.13,1.61,1.56c1.37,0.53,2.06,1.19,2.06,2.37c0,1.25-0.92,2.33-2.83,2.33
			c-0.78,0-1.63-0.23-2.06-0.52L233.86,88.95z"/>
		<path class="st2" d="M240.54,87.51c0.02,1.43,0.94,2.02,1.99,2.02c0.76,0,1.21-0.13,1.61-0.3l0.18,0.75
			c-0.37,0.17-1.01,0.36-1.93,0.36c-1.79,0-2.85-1.18-2.85-2.93s1.03-3.13,2.72-3.13c1.9,0,2.4,1.67,2.4,2.73
			c0,0.22-0.02,0.38-0.04,0.49H240.54z M243.64,86.75c0.01-0.67-0.28-1.71-1.46-1.71c-1.07,0-1.54,0.98-1.62,1.71H243.64z"/>
		<path class="st2" d="M250.11,90c-0.28,0.14-0.89,0.34-1.67,0.34c-1.75,0-2.89-1.19-2.89-2.96c0-1.79,1.22-3.08,3.12-3.08
			c0.62,0,1.17,0.16,1.46,0.3l-0.24,0.82c-0.25-0.14-0.65-0.28-1.22-0.28c-1.33,0-2.05,0.98-2.05,2.19c0,1.34,0.86,2.17,2.01,2.17
			c0.6,0,1-0.16,1.29-0.29L250.11,90z"/>
		<path class="st2" d="M256.53,87.27c0,2.15-1.49,3.08-2.89,3.08c-1.57,0-2.78-1.15-2.78-2.99c0-1.94,1.27-3.08,2.88-3.08
			C255.4,84.28,256.53,85.49,256.53,87.27z M251.92,87.33c0,1.27,0.73,2.23,1.76,2.23c1.01,0,1.76-0.95,1.76-2.25
			c0-0.98-0.49-2.23-1.74-2.23C252.46,85.07,251.92,86.22,251.92,87.33z"/>
		<path class="st2" d="M257.86,85.99c0-0.6-0.01-1.09-0.05-1.57h0.94l0.06,0.96h0.02c0.29-0.55,0.96-1.09,1.92-1.09
			c0.8,0,2.05,0.48,2.05,2.47v3.47h-1.05v-3.35c0-0.94-0.35-1.72-1.34-1.72c-0.7,0-1.24,0.49-1.42,1.08
			c-0.05,0.13-0.07,0.31-0.07,0.49v3.49h-1.05V85.99z"/>
		<path class="st2" d="M269.53,81.7v7.02c0,0.52,0.01,1.1,0.05,1.5h-0.95l-0.05-1.01h-0.02c-0.32,0.65-1.03,1.14-1.98,1.14
			c-1.4,0-2.48-1.19-2.48-2.95c-0.01-1.93,1.19-3.12,2.6-3.12c0.89,0,1.49,0.42,1.75,0.89h0.02V81.7H269.53z M268.48,86.78
			c0-0.13-0.01-0.31-0.05-0.44c-0.16-0.67-0.73-1.22-1.52-1.22c-1.09,0-1.74,0.96-1.74,2.24c0,1.17,0.58,2.15,1.71,2.15
			c0.71,0,1.36-0.47,1.55-1.26c0.04-0.14,0.05-0.29,0.05-0.46V86.78z"/>
		<path class="st2" d="M274.5,90.22l-0.08-0.73h-0.04c-0.32,0.46-0.95,0.86-1.78,0.86c-1.17,0-1.77-0.83-1.77-1.67
			c0-1.4,1.25-2.17,3.49-2.16v-0.12c0-0.48-0.13-1.34-1.32-1.34c-0.54,0-1.1,0.17-1.51,0.43l-0.24-0.7
			c0.48-0.31,1.17-0.52,1.91-0.52c1.78,0,2.21,1.21,2.21,2.37v2.17c0,0.5,0.02,1,0.1,1.39H274.5z M274.35,87.26
			c-1.15-0.02-2.46,0.18-2.46,1.31c0,0.68,0.46,1.01,1,1.01c0.76,0,1.24-0.48,1.4-0.97c0.04-0.11,0.06-0.23,0.06-0.34V87.26z"/>
		<path class="st2" d="M277.07,86.22c0-0.68-0.01-1.27-0.05-1.81h0.92l0.04,1.14h0.05c0.26-0.78,0.9-1.27,1.61-1.27
			c0.12,0,0.2,0.01,0.3,0.04v1c-0.11-0.02-0.22-0.04-0.36-0.04c-0.74,0-1.27,0.56-1.42,1.36c-0.02,0.14-0.05,0.31-0.05,0.49v3.09
			h-1.04V86.22z"/>
		<path class="st2" d="M281.68,84.41l1.27,3.43c0.13,0.38,0.28,0.84,0.37,1.19h0.02c0.11-0.35,0.23-0.79,0.37-1.21l1.15-3.41h1.12
			l-1.58,4.14c-0.75,1.99-1.27,3.01-1.99,3.63c-0.52,0.46-1.03,0.64-1.3,0.68l-0.26-0.89c0.26-0.08,0.61-0.25,0.92-0.52
			c0.29-0.23,0.65-0.64,0.89-1.17c0.05-0.11,0.08-0.19,0.08-0.25c0-0.06-0.02-0.14-0.07-0.28l-2.15-5.35H281.68z"/>
		<path class="st2" d="M289.53,82.23c0.5-0.08,1.16-0.16,2-0.16c1.03,0,1.79,0.24,2.27,0.67c0.44,0.38,0.71,0.97,0.71,1.69
			c0,0.73-0.22,1.31-0.62,1.73c-0.55,0.59-1.45,0.89-2.47,0.89c-0.31,0-0.6-0.01-0.84-0.07v3.24h-1.04V82.23z M290.57,86.13
			c0.23,0.06,0.52,0.08,0.86,0.08c1.26,0,2.03-0.61,2.03-1.73c0-1.07-0.76-1.58-1.91-1.58c-0.46,0-0.8,0.04-0.98,0.08V86.13z"/>
		<path class="st2" d="M300.83,87.27c0,2.15-1.49,3.08-2.89,3.08c-1.57,0-2.78-1.15-2.78-2.99c0-1.94,1.27-3.08,2.88-3.08
			C299.7,84.28,300.83,85.49,300.83,87.27z M296.22,87.33c0,1.27,0.73,2.23,1.76,2.23c1.01,0,1.76-0.95,1.76-2.25
			c0-0.98-0.49-2.23-1.74-2.23C296.76,85.07,296.22,86.22,296.22,87.33z"/>
		<path class="st2" d="M303.34,82.78c0.01,0.36-0.25,0.65-0.67,0.65c-0.37,0-0.64-0.29-0.64-0.65c0-0.37,0.28-0.66,0.66-0.66
			C303.09,82.12,303.34,82.41,303.34,82.78z M302.17,90.22v-5.8h1.05v5.8H302.17z"/>
		<path class="st2" d="M304.97,85.99c0-0.6-0.01-1.09-0.05-1.57h0.94l0.06,0.96h0.02c0.29-0.55,0.96-1.09,1.92-1.09
			c0.8,0,2.05,0.48,2.05,2.47v3.47h-1.05v-3.35c0-0.94-0.35-1.72-1.34-1.72c-0.7,0-1.24,0.49-1.42,1.08
			c-0.05,0.13-0.07,0.31-0.07,0.49v3.49h-1.05V85.99z"/>
		<path class="st2" d="M312.86,82.75v1.67h1.51v0.8h-1.51v3.13c0,0.72,0.2,1.13,0.79,1.13c0.28,0,0.48-0.04,0.61-0.07l0.05,0.79
			c-0.2,0.08-0.53,0.14-0.94,0.14c-0.49,0-0.89-0.16-1.14-0.44c-0.3-0.31-0.41-0.83-0.41-1.51v-3.17h-0.9v-0.8h0.9v-1.39
			L312.86,82.75z"/>
		<path class="st2" d="M315.41,89.14c0.31,0.2,0.86,0.42,1.39,0.42c0.77,0,1.13-0.38,1.13-0.86c0-0.5-0.3-0.78-1.08-1.07
			c-1.04-0.37-1.54-0.95-1.54-1.64c0-0.94,0.76-1.7,2-1.7c0.59,0,1.1,0.17,1.43,0.36l-0.26,0.77c-0.23-0.14-0.65-0.34-1.19-0.34
			c-0.62,0-0.97,0.36-0.97,0.79c0,0.48,0.35,0.7,1.1,0.98c1.01,0.38,1.52,0.89,1.52,1.75c0,1.02-0.79,1.74-2.17,1.74
			c-0.64,0-1.22-0.16-1.63-0.4L315.41,89.14z"/>
		<path class="st3" d="M235.41,94.89v1.65h1.58v0.42h-1.58v1.66h-0.45v-1.66h-1.58v-0.42h1.58v-1.65H235.41z"/>
		<path class="st3" d="M237.73,97.91c0.18,0.11,0.58,0.29,1.01,0.29c0.79,0,1.04-0.5,1.03-0.88c-0.01-0.64-0.58-0.91-1.18-0.91
			h-0.34v-0.46h0.34c0.45,0,1.02-0.23,1.02-0.77c0-0.36-0.23-0.69-0.8-0.69c-0.36,0-0.71,0.16-0.91,0.3l-0.16-0.45
			c0.24-0.17,0.7-0.35,1.19-0.35c0.9,0,1.3,0.53,1.3,1.09c0,0.47-0.28,0.87-0.84,1.07v0.01c0.56,0.11,1.02,0.53,1.02,1.17
			c0,0.73-0.57,1.37-1.66,1.37c-0.51,0-0.96-0.16-1.18-0.31L237.73,97.91z"/>
		<path class="st3" d="M243.22,95.35c0,0.96-0.5,1.44-1.09,1.44c-0.57,0-1.06-0.46-1.06-1.37c0-0.91,0.5-1.42,1.1-1.42
			C242.8,93.99,243.22,94.48,243.22,95.35z M241.56,95.39c-0.01,0.58,0.2,1.02,0.59,1.02c0.41,0,0.59-0.43,0.59-1.04
			c0-0.55-0.16-1.01-0.59-1.01C241.76,94.36,241.56,94.82,241.56,95.39z M242.09,98.7l2.68-4.71h0.39l-2.68,4.71H242.09z
			 M246.19,97.23c0,0.96-0.5,1.44-1.09,1.44c-0.57,0-1.06-0.46-1.06-1.37c0-0.92,0.5-1.43,1.1-1.43
			C245.77,95.87,246.19,96.36,246.19,97.23z M244.52,97.27c-0.01,0.58,0.22,1.02,0.6,1.02c0.41,0,0.59-0.43,0.59-1.04
			c0-0.55-0.16-1.02-0.59-1.02C244.73,96.24,244.52,96.7,244.52,97.27z"/>
		<path class="st3" d="M251.72,98.46c-0.22,0.11-0.67,0.22-1.25,0.22c-1.33,0-2.33-0.84-2.33-2.39c0-1.48,1-2.48,2.47-2.48
			c0.59,0,0.96,0.13,1.12,0.21l-0.15,0.5c-0.23-0.11-0.56-0.2-0.95-0.2c-1.11,0-1.84,0.71-1.84,1.95c0,1.16,0.67,1.9,1.81,1.9
			c0.37,0,0.75-0.08,0.99-0.2L251.72,98.46z"/>
		<path class="st3" d="M256.36,96.21c0,1.62-0.99,2.49-2.19,2.49c-1.25,0-2.12-0.97-2.12-2.4c0-1.5,0.93-2.48,2.19-2.48
			C255.53,93.82,256.36,94.81,256.36,96.21z M252.7,96.29c0,1.01,0.55,1.91,1.51,1.91c0.97,0,1.51-0.89,1.51-1.96
			c0-0.94-0.49-1.92-1.51-1.92C253.21,94.32,252.7,95.25,252.7,96.29z"/>
		<path class="st3" d="M261.13,96.55c-0.04-0.66-0.08-1.45-0.07-2.04h-0.02c-0.16,0.55-0.36,1.14-0.59,1.79l-0.83,2.29h-0.46
			l-0.76-2.25c-0.22-0.67-0.41-1.27-0.55-1.83h-0.01c-0.01,0.59-0.05,1.38-0.09,2.09l-0.13,2.02h-0.58l0.33-4.72h0.78l0.81,2.28
			c0.2,0.58,0.36,1.1,0.48,1.59h0.02c0.12-0.48,0.29-0.99,0.5-1.59l0.84-2.28h0.78l0.29,4.72h-0.59L261.13,96.55z"/>
		<path class="st3" d="M266.76,96.55c-0.04-0.66-0.08-1.45-0.07-2.04h-0.02c-0.16,0.55-0.36,1.14-0.59,1.79l-0.83,2.29h-0.46
			l-0.76-2.25c-0.22-0.67-0.41-1.27-0.55-1.83h-0.01c-0.01,0.59-0.05,1.38-0.09,2.09l-0.13,2.02h-0.58l0.33-4.72h0.78l0.81,2.28
			c0.2,0.58,0.36,1.1,0.48,1.59h0.02c0.12-0.48,0.29-0.99,0.5-1.59l0.84-2.28h0.78l0.29,4.72h-0.59L266.76,96.55z"/>
		<path class="st3" d="M269.02,93.9v4.72h-0.61V93.9H269.02z"/>
		<path class="st3" d="M270,97.88c0.27,0.17,0.67,0.31,1.09,0.31c0.62,0,0.99-0.33,0.99-0.8c0-0.44-0.25-0.69-0.89-0.94
			c-0.77-0.27-1.25-0.67-1.25-1.34c0-0.74,0.61-1.28,1.53-1.28c0.48,0,0.83,0.11,1.04,0.23l-0.17,0.5c-0.15-0.08-0.47-0.22-0.9-0.22
			c-0.64,0-0.89,0.38-0.89,0.71c0,0.44,0.29,0.66,0.94,0.91c0.8,0.31,1.2,0.69,1.2,1.39c0,0.73-0.54,1.36-1.65,1.36
			c-0.46,0-0.95-0.13-1.21-0.3L270,97.88z"/>
		<path class="st3" d="M273.45,97.88c0.27,0.17,0.67,0.31,1.09,0.31c0.62,0,0.99-0.33,0.99-0.8c0-0.44-0.25-0.69-0.89-0.94
			c-0.77-0.27-1.25-0.67-1.25-1.34c0-0.74,0.61-1.28,1.53-1.28c0.48,0,0.83,0.11,1.04,0.23l-0.17,0.5c-0.15-0.08-0.47-0.22-0.9-0.22
			c-0.64,0-0.89,0.38-0.89,0.71c0,0.44,0.29,0.66,0.94,0.91c0.8,0.31,1.2,0.69,1.2,1.39c0,0.73-0.54,1.36-1.65,1.36
			c-0.46,0-0.95-0.13-1.21-0.3L273.45,97.88z"/>
		<path class="st3" d="M277.59,93.9v4.72h-0.61V93.9H277.59z"/>
		<path class="st3" d="M282.69,96.21c0,1.62-0.99,2.49-2.19,2.49c-1.25,0-2.12-0.97-2.12-2.4c0-1.5,0.93-2.48,2.19-2.48
			C281.86,93.82,282.69,94.81,282.69,96.21z M279.03,96.29c0,1.01,0.55,1.91,1.51,1.91c0.97,0,1.51-0.89,1.51-1.96
			c0-0.94-0.49-1.92-1.51-1.92C279.53,94.32,279.03,95.25,279.03,96.29z"/>
		<path class="st3" d="M283.48,98.62V93.9h0.67l1.51,2.39c0.35,0.55,0.62,1.05,0.85,1.53l0.01-0.01c-0.06-0.63-0.07-1.2-0.07-1.94
			V93.9h0.57v4.72h-0.62l-1.5-2.4c-0.33-0.53-0.64-1.06-0.88-1.58l-0.02,0.01c0.04,0.59,0.05,1.16,0.05,1.95v2.02H283.48z"/>
		<path class="st2" d="M235.05,104.93v8.08H234v-8.08H235.05z"/>
		<path class="st2" d="M236.96,108.79c0-0.6-0.01-1.09-0.05-1.57h0.94l0.06,0.96h0.02c0.29-0.55,0.96-1.09,1.92-1.09
			c0.8,0,2.05,0.48,2.05,2.47v3.47h-1.05v-3.35c0-0.94-0.35-1.72-1.34-1.72c-0.7,0-1.24,0.49-1.42,1.08
			c-0.05,0.13-0.07,0.31-0.07,0.49v3.49h-1.05V108.79z"/>
		<path class="st2" d="M243.87,107.21l1.14,3.26c0.19,0.53,0.35,1.01,0.47,1.49h0.04c0.13-0.48,0.3-0.96,0.49-1.49l1.13-3.26h1.1
			l-2.28,5.8h-1.01l-2.21-5.8H243.87z"/>
		<path class="st2" d="M250.41,105.58c0.01,0.36-0.25,0.65-0.67,0.65c-0.37,0-0.64-0.29-0.64-0.65c0-0.37,0.28-0.66,0.66-0.66
			C250.16,104.92,250.41,105.21,250.41,105.58z M249.23,113.02v-5.8h1.05v5.8H249.23z"/>
		<path class="st2" d="M253.31,105.55v1.67h1.51v0.8h-1.51v3.13c0,0.72,0.2,1.13,0.79,1.13c0.28,0,0.48-0.04,0.61-0.07l0.05,0.79
			c-0.2,0.08-0.53,0.14-0.94,0.14c-0.49,0-0.89-0.16-1.14-0.44c-0.3-0.31-0.41-0.83-0.41-1.51v-3.17h-0.9v-0.8h0.9v-1.39
			L253.31,105.55z"/>
		<path class="st2" d="M256.53,110.31c0.02,1.43,0.94,2.02,1.99,2.02c0.76,0,1.21-0.13,1.61-0.3l0.18,0.75
			c-0.37,0.17-1.01,0.36-1.93,0.36c-1.79,0-2.85-1.18-2.85-2.93s1.03-3.13,2.72-3.13c1.89,0,2.4,1.67,2.4,2.73
			c0,0.22-0.02,0.38-0.04,0.49H256.53z M259.62,109.55c0.01-0.67-0.28-1.72-1.46-1.72c-1.07,0-1.54,0.98-1.62,1.72H259.62z"/>
		<path class="st2" d="M264.53,105.03c0.5-0.08,1.16-0.16,2-0.16c1.03,0,1.79,0.24,2.27,0.67c0.44,0.38,0.71,0.97,0.71,1.69
			c0,0.73-0.22,1.31-0.62,1.73c-0.55,0.59-1.45,0.89-2.47,0.89c-0.31,0-0.6-0.01-0.84-0.07v3.24h-1.04V105.03z M265.58,108.93
			c0.23,0.06,0.52,0.08,0.86,0.08c1.26,0,2.03-0.61,2.03-1.73c0-1.07-0.76-1.58-1.91-1.58c-0.46,0-0.8,0.04-0.98,0.08V108.93z"/>
		<path class="st2" d="M275.83,110.07c0,2.15-1.49,3.08-2.89,3.08c-1.57,0-2.78-1.15-2.78-2.99c0-1.94,1.27-3.08,2.88-3.08
			C274.71,107.08,275.83,108.29,275.83,110.07z M271.23,110.13c0,1.27,0.73,2.23,1.76,2.23c1.01,0,1.76-0.95,1.76-2.25
			c0-0.98-0.49-2.23-1.74-2.23C271.77,107.87,271.23,109.02,271.23,110.13z"/>
		<path class="st2" d="M278.34,105.58c0.01,0.36-0.25,0.65-0.67,0.65c-0.37,0-0.64-0.29-0.64-0.65c0-0.37,0.28-0.66,0.66-0.66
			C278.09,104.92,278.34,105.21,278.34,105.58z M277.17,113.02v-5.8h1.05v5.8H277.17z"/>
		<path class="st2" d="M279.98,108.79c0-0.6-0.01-1.09-0.05-1.57h0.94l0.06,0.96h0.02c0.29-0.55,0.96-1.09,1.92-1.09
			c0.8,0,2.05,0.48,2.05,2.47v3.47h-1.05v-3.35c0-0.94-0.35-1.72-1.34-1.72c-0.7,0-1.24,0.49-1.42,1.08
			c-0.05,0.13-0.07,0.31-0.07,0.49v3.49h-1.05V108.79z"/>
		<path class="st2" d="M287.86,105.55v1.67h1.51v0.8h-1.51v3.13c0,0.72,0.2,1.13,0.79,1.13c0.28,0,0.48-0.04,0.61-0.07l0.05,0.79
			c-0.2,0.08-0.53,0.14-0.94,0.14c-0.49,0-0.89-0.16-1.14-0.44c-0.3-0.31-0.41-0.83-0.41-1.51v-3.17h-0.9v-0.8h0.9v-1.39
			L287.86,105.55z"/>
		<path class="st2" d="M290.42,111.94c0.31,0.2,0.86,0.42,1.39,0.42c0.77,0,1.13-0.38,1.13-0.86c0-0.5-0.3-0.78-1.08-1.07
			c-1.04-0.37-1.54-0.95-1.54-1.64c0-0.94,0.76-1.7,2-1.7c0.59,0,1.1,0.17,1.43,0.36l-0.26,0.77c-0.23-0.14-0.65-0.34-1.19-0.34
			c-0.62,0-0.97,0.36-0.97,0.79c0,0.48,0.35,0.7,1.1,0.98c1.01,0.38,1.52,0.89,1.52,1.75c0,1.02-0.79,1.74-2.17,1.74
			c-0.64,0-1.22-0.16-1.63-0.4L290.42,111.94z"/>
		<path class="st3" d="M235.41,117.69v1.65h1.58v0.42h-1.58v1.66h-0.45v-1.66h-1.58v-0.42h1.58v-1.65H235.41z"/>
		<path class="st3" d="M240.3,117.38h-1.74l-0.17,1.17c0.1-0.01,0.2-0.03,0.37-0.03c0.35,0,0.7,0.08,0.98,0.25
			c0.36,0.2,0.65,0.6,0.65,1.17c0,0.89-0.71,1.55-1.7,1.55c-0.5,0-0.92-0.14-1.13-0.28l0.15-0.47c0.19,0.11,0.56,0.25,0.97,0.25
			c0.58,0,1.08-0.38,1.08-0.99c-0.01-0.59-0.4-1.01-1.31-1.01c-0.26,0-0.46,0.03-0.63,0.05l0.29-2.19h2.18V117.38z"/>
		<path class="st3" d="M243.22,118.15c0,0.96-0.5,1.44-1.09,1.44c-0.57,0-1.06-0.46-1.06-1.37c0-0.91,0.5-1.42,1.1-1.42
			C242.8,116.79,243.22,117.28,243.22,118.15z M241.56,118.19c-0.01,0.58,0.2,1.02,0.59,1.02c0.41,0,0.59-0.43,0.59-1.04
			c0-0.55-0.16-1.02-0.59-1.02C241.76,117.16,241.56,117.62,241.56,118.19z M242.09,121.5l2.68-4.71h0.39l-2.68,4.71H242.09z
			 M246.19,120.03c0,0.96-0.5,1.44-1.09,1.44c-0.57,0-1.06-0.46-1.06-1.37c0-0.92,0.5-1.43,1.1-1.43
			C245.77,118.67,246.19,119.16,246.19,120.03z M244.52,120.07c-0.01,0.58,0.22,1.02,0.6,1.02c0.41,0,0.59-0.43,0.59-1.04
			c0-0.55-0.16-1.02-0.59-1.02C244.73,119.04,244.52,119.5,244.52,120.07z"/>
		<path class="st3" d="M251.72,121.26c-0.22,0.11-0.67,0.22-1.25,0.22c-1.33,0-2.33-0.84-2.33-2.39c0-1.48,1-2.48,2.47-2.48
			c0.59,0,0.96,0.13,1.12,0.21l-0.15,0.5c-0.23-0.11-0.56-0.2-0.95-0.2c-1.11,0-1.84,0.71-1.84,1.95c0,1.16,0.67,1.9,1.81,1.9
			c0.37,0,0.75-0.08,0.99-0.2L251.72,121.26z"/>
		<path class="st3" d="M256.36,119.01c0,1.62-0.99,2.49-2.19,2.49c-1.25,0-2.12-0.97-2.12-2.4c0-1.5,0.93-2.48,2.19-2.48
			C255.53,116.62,256.36,117.61,256.36,119.01z M252.7,119.09c0,1.01,0.55,1.91,1.51,1.91c0.97,0,1.51-0.89,1.51-1.96
			c0-0.94-0.49-1.92-1.51-1.92C253.21,117.12,252.7,118.05,252.7,119.09z"/>
		<path class="st3" d="M261.13,119.35c-0.04-0.66-0.08-1.45-0.07-2.04h-0.02c-0.16,0.55-0.36,1.14-0.59,1.79l-0.83,2.29h-0.46
			l-0.76-2.25c-0.22-0.67-0.41-1.27-0.55-1.83h-0.01c-0.01,0.59-0.05,1.38-0.09,2.09l-0.13,2.02h-0.58l0.33-4.72h0.78l0.81,2.28
			c0.2,0.58,0.36,1.1,0.48,1.59h0.02c0.12-0.48,0.29-0.99,0.5-1.59l0.84-2.28h0.78l0.29,4.72h-0.59L261.13,119.35z"/>
		<path class="st3" d="M266.76,119.35c-0.04-0.66-0.08-1.45-0.07-2.04h-0.02c-0.16,0.55-0.36,1.14-0.59,1.79l-0.83,2.29h-0.46
			l-0.76-2.25c-0.22-0.67-0.41-1.27-0.55-1.83h-0.01c-0.01,0.59-0.05,1.38-0.09,2.09l-0.13,2.02h-0.58l0.33-4.72h0.78l0.81,2.28
			c0.2,0.58,0.36,1.1,0.48,1.59h0.02c0.12-0.48,0.29-0.99,0.5-1.59l0.84-2.28h0.78l0.29,4.72h-0.59L266.76,119.35z"/>
		<path class="st3" d="M269.02,116.7v4.72h-0.61v-4.72H269.02z"/>
		<path class="st3" d="M270,120.68c0.27,0.17,0.67,0.31,1.09,0.31c0.62,0,0.99-0.33,0.99-0.8c0-0.44-0.25-0.69-0.89-0.94
			c-0.77-0.27-1.25-0.67-1.25-1.34c0-0.74,0.61-1.28,1.53-1.28c0.48,0,0.83,0.11,1.04,0.23l-0.17,0.5c-0.15-0.08-0.47-0.22-0.9-0.22
			c-0.64,0-0.89,0.38-0.89,0.71c0,0.44,0.29,0.66,0.94,0.91c0.8,0.31,1.2,0.69,1.2,1.39c0,0.73-0.54,1.36-1.65,1.36
			c-0.46,0-0.95-0.13-1.21-0.3L270,120.68z"/>
		<path class="st3" d="M273.45,120.68c0.27,0.17,0.67,0.31,1.09,0.31c0.62,0,0.99-0.33,0.99-0.8c0-0.44-0.25-0.69-0.89-0.94
			c-0.77-0.27-1.25-0.67-1.25-1.34c0-0.74,0.61-1.28,1.53-1.28c0.48,0,0.83,0.11,1.04,0.23l-0.17,0.5c-0.15-0.08-0.47-0.22-0.9-0.22
			c-0.64,0-0.89,0.38-0.89,0.71c0,0.44,0.29,0.66,0.94,0.91c0.8,0.31,1.2,0.69,1.2,1.39c0,0.73-0.54,1.36-1.65,1.36
			c-0.46,0-0.95-0.13-1.21-0.3L273.45,120.68z"/>
		<path class="st3" d="M277.59,116.7v4.72h-0.61v-4.72H277.59z"/>
		<path class="st3" d="M282.69,119.01c0,1.62-0.99,2.49-2.19,2.49c-1.25,0-2.12-0.97-2.12-2.4c0-1.5,0.93-2.48,2.19-2.48
			C281.86,116.62,282.69,117.61,282.69,119.01z M279.03,119.09c0,1.01,0.55,1.91,1.51,1.91c0.97,0,1.51-0.89,1.51-1.96
			c0-0.94-0.49-1.92-1.51-1.92C279.53,117.12,279.03,118.05,279.03,119.09z"/>
		<path class="st3" d="M283.48,121.42v-4.72h0.67l1.51,2.39c0.35,0.55,0.62,1.05,0.85,1.53l0.01-0.01c-0.06-0.63-0.07-1.2-0.07-1.94
			v-1.98h0.57v4.72h-0.62l-1.5-2.4c-0.33-0.53-0.64-1.06-0.88-1.58l-0.02,0.01c0.04,0.59,0.05,1.16,0.05,1.95v2.02H283.48z"/>
		<path class="st2" d="M235.8,135.82v-3.43l-2.55-4.65h1.19l1.14,2.23c0.31,0.61,0.55,1.1,0.8,1.67h0.02
			c0.23-0.53,0.5-1.06,0.82-1.67l1.16-2.23h1.19l-2.71,4.64v3.44H235.8z"/>
		<path class="st2" d="M244.8,132.87c0,2.15-1.49,3.08-2.89,3.08c-1.57,0-2.78-1.15-2.78-2.99c0-1.94,1.27-3.08,2.88-3.08
			C243.68,129.88,244.8,131.09,244.8,132.87z M240.2,132.93c0,1.27,0.73,2.23,1.76,2.23c1.01,0,1.76-0.95,1.76-2.25
			c0-0.98-0.49-2.23-1.74-2.23C240.74,130.67,240.2,131.82,240.2,132.93z"/>
		<path class="st2" d="M250.99,134.24c0,0.6,0.01,1.13,0.05,1.58h-0.94l-0.06-0.95h-0.02c-0.28,0.47-0.89,1.08-1.92,1.08
			c-0.91,0-2-0.5-2-2.54v-3.39h1.05v3.21c0,1.1,0.34,1.85,1.3,1.85c0.71,0,1.2-0.49,1.39-0.96c0.06-0.16,0.1-0.35,0.1-0.54v-3.56
			h1.05V134.24z"/>
	</g>
	<line class="st4" x1="126.59" y1="132.02" x2="225" y2="132.02"/>
	<line class="st4" x1="155.83" y1="109.39" x2="225" y2="109.39"/>
	<line class="st4" x1="175.8" y1="86.75" x2="225" y2="86.75"/>
	<line class="st4" x1="196.22" y1="64.11" x2="225" y2="64.11"/>
</g>
<g id="Layer_1">
	<g id="Background_00000014601339276574173140000006259534280835510154_" class="st5">
		<path class="st6" d="M137.98-135.58c-0.22,4.72,4.17,3.92,4.8,4.91c0.92,1.44-2.25,5.15,9.15,3.93
			c21.53,8.98,43.1,17.57,61.28,33.38c10.82,11.2,21.95,21.84,32.24,33.62c7.19,12.82,15.6,25.1,18.29,40.25
			c10.74,11.71,1.85,21.69,9.15,26.01c0.41,5.6,0.89,11.5,2.74,16.69c0.23,19.39,0.23,19.39,0.46,38.77
			c-1.78,9.7-3.16,19.37-5.49,28.96c-1.71,7.04-5.65,13.61-5.49,21.11c-0.87,2.91-5.87,4.23-6.4,15.71
			c-4.69,5.62-3.6,10.37-6.86,10.8c-1.2,5.89-5.65,10.32-8.69,15.22c-2.12,3.42-5.32,10.39-7.32,13.25
			c-13.55,19.43-32.85,32.34-51.45,45.4c-8.93,3.77-17.66,10.08-26.98,11.78c-2.63,2.7-2.63,2.7-5.26,5.4
			c-29.88,0.02-59.75,0.01-89.63,0c-0.27-5.92-5.88-4.39-9.37-5.89c-8.24-3.54-15.99-8.71-24.69-10.8
			c-6.95-5.21-15.04-8.47-21.95-13.74c-5.29-4.04-11.8-12.1-18.29-15.71c-6.08-7.36-12.84-14.09-18.52-21.84
			c-2.46-3.36-3.83-7.7-7.32-9.82c-1.46-6.53-12.58-18.72-10.98-24.54c-5.38-4.01-10.09-18.68-11.43-26.01
			c-3.97-3.43-7.46-16.22-6.86-22.09c-3.99-5.28-2.39-10.46-3.2-16.69c-3.83-9.74,1.26-22.41-2.74-26.5
			c1.64-12.59,3.27-25.24,7.32-37.3c4.42-13.19,16.85-36,24.69-47.61c1.43-2.12,18.16-24.33,19.21-25.52
			c2.36-2.68,30.61-29.27,32.7-30.68c9.01-3.82,23.74-13.53,31.55-16.69c0.63-0.26,3.46-0.23,4.12-0.49
			c9.18-3.62,28.56-8.65,27.21-13.25C95.3-135.59,116.64-135.6,137.98-135.58z"/>
		<path class="st7" d="M242.7-135.58c1.53,4.16,12.92,11.36,17.15,15.22c10.21,9.29,20.71,21.97,28.58,33.62
			c1.11,1.64,1.39,4.02,2.29,5.4c0.91,1.4,2.56,1.91,3.2,2.94c13.16,21.24,21.51,45.21,26.07,70.19c1.61,8.82,0.95,18.85,5.03,26.75
			c0.01,21.27,0.02,42.54,0,63.81c-2.8,3.99-3.4,15.26-5.03,22.33c-0.46,1.98-1.83,3.58-2.29,5.4c-1.6,6.35-2.25,13.3-4.57,19.63
			c-2.02,6.9-6.33,14.84-6.86,16.2c-0.22,0.58,0.23,2.38,0,2.94c-8.29,20.77-27.63,53.89-43.67,68.47
			c-4.79,4.36-11.1,7.62-15.32,12.27c-19.21,0.03-38.41-0.02-57.62,0c7.08-7.78,19.69-13.62,29.04-21.11
			c11.37-9.1,30.97-29.28,35.9-43.44c7.11-5.27,6.97-11.14,7.32-11.78c2.02-3.75,6.57-11.16,6.86-11.78
			c7.56-16.52,17.98-50.28,20.58-68.22c2.23-15.4,1.58-30.7,0.46-46.14c-3.24-12.22-4.28-25.04-7.32-37.3
			c-1.19-4.82-3.53-8.93-3.2-13.74c-5.67-4.7-2.67-14.42-9.15-18.65c-1.83-5.15-1.83-5.15-3.66-10.31
			c-3.98-2.88-3.24-5.34-4.12-6.87c-8.83-15.39-22.63-30.24-34.98-42.46c-9.86-3.89-14.76-14.39-26.98-16.69
			c-5.22-5.09-13.72-7.58-19.66-13.25c-0.56-0.25-4.44,2.56-5.26-3.44C197.89-135.57,220.29-135.62,242.7-135.58z"/>
		<path class="st7" d="M36.46-135.58c0.99,4.48-7.89,2.25-12.58,4.42c-10.65,7.83-21.93,12.25-32.47,21.11
			c-4.8,4.03-20.04,20-24.47,25.28C-46.98-68.19-73.26-29.63-75.13-7.73c-5.23,8.23-4.91,25.69-8.69,36.32
			c-0.23,4.66-0.23,4.66-0.46,9.33c0.23,14.23,0.23,14.23,0.46,28.47c2.17,7.31,3.59,14.98,5.03,22.58
			c0.53,2.81-2.03,5.25,3.66,13.25c0.55,10.75,6.48,18.19,10.98,27.49c-0.25,10.49,15.36,28.3,20.12,39.27
			c2.3,3.87,8.7,10.23,9.15,10.8c0.19,0.24,1.45,3.31,3.2,5.4c9.88,11.79,27.33,27.51,40.01,35.58c1.84,1.17,4.47,1.84,6.4,2.94
			c0.97,0.56,2.05,2.46,4.12,3.44c0.24,0.11,3.43-2.27,3.43,2.45c-19.97-0.01-39.94,0.02-59.91,0
			c-12.12-12.39-12.12-12.39-24.24-24.79c-2.35-5.14-7.45-9.46-10.52-13.74c-0.87-1.22-11.77-17.69-12.35-18.65
			c-0.18-0.3-1.3-5.85-1.83-6.87c-8.48-6.93-9.42-18.33-14.63-24.54c-0.3-7.53-3.4-8.97-5.03-13.74
			c-0.23-7.18-3.22-11.26-3.66-12.76c-0.94-3.25-5.74-22.29-5.94-23.56c-1.61-10.05-0.04-17.46-2.74-26.01
			c0.85-14.93-0.14-30.08,0.91-45.16c4.35-49.35,39.85-117.42,77.97-145.53c2.54-4.4,7.5-7.14,7.09-9.82
			C-9.58-135.61,13.44-135.57,36.46-135.58z"/>
		<path class="st8" d="M-32.6-135.58c0.41,2.67-4.55,5.42-7.09,9.82c-38.12,28.1-73.62,96.17-77.97,145.53
			c-1.06,15.08-0.07,30.22-0.91,45.16c2.7,8.55,1.14,15.96,2.74,26.01c0.2,1.27,5,20.31,5.94,23.56c0.43,1.5,3.42,5.58,3.66,12.76
			c1.63,4.78,4.73,6.21,5.03,13.74c5.21,6.21,6.16,17.61,14.63,24.54c0.53,1.03,1.65,6.57,1.83,6.87
			c0.58,0.96,11.47,17.43,12.35,18.65c3.06,4.28,8.17,8.6,10.52,13.74c12.12,12.39,12.12,12.39,24.24,24.79
			c-9.45-0.01-18.9,0.02-28.35,0c-4.14-7.23-15.3-11.67-19.44-15.22c-9-7.71-34.2-47.85-40.01-61.6
			c-12.87-11.3-11.65-27.62-17.83-28.71c-0.05-46.14-0.04-92.27,0-138.41c3.69,3.27,5.15-9.47,5.49-10.06
			c0.76-1.34,3.73-0.87,5.03-3.44c1.68-3.32-0.75-7.4,0.91-10.8c9.36-5.62,7.23-13.38,8.69-15.71c5.84-3.41,6.53-10.99,11.43-15.71
			c1.67-8.97,7.52-12.73,9.15-15.22c3.09-4.71,3.49-10.16,9.15-13.25c4.69-13.21,14.57-19.89,22.87-28.96
			c0.63-0.69,1.09-3.11,1.37-3.44c0.86-0.97,5.36-2.22,5.49-4.66C-53.33-135.6-42.96-135.57-32.6-135.58z"/>
		<path class="st6" d="M175.48-135.58c0.82,5.99,4.7,3.19,5.26,3.44c5.94,5.67,14.45,8.16,19.66,13.25
			c12.22,2.3,17.12,12.79,26.98,16.69c12.36,12.22,26.15,27.07,34.98,42.46c0.88,1.53,0.14,3.99,4.12,6.87
			c1.83,5.15,1.83,5.15,3.66,10.31c6.47,4.23,3.48,13.95,9.15,18.65c-0.33,4.81,2.01,8.93,3.2,13.74
			c3.04,12.26,4.08,25.08,7.32,37.3c1.12,15.44,1.77,30.73-0.46,46.14c-2.6,17.95-13.02,51.7-20.58,68.22
			c-0.29,0.62-4.84,8.03-6.86,11.78c-0.34,0.64-0.21,6.51-7.32,11.78c-4.93,14.16-24.53,34.34-35.9,43.44
			c-9.35,7.48-21.96,13.33-29.04,21.11c-12.5,0.01-25-0.01-37.5,0c2.63-2.7,2.63-2.7,5.26-5.4c9.33-1.7,18.05-8.01,26.98-11.78
			c18.6-13.07,37.9-25.97,51.45-45.4c1.99-2.86,5.2-9.83,7.32-13.25c3.04-4.9,7.49-9.33,8.69-15.22c3.26-0.42,2.17-5.18,6.86-10.8
			c0.54-11.47,5.53-12.79,6.4-15.71c-0.16-7.49,3.78-14.07,5.49-21.11c2.33-9.59,3.71-19.26,5.49-28.96
			c-0.23-19.39-0.23-19.39-0.46-38.77c-1.85-5.18-2.33-11.09-2.74-16.69c-7.29-4.32,1.59-14.3-9.15-26.01
			c-2.69-15.15-11.11-27.43-18.29-40.25c-10.29-11.78-21.42-22.42-32.24-33.62c-18.18-15.81-39.75-24.39-61.28-33.38
			c-11.39,1.22-8.23-2.48-9.15-3.93c-0.63-0.99-5.02-0.19-4.8-4.91C150.48-135.58,162.98-135.59,175.48-135.58z"/>
		<path class="st6" d="M73.96-135.58c1.35,4.6-18.03,9.63-27.21,13.25c-0.65,0.26-3.48,0.23-4.12,0.49
			c-7.81,3.15-22.54,12.86-31.55,16.69c-2.09,1.4-30.34,28-32.7,30.68c-1.05,1.19-17.77,23.4-19.21,25.52
			C-48.68-37.35-61.1-14.54-65.52-1.35c-4.04,12.06-5.68,24.71-7.32,37.3c4,4.09-1.08,16.77,2.74,26.5
			c0.81,6.23-0.79,11.41,3.2,16.69c-0.6,5.87,2.89,18.66,6.86,22.09c1.34,7.34,6.05,22,11.43,26.01
			c-1.6,5.82,9.52,18.01,10.98,24.54c3.49,2.12,4.86,6.46,7.32,9.82c5.68,7.75,12.44,14.48,18.52,21.84
			c6.5,3.6,13,11.67,18.29,15.71c6.91,5.27,15,8.53,21.95,13.74c8.7,2.09,16.46,7.26,24.69,10.8c3.49,1.5,9.1-0.03,9.37,5.89
			c-13.41-0.01-26.83,0.01-40.24,0c0-4.72-3.19-2.34-3.43-2.45c-2.06-0.97-3.14-2.88-4.12-3.44c-1.93-1.1-4.56-1.77-6.4-2.94
			c-12.68-8.07-30.13-23.79-40.01-35.58c-1.75-2.09-3.01-5.15-3.2-5.4c-0.45-0.57-6.85-6.93-9.15-10.8
			C-48.79,158-64.4,140.19-64.15,129.7c-4.5-9.3-10.43-16.74-10.98-27.49c-5.68-8.01-3.13-10.44-3.66-13.25
			c-1.44-7.6-2.86-15.26-5.03-22.58c-0.23-14.23-0.23-14.23-0.46-28.47c0.23-4.66,0.23-4.66,0.46-9.33
			c3.78-10.63,3.46-28.09,8.69-36.32c1.86-21.91,28.15-60.47,42.07-77.06c4.43-5.28,19.67-21.25,24.47-25.28
			c10.54-8.85,21.82-13.27,32.47-21.11c4.69-2.17,13.57,0.07,12.58-4.42C48.96-135.59,61.46-135.58,73.96-135.58z"/>
		<path class="st9" d="M-75.58-135.58c-0.38,2.85-4.41,4.26-5.49,5.64c-0.42,0.54-3.42,7.03-3.66,7.36
			c-1.5,2.06-4.51,4.36-5.94,6.38c-0.39,0.56-0.88,3.07-1.83,4.42c-0.21,0.3-2.59,1.92-5.03,5.4c-0.46,0.65-0.81,3.29-0.91,3.44
			c-3.55,5.02-7.84,9.73-11.43,14.72c-1.52,2.11-4.48,7.95-5.49,9.33c-3.1,4.26-8.32,6.55-9.15,12.27
			c-6.89,5.82-9.36,16.31-18.75,18.41c0.04-29.12-0.03-58.24,0-87.37C-120.7-135.62-98.14-135.54-75.58-135.58z"/>
		<path class="st8" d="M282.94-135.58c-0.29,1.7,0.18,2.76,0.91,4.17c2.68,5.11,25.16,25.66,36.13,54.48
			c1.14,2.99,2.35,11.53,5.03,12.52c0.05,27.65-0.02,55.3,0,82.95c-4.08-7.89-3.42-17.93-5.03-26.75
			c-4.55-24.98-12.91-48.95-26.07-70.19c-0.64-1.03-2.3-1.54-3.2-2.94c-0.89-1.38-1.18-3.76-2.29-5.4
			c-7.87-11.65-18.37-24.33-28.58-33.62c-4.23-3.85-15.62-11.06-17.15-15.22C256.12-135.56,269.53-135.64,282.94-135.58z"/>
		<path class="st8" d="M325.02,154.49c-3.44,5.34-3.82,13.86-5.94,19.88c-2.94,8.31-8.82,15.35-10.98,24.05
			c-0.85,1.56-21.48,24.8-23.09,26.26c-1.86,1.67-5.14,2.05-6.17,4.91c-10.52,0.03-21.04-0.02-31.55,0
			c4.22-4.66,10.53-7.91,15.32-12.27c16.04-14.58,35.39-47.7,43.67-68.47c0.23-0.56-0.22-2.37,0-2.94c0.53-1.36,4.84-9.29,6.86-16.2
			c2.33-6.33,2.98-13.29,4.57-19.63c0.46-1.82,1.83-3.42,2.29-5.4c1.63-7.07,2.23-18.35,5.03-22.33
			C325,106.39,325.06,130.44,325.02,154.49z"/>
		<path class="st9" d="M-75.13,229.58c-22.71-0.05-45.43,0.04-68.14,0c-0.03-27.81,0.04-55.63,0-83.44
			c1.83,1.31,10.14,11.73,10.98,13.01c5.97,9.14,14.27,28.88,25.61,41.23c0,1.72,0,1.72,0,3.44
			C-96.31,219.57-86.4,217.47-75.13,229.58z"/>
		<path class="st9" d="M282.94-135.58c14.02,0.06,28.05-0.04,42.07,0c0.03,23.72-0.04,47.45,0,71.17
			c-2.68-0.98-3.89-9.53-5.03-12.52c-10.97-28.82-33.45-49.37-36.13-54.48C283.12-132.82,282.66-133.88,282.94-135.58z"/>
		<path class="st9" d="M325.02,154.49c-0.04,25.03,0.03,50.06,0,75.09c-15.4,0.04-30.79-0.05-46.19,0c1.03-2.86,4.31-3.23,6.17-4.91
			c1.62-1.46,22.25-24.7,23.09-26.26c2.15-8.7,8.03-15.74,10.98-24.05C321.2,168.35,321.58,159.83,325.02,154.49z"/>
		<path class="st8" d="M-63.69-135.58c-0.12,2.44-4.63,3.69-5.49,4.66c-0.29,0.33-0.74,2.74-1.37,3.44
			c-8.29,9.07-18.18,15.75-22.87,28.96c-5.66,3.1-6.06,8.54-9.15,13.25c-1.63,2.48-7.48,6.25-9.15,15.22
			c-4.91,4.71-5.59,12.29-11.43,15.71c-1.46,2.33,0.67,10.09-8.69,15.71c-1.67,3.4,0.76,7.48-0.91,10.8
			c-1.3,2.56-4.27,2.1-5.03,3.44c-0.34,0.59-1.8,13.34-5.49,10.06c0.01-11.29-0.01-22.58,0-33.87c9.39-2.1,11.86-12.59,18.75-18.41
			c0.83-5.72,6.04-8.01,9.15-12.27c1-1.38,3.97-7.22,5.49-9.33c3.59-4.99,7.88-9.7,11.43-14.72c0.1-0.14,0.46-2.79,0.91-3.44
			c2.44-3.48,4.82-5.09,5.03-5.4c0.95-1.35,1.44-3.86,1.83-4.42c1.43-2.02,4.44-4.32,5.94-6.38c0.24-0.33,3.24-6.82,3.66-7.36
			c1.07-1.39,5.11-2.79,5.49-5.64C-71.62-135.59-67.66-135.58-63.69-135.58z"/>
		<path class="st8" d="M-65.98,229.58c-3.05,0-6.1,0.01-9.15,0c-11.27-12.12-21.18-10.01-31.55-25.77c0-1.72,0-1.72,0-3.44
			c-11.34-12.35-19.64-32.09-25.61-41.23c-0.84-1.28-9.14-11.7-10.98-13.01c-0.01-7.36,0.01-14.72,0-22.09
			c6.18,1.09,4.96,17.41,17.83,28.71c5.81,13.75,31.01,53.89,40.01,61.6C-81.28,217.91-70.12,222.35-65.98,229.58z"/>
		<path class="st6" d="M225.32,122.09c-2.81-1.08-5.82-2.07-8.69-2.94c-0.74-0.22-1.99-0.28-2.74-0.49
			c-3.62-12.41,9.93-32.76,11.89-51.29c1.31-25.09,0.64-41.2-10.06-63.81c-0.16-0.34,0.29-1.98-0.46-3.44
			c-0.88-1.73-9.77-13.96-11.89-16.69c-4.25-5.45-9.83-9.87-13.49-15.95c-13.03-9.57-13.03-9.57-26.07-19.14
			c-2.63-0.54-4.95-0.57-6.4-3.44c-9.84-1.35-4.98-6.22-16.92-9.33c-2.2-0.57-11.38-1.2-16.01-2.45
			c-5.53-5.24-12.07-3.54-18.75-3.93c-0.32-0.02-2.59-3.21-5.49,0.49c-0.89-0.66-3.9-1.48-4.12-1.47
			c-14.74,0.6-36.45,7.69-49.85,14.72c-8.54,4.49-22.3,14.22-29.27,21.11c-6.32,6.25-10.97,14-17.15,20.37
			C-4.51-7.47-8.28,0.99-12.02,9.45c-0.21,0.47-1.63,1.41-2.29,2.94c-6.34,14.88-5.55,24.74-5.03,40.74
			c7.45,39.15,14.38,71.84,52.82,86.63c5.72-0.25,5.72-0.25,11.43-0.49c0.16-2.66,0.53-2.44,2.29-3.93
			c11.74-4.83,22.12-9.25,34.98-7.85c0.27,0.44-0.43,1.44,0.91,0.49c1.4,3.36,2.91,5.04,5.49,7.36
			c-15.12,7.99,6.79,14.78,13.49,16.2c7.06,1.5,15.5,0.33,21.95,3.93c15.04-0.92,30.06-1.68,45.04-3.44
			c3.77-0.44,7.68-0.92,11.43-1.47c-1.48,2.52-10.11,4.96-13.03,4.91c-10.19,5.93-22.22,6.58-32.47,12.76
			c-7.32,2.21-7.32,2.21-14.63,4.42c-7.69,1.14-11.85,2.16-18.75-1.47c-16.41,1.28-40.49-0.43-55.33-7.85
			c-11.23-5.62-26.7-19.82-38.41-26.01c-1.89-4.02-6.79-6.45-8.92-9.08c-3.56-4.4-8.97-16.27-12.8-21.11
			c-1.9-7.03-4.88-13.54-8.69-19.63c-0.91-4.42-0.91-4.42-1.83-8.83c-1.7-1.54-4.18-13.37-4.57-16.2c-0.12-0.86,0.67-1.61,0.46-3.44
			c-0.11-0.99-3.16-7.66,0-11.78c-2.03-6.19,1.64-13.14,0-19.63c2.79-9.07,4.12-18.06,7.77-26.99c2-4.88,8.22-17.35,12.35-19.63
			c1.19-8.04,4.74-6.04,6.17-7.12c1.75-1.31,2.77-6.37,4.34-8.59c0.82-1.16,18.79-19.02,19.89-19.88c0.76-0.59,4.56-1.13,8.69-5.89
			c7.61-1.57,13.41-10.4,21.49-9.82c6.43-4.85,14.35-6.01,21.04-9.33c4.24-0.14,8.92,0.16,12.35-2.94
			c6.12,0.28,11.07-1.35,16.92-1.96c1.6,0.98,1.6,0.98,3.2,1.96c4.76,0.68,29.69,2.71,31.1,3.44c1.11,0.58,1.66,3.49,3.2,4.42
			c3.29,1.97,14.26-0.1,18.75,7.36c8.92,0.43,11.1,9.76,18.75,10.31c2.75,4.28,7.75,6.09,11.43,9.33
			c4.69,4.13,10.75,12.91,17.38,16.69c15.56,16.46,19.99,34.94,28.12,55.71c1.37,10.8,1.37,10.8,2.74,21.6
			c-0.28,7.28,0.24,14.83-0.46,22.09C234.46,92.28,221.2,106.83,225.32,122.09z"/>
		<path class="st8" d="M92.25,137.8c4.41,2.57,7.28,3.68,12.35,4.42c0.31,2.75,5.01,2.22,6.63,2.45c0.2,0.03,0.99,2.71,2.97,0
			c10.37,2.08,20.83,2,31.33,1.96c0.11,0,0.57,0.69,0.91,0.98c4.86-2.55,13.79,0.43,18.29-2.45c3.48-0.18,4.59,0.86,5.72,0.98
			c1.5,0.17,3.26,0.7,4.8,0.98c0.35,0.06-0.79-2.17,3.2,1.47c2.57-1.8,5.29,0.33,8,0.98c-1.97,0.32-3.98,0.69-5.94,0.98
			c-3.75,0.55-7.66,1.03-11.43,1.47c-1.06-3.47-2.77-0.49-2.97-0.49c-0.34,0-0.12-0.99-0.46-0.98c-1.06,0.01-0.54,0.98-0.91,0.98
			c-15.1,0.14-53.19-0.85-66.31-5.89c-4-1.54-10.3-3.65-8.46-9.33C90.71,136.9,91.44,137.33,92.25,137.8z"/>
		<path class="st10" d="M178.22,127c11.03,2.4,23.43,1.35,34.98,2.94c4.67,0.65,9.62,3.07,14.18,2.45c-9.17-2.07,7.16,0.58-1.6-1.72
			c0.04-0.66,8.76,0.87,10.52,2.7c-3.34,3.66-16.1,8.08-21.04,9.33c-0.54,0.14-2.36-0.52-2.52-0.49c-0.15,0.03,0.17,1.07-2.29,1.47
			c-0.31,0.05-0.14-1.03-0.46-0.98c-0.36,0.05-5.99,2.42-6.86,2.45c-4.14,0.18,0.75-3.45-9.6,1.47c-0.69,0.33-2.35-0.85-3.2,1.47
			c1.94,0,1.94,0,3.89,0c-2.59,0.49-5.17,1.04-7.77,1.47c-2.71-0.65-5.43-2.79-8-0.98c-3.99-3.64-2.85-1.41-3.2-1.47
			c-1.54-0.28-3.3-0.81-4.8-0.98c4.53-2.93,6.29-0.34,7.55-0.49c0.2-0.41,2.15-1.46,2.29-1.47c14-1.84,28.09-2.91,41.39-8.59
			c1.26-4.76-43.94-7.59-47.33-6.63c0.11-0.98,0.11-0.98,0.23-1.96C175.77,126.93,177.02,127.11,178.22,127z"/>
		<path class="st7" d="M216.64,119.15c2.87,0.87,5.88,1.87,8.69,2.94c2.51,0.96,4.03,1.7,6.4,2.94c-10.26-0.45-33.49-2.87-42.3-1.47
			c-2.56,0.41-3.68,1.93-3.89,1.96c-1.6,0.28-3.7,1.15-7.32,1.47c-1.2,0.11-2.45-0.07-3.66,0c-1.63,0.1-2.94-0.58-4.57-0.49
			c-3.52-3.49,5.95-1.97,8.46-2.45c1.68-0.32,6.34-2.01,8.23-2.94c6.88-0.39,13.68-0.83,20.58-0.98c0.34-0.01,0.11-0.98,0.46-0.98
			C208.21,119.14,213.4,121.89,216.64,119.15z"/>
		<path class="st8" d="M231.73,125.04c3.17,1.66,7.71,1.59,5.49,6.87c-13.93-6.21-49-4.48-51.45-5.4c-0.35-0.13-0.23-0.64-0.23-0.98
			c0.21-0.04,1.33-1.56,3.89-1.96C198.24,122.17,221.47,124.59,231.73,125.04z"/>
		<path class="st9" d="M185.54,125.53c0,0.34-0.12,0.85,0.23,0.98c2.45,0.92,37.51-0.81,51.45,5.4c-0.31,0.74,0.12,0.34-0.91,1.47
			c-1.75-1.83-10.48-3.36-10.52-2.7c8.76,2.29-7.57-0.35,1.6,1.72c-4.55,0.61-9.5-1.81-14.18-2.45c-11.55-1.6-23.95-0.54-34.98-2.94
			C181.84,126.68,183.94,125.81,185.54,125.53z"/>
		<path class="st8" d="M215.26,142.71c-6.67,3.02-13.94,4.05-21.04,5.4c-1.94,0-1.94,0-3.89,0c0.85-2.32,2.51-1.14,3.2-1.47
			c10.36-4.92,5.47-1.29,9.6-1.47c0.87-0.04,6.5-2.4,6.86-2.45c0.31-0.05,0.15,1.03,0.46,0.98c2.46-0.4,2.13-1.44,2.29-1.47
			C212.9,142.19,214.72,142.84,215.26,142.71z"/>
		<path class="st11" d="M201.09,115.22c-2.23-0.38-4.48-0.67-6.63-1.47c-1.78,2.62-9.47,1.45-13.26,1.96
			c-4.33,0.59-12.79,3.27-18.29,3.93c-10.07,1.2-20.51,1.66-30.64,2.45c-3.42,0.27-3.45-1.03-4.12-0.98
			c-1.52,1.45-6.71,2.25-7.55,0.98c0.12-0.84,0.42-1.19,0.46-1.96c7.89-0.49,66.47-6.6,57.16-23.07c4.39-8.12,2.37-9.58,2.74-11.53
			c0.27-1.38,3.11-8.06,2.29-14.72c1-3.37,3.57-6.65,1.83-10.06c3.62-5.46,1.62-10.79-1.83-15.71c0.13-3.96-1.39-0.78-1.37-3.19
			c1.49-0.12,1.49-0.12,2.97-0.25c1.94-3.19,1.94-3.19,3.89-6.38c5.65,5.77,8.19,11.84,14.41,8.34c7.38-4.15,3.89-13.22,0.69-18.65
			c-1.38-2.34-3.11-3.92-4.57-6.14c1.73-8.79,1.23-12.7-3.66-20.12c-6.25-9.49-24.4-24.89-34.07-30.68
			c-5.28-3.16-14.18-5.2-18.75-10.31c-7.09-0.42-10.04-4.86-11.89-5.4c-7.91,0.04-14.9-3.54-22.87-3.93
			c-3.18-0.15-15.07,0.51-18.29,0.98c-1.34,0.2-3.72,1.8-4.57,1.96c-2.56,0.5-7.85,0.77-10.52,1.47c-0.69,0.18-2.52,1.9-2.74,1.96
			c-0.58,0.17-3-0.15-5.03,0.49c-14.55,4.62-31.96,14.87-43.44,25.52c-3.02,2.8-3.34,5.09-3.66,5.4c-4.04,0.55-5.11,4.86-7.55,7.61
			c-0.37,0.42-2.18,0.65-4.12,2.94C7.17-2.2,3.87,4,0.79,6.02c-2.12,5-3.65,11.17-6.4,15.22c-0.29,6.52-5.9,13.93-0.91,22.09
			c-0.49,4.6,0.87,7.84,2.74,11.78c1.47,20.95,5.25,47.75,22.18,61.11c17.03,13.43,37.72,6.69,57.16,7.36
			c0.11-0.49,0.11-0.49,0.23-0.98c1.92,0.26,4.01,0.28,5.94,0.49c0.36,2.37,0.46,2.73,1.37,4.91c-1.34,0.95-0.65-0.05-0.91-0.49
			c-1.55-2.56-11.04-2.22-14.41-1.96c-15.3,1.16-33.91,12.16-54.42-5.89c-13.76-12.1-19.09-34-22.64-51.78
			c-0.23-15.03-7.5-31.2-2.74-46.14C-9.29,13.16,0.42,0.5,3.99-8.22c10.4-11.17,10.4-11.17,20.81-22.33
			c14.34-10.09,28.56-20.46,45.27-25.52c17.76-3.62,30.62-6.75,48.93-2.94c12.7,5.5,25.98,7.91,38.41,14.72
			c17.1,9.37,37.05,27.38,47.33,44.91c12.37,21.09,5.52,20.79,5.94,26.5c4.97,8.24,1.74,18.26,3.2,26.99
			c-2.15,1.43-1.35,9.5-1.83,12.76c-0.07,0.45-2.12,2.04-1.37,8.83c-2.44,3.45-2.08,8.67-2.29,9.33
			c-1.77,5.77-10.45,20.47-9.15,26.01C199.41,111.68,201.87,112.73,201.09,115.22z"/>
		<path class="st6" d="M213.89,118.66c-4.22-1.18-8.49-2.7-12.8-3.44c0.78-2.49-1.68-3.54-1.83-4.17
			c-1.31-5.54,7.38-20.24,9.15-26.01c0.2-0.66-0.15-5.87,2.29-9.33c-0.74-6.8,1.3-8.38,1.37-8.83c0.48-3.26-0.32-11.33,1.83-12.76
			c-1.47-8.74,1.77-18.75-3.2-26.99c-0.43-5.72,6.43-5.41-5.94-26.5c-10.28-17.53-30.23-35.54-47.33-44.91
			c-12.44-6.81-25.72-9.23-38.41-14.72c-18.31-3.81-31.17-0.68-48.93,2.94C53.36-51.01,39.14-40.64,24.8-30.55
			C14.39-19.38,14.39-19.38,3.99-8.22C0.42,0.5-9.29,13.16-12.02,21.72c-4.76,14.93,2.52,31.11,2.74,46.14
			c3.55,17.79,8.88,39.68,22.64,51.78c20.51,18.05,39.12,7.05,54.42,5.89c3.36-0.26,12.86-0.6,14.41,1.96
			c-12.86-1.4-23.25,3.02-34.98,7.85c-1.76,1.48-2.13,1.26-2.29,3.93c-5.72,0.25-5.72,0.25-11.43,0.49
			c-38.44-14.79-45.37-47.47-52.82-86.63c-0.52-16-1.31-25.86,5.03-40.74c0.65-1.53,2.08-2.48,2.29-2.94
			c3.74-8.46,7.5-16.93,11.89-25.03C6.05-21.94,10.7-29.7,17.02-35.95c6.97-6.88,20.73-16.62,29.27-21.11
			c13.39-7.04,35.11-14.12,49.85-14.72c0.22-0.01,3.23,0.82,4.12,1.47c2.9-3.7,5.17-0.51,5.49-0.49c6.68,0.39,13.22-1.31,18.75,3.93
			c4.63,1.25,13.8,1.88,16.01,2.45c11.94,3.11,7.08,7.97,16.92,9.33c1.45,2.86,3.77,2.89,6.4,3.44
			c13.03,9.57,13.03,9.57,26.07,19.14c3.66,6.08,9.24,10.5,13.49,15.95c2.12,2.72,11.01,14.96,11.89,16.69
			c0.75,1.46,0.3,3.1,0.46,3.44c10.7,22.61,11.37,38.72,10.06,63.81C223.82,85.9,210.28,106.25,213.89,118.66z"/>
		<path class="st6" d="M201.09,115.22c4.31,0.74,8.58,2.25,12.8,3.44c0.75,0.21,2.01,0.27,2.74,0.49c-3.24,2.74-8.43,0-8.92,0
			c-0.34,0-0.11,0.97-0.46,0.98c-6.9,0.15-13.7,0.6-20.58,0.98c-1.89,0.93-6.55,2.62-8.23,2.94c-2.51,0.48-11.98-1.04-8.46,2.45
			c-4.39,0.23-8.65,0.37-13.03,0.49c-0.38,0.01-4.62,2.37-5.94-0.49c-1.52,0.14-1.71,1.47-1.83,1.47
			c-9.94,0.19-19.99-1.1-29.95-0.49c0.6-1.67,1.11-3.62,1.37-5.4c0.83,1.27,6.02,0.47,7.55-0.98c0.67-0.05,0.7,1.25,4.12,0.98
			c10.13-0.79,20.57-1.26,30.64-2.45c5.5-0.65,13.96-3.34,18.29-3.93c3.79-0.51,11.48,0.66,13.26-1.96
			C196.6,114.55,198.86,114.84,201.09,115.22z"/>
		<path class="st7" d="M89.96,136.33c-1.83,5.67,4.46,7.79,8.46,9.33c13.12,5.04,51.21,6.03,66.31,5.89c0.37,0-0.15-0.97,0.91-0.98
			c0.34,0,0.12,0.99,0.46,0.98c0.2,0,1.91-2.98,2.97,0.49c-14.98,1.75-30.01,2.51-45.04,3.44c-6.45-3.59-14.89-2.43-21.95-3.93
			c-6.7-1.42-28.61-8.21-13.49-16.2C88.98,135.69,89.54,136.01,89.96,136.33z"/>
		<path class="st11" d="M82.42,154.98c4.05,1.19,12.91-0.01,13.72,0.49C100.94,158.44,77.86,158.4,82.42,154.98z"/>
		<path class="st11" d="M77.84,154.98c2.59-1.66,1.98,2.41,0,0.98C77.46,155.69,77.45,155.23,77.84,154.98z"/>
		<path class="st12" d="M169.99,126.51c1.63-0.09,2.95,0.59,4.57,0.49c-0.11,0.98-0.11,0.98-0.23,1.96
			c3.39-0.97,48.59,1.87,47.33,6.63c-13.3,5.68-27.38,6.75-41.39,8.59c-0.13,0.02-2.08,1.06-2.29,1.47
			c-1.25,0.15-3.01-2.44-7.55,0.49c-1.13-0.13-2.23-1.16-5.72-0.98c-4.5,2.89-13.43-0.1-18.29,2.45c-0.34-0.29-0.8-0.98-0.91-0.98
			c-10.49,0.03-20.96,0.11-31.33-1.96c0.55-0.75,1.43-0.63,0.69-1.47c-1.49-0.25-1.49-0.25-2.97-0.49c8.3,0.27,21.6-1.11,29.95-2.45
			c17.41-2.79,27.46-5.5,1.83-7.85c-8.06-0.74-17.86-0.21-26.07-0.49c-0.34-0.37-0.34-0.37-0.69-0.74c0.59-1.48,2.21-3.47,2.29-3.68
			c9.97-0.61,20.01,0.68,29.95,0.49c0.11,0,0.31-1.33,1.83-1.47c1.32,2.86,5.56,0.5,5.94,0.49
			C161.34,126.88,165.6,126.74,169.99,126.51z"/>
		<path class="st9" d="M111.91,142.71c1.49,0.25,1.49,0.25,2.97,0.49c0.74,0.84-0.14,0.73-0.69,1.47c-1.99,2.71-2.77,0.03-2.97,0
			c-1.62-0.23-6.33,0.3-6.63-2.45C106.66,142.52,109.75,142.64,111.91,142.71z"/>
		<path class="st11" d="M203.83,24.91c-25.99-28.75-60.46-47.05-97.86-49.08c-6.81-0.37-12.89-0.15-19.66,0.49
			c-17.8,1.69-32.42,6.25-48.47,14.72C25.69-2.54,5.74,11.89-2.41,23.2c-4.34,6.02-6.88,10.09-3.66,16.44
			c0.78,1.53,0.73,1.36,1.83,2.45c4.14,4.12,6.36,4.37,10.52,0c5.02-0.44,6.14,2.83,6.63,2.94c2.08,0.51,3.6-2.9,3.43,0.98
			c-2.2,3.72-4.1,7.26-2.74,11.78c-3.51,2.27,0.18,7.74,0.46,9.57c0.36,2.41-0.48,2.8-0.46,2.94c1.28,7.57,3.48,18.68,9.15,23.31
			c-1.36,0.91-4.91,3.2-5.49,4.66c-6.58,16.68,49.95,23.11,58.54,24.3c-0.11,0.49-0.11,0.49-0.23,0.98
			c-19.44-0.67-40.14,6.07-57.16-7.36C1.47,102.85-2.32,76.05-3.79,55.1c-1.87-3.94-3.24-7.18-2.74-11.78
			c-4.99-8.16,0.63-15.57,0.91-22.09c2.75-4.05,4.28-10.21,6.4-15.22C3.87,4,7.17-2.2,8.1-3.31c1.94-2.3,3.74-2.52,4.12-2.94
			c2.43-2.74,3.51-7.05,7.55-7.61c0.32-0.31,0.64-2.6,3.66-5.4c11.49-10.65,28.89-20.9,43.44-25.52c2.03-0.64,4.45-0.32,5.03-0.49
			c0.23-0.07,2.06-1.78,2.74-1.96c2.67-0.7,7.96-0.97,10.52-1.47c0.85-0.17,3.23-1.77,4.57-1.96c3.22-0.48,15.11-1.14,18.29-0.98
			c7.97,0.39,14.96,3.97,22.87,3.93c1.85,0.54,4.8,4.97,11.89,5.4c4.57,5.11,13.47,7.15,18.75,10.31
			c9.67,5.79,27.82,21.18,34.07,30.68c4.88,7.42,5.39,11.33,3.66,20.12C200.72,21,202.45,22.58,203.83,24.91z"/>
	</g>
	<g>
		<path class="st13" d="M100.43,123.7c-3.53,0-6.39,2.86-6.39,6.39c0,3.53,2.86,6.39,6.39,6.39c3.53,0,6.39-2.86,6.39-6.39l0,0
			C106.82,126.56,103.96,123.7,100.43,123.7z M97.33,134.06c0.06-0.8,0.45-2.18,3.11-2.18s3.05,1.38,3.11,2.18
			C101.72,135.49,99.15,135.49,97.33,134.06L97.33,134.06z M100.43,130.28c-0.81,0-1.46-0.66-1.46-1.46c0-0.81,0.66-1.46,1.46-1.46
			s1.46,0.66,1.46,1.46C101.9,129.62,101.24,130.28,100.43,130.28z M104.64,132.87c-0.38-1-1.21-1.76-2.24-2.05
			c1.11-1.09,1.13-2.87,0.04-3.98c-1.09-1.11-2.87-1.13-3.98-0.04s-1.13,2.87-0.04,3.98c0.01,0.01,0.03,0.03,0.04,0.04
			c-1.03,0.29-1.86,1.05-2.24,2.05c-1.54-2.32-0.9-5.45,1.42-6.99c2.32-1.54,5.45-0.9,6.99,1.42
			C105.75,129,105.75,131.19,104.64,132.87z"/>
		<path class="st13" d="M109.44,127.03l-1.15-0.2l0.66-0.93c0.53-0.7,0.47-1.68-0.15-2.3l-1.88-1.89c-0.61-0.62-1.59-0.69-2.28-0.16
			l-0.95,0.68l-0.19-1.13c-0.12-0.87-0.86-1.51-1.73-1.52H99.1c-0.87,0-1.61,0.64-1.73,1.5l-0.2,1.15l-0.93-0.66
			c-0.7-0.53-1.68-0.47-2.3,0.15l-1.89,1.88c-0.62,0.61-0.69,1.59-0.16,2.28l0.68,0.95l-1.13,0.19c-0.87,0.12-1.51,0.86-1.52,1.73
			v2.67c0,0.87,0.64,1.61,1.5,1.73l1.15,0.2l-0.66,0.93c-0.53,0.7-0.47,1.68,0.15,2.3l1.88,1.89c0.33,0.33,0.78,0.51,1.24,0.51
			c0.37,0,0.74-0.12,1.04-0.35l0.95-0.68l0.19,1.13c0.12,0.87,0.86,1.51,1.73,1.52h2.66c0.87,0,1.61-0.64,1.73-1.5l0.2-1.15
			l0.93,0.66c0.3,0.23,0.68,0.36,1.06,0.36c0.46,0,0.91-0.18,1.24-0.51l1.89-1.89c0.62-0.61,0.69-1.59,0.16-2.28l-0.68-0.95
			l1.13-0.19c0.87-0.12,1.51-0.86,1.52-1.73v-2.66C110.95,127.89,110.3,127.15,109.44,127.03z M109.59,131.43
			c0,0.2-0.15,0.37-0.35,0.39h-0.03l-2.2,0.38c-0.37,0.07-0.61,0.42-0.54,0.79c0.02,0.09,0.05,0.18,0.11,0.26l1.31,1.84l0.02,0.02
			c0.11,0.16,0.09,0.37-0.05,0.51l-1.89,1.91c-0.14,0.14-0.37,0.15-0.52,0.03l-0.02-0.03l-1.83-1.29c-0.3-0.22-0.73-0.14-0.94,0.16
			c-0.06,0.08-0.1,0.18-0.11,0.28l-0.38,2.22v0.03c-0.03,0.19-0.2,0.33-0.39,0.33H99.1c-0.2,0-0.37-0.15-0.39-0.35v-0.03l-0.37-2.2
			c-0.06-0.37-0.42-0.61-0.78-0.55c-0.1,0.02-0.19,0.05-0.27,0.11l-1.84,1.31l-0.02,0.02c-0.16,0.11-0.37,0.09-0.51-0.05L93,135.63
			c-0.14-0.14-0.16-0.37-0.03-0.52l0.02-0.02l1.3-1.83c0.22-0.3,0.14-0.73-0.16-0.94c-0.08-0.06-0.18-0.1-0.28-0.11l-2.22-0.38H91.6
			c-0.19-0.03-0.33-0.2-0.33-0.39v-2.66c0-0.2,0.15-0.37,0.35-0.39h0.03l2.2-0.38c0.37-0.07,0.61-0.42,0.54-0.79
			c-0.02-0.09-0.05-0.18-0.11-0.26l-1.31-1.84l-0.02-0.02c-0.11-0.16-0.09-0.37,0.05-0.51l1.89-1.91c0.14-0.14,0.37-0.16,0.52-0.03
			l0.02,0.02l1.83,1.3c0.3,0.22,0.73,0.14,0.94-0.16c0.06-0.08,0.1-0.18,0.11-0.28l0.38-2.22v-0.03c0.03-0.19,0.2-0.33,0.39-0.33
			h2.66c0.2,0,0.37,0.15,0.39,0.35v0.03l0.37,2.2c0.07,0.37,0.42,0.61,0.78,0.55c0.1-0.02,0.19-0.06,0.27-0.11l1.84-1.31l0.02-0.02
			c0.16-0.11,0.37-0.09,0.51,0.05l1.91,1.89c0.14,0.14,0.16,0.37,0.03,0.52l-0.02,0.02l-1.3,1.83c-0.22,0.3-0.14,0.73,0.16,0.94
			c0.08,0.06,0.18,0.1,0.28,0.11l2.22,0.38h0.03c0.19,0.03,0.33,0.2,0.33,0.39L109.59,131.43z"/>
	</g>
	<path class="st14" d="M92.13,93.38h-1.63c0,5.85,4.76,10.62,10.62,10.62s10.62-4.76,10.62-10.62h-1.63c0,1.88-0.58,3.63-1.58,5.08
		c-1.21-1.18-2.67-2.04-4.26-2.53c1.07-0.9,1.75-2.24,1.75-3.75c0-2.7-2.2-4.9-4.9-4.9c-2.7,0-4.9,2.2-4.9,4.9
		c0,1.5,0.68,2.85,1.75,3.75c-1.59,0.49-3.05,1.36-4.26,2.53C92.71,97.01,92.13,95.26,92.13,93.38z M97.84,92.18
		c0-1.8,1.47-3.27,3.27-3.27c1.8,0,3.27,1.47,3.27,3.27s-1.47,3.27-3.27,3.27C99.31,95.45,97.84,93.98,97.84,92.18z M101.11,97.08
		c2.4,0,4.68,0.96,6.36,2.64c-1.63,1.63-3.88,2.64-6.36,2.64c-2.48,0-4.73-1.01-6.36-2.64C96.43,98.04,98.71,97.08,101.11,97.08z"/>
	<path class="st14" d="M122.27,103.97h-1.63c0,5.85,4.76,10.62,10.62,10.62c5.85,0,10.62-4.76,10.62-10.62h-1.63
		c0,1.88-0.58,3.63-1.58,5.08c-1.21-1.18-2.67-2.04-4.26-2.53c1.07-0.9,1.75-2.24,1.75-3.75c0-2.7-2.2-4.9-4.9-4.9
		c-2.7,0-4.9,2.2-4.9,4.9c0,1.5,0.68,2.85,1.75,3.75c-1.59,0.49-3.05,1.36-4.26,2.53C122.86,107.61,122.27,105.86,122.27,103.97z
		 M127.99,102.77c0-1.8,1.47-3.27,3.27-3.27c1.8,0,3.27,1.47,3.27,3.27s-1.47,3.27-3.27,3.27
		C129.46,106.04,127.99,104.57,127.99,102.77z M131.26,107.67c2.4,0,4.68,0.96,6.36,2.64c-1.63,1.63-3.88,2.64-6.36,2.64
		c-2.48,0-4.73-1.01-6.36-2.64C126.58,108.63,128.86,107.67,131.26,107.67z"/>
	<path class="st14" d="M59.64,104.83h-1.63c0,5.85,4.76,10.62,10.62,10.62s10.62-4.76,10.62-10.62h-1.63c0,1.88-0.58,3.63-1.58,5.08
		c-1.21-1.18-2.67-2.04-4.26-2.53c1.07-0.9,1.75-2.24,1.75-3.75c0-2.7-2.2-4.9-4.9-4.9c-2.7,0-4.9,2.2-4.9,4.9
		c0,1.5,0.68,2.85,1.75,3.75c-1.59,0.49-3.05,1.36-4.26,2.53C60.23,108.46,59.64,106.71,59.64,104.83z M65.36,103.62
		c0-1.8,1.47-3.27,3.27-3.27c1.8,0,3.27,1.47,3.27,3.27s-1.47,3.27-3.27,3.27C66.83,106.89,65.36,105.42,65.36,103.62z
		 M68.63,108.52c2.4,0,4.68,0.96,6.36,2.64c-1.63,1.63-3.88,2.64-6.36,2.64c-2.48,0-4.73-1.01-6.36-2.64
		C63.95,109.48,66.23,108.52,68.63,108.52z"/>
	<path class="st14" d="M38.07,83.77h-1.31c0,4.68,3.81,8.49,8.49,8.49s8.49-3.81,8.49-8.49h-1.31c0,1.51-0.47,2.9-1.26,4.06
		c-0.97-0.94-2.13-1.63-3.4-2.02c0.85-0.72,1.4-1.79,1.4-3c0-2.16-1.76-3.92-3.92-3.92c-2.16,0-3.92,1.76-3.92,3.92
		c0,1.2,0.54,2.28,1.4,3c-1.27,0.39-2.44,1.08-3.4,2.02C38.54,86.67,38.07,85.27,38.07,83.77z M42.65,82.8
		c0-1.44,1.17-2.61,2.61-2.61c1.44,0,2.61,1.17,2.61,2.61s-1.17,2.61-2.61,2.61C43.82,85.42,42.65,84.24,42.65,82.8z M45.26,86.72
		c1.92,0,3.74,0.76,5.08,2.11c-1.3,1.3-3.1,2.11-5.08,2.11c-1.98,0-3.78-0.81-5.08-2.11C41.52,87.49,43.34,86.72,45.26,86.72z"/>
	<path class="st14" d="M19.84,65.17h-0.85c0,3.06,2.49,5.55,5.55,5.55s5.55-2.49,5.55-5.55h-0.85c0,0.98-0.31,1.9-0.82,2.65
		c-0.63-0.62-1.39-1.07-2.22-1.32c0.56-0.47,0.91-1.17,0.91-1.96c0-1.41-1.15-2.56-2.56-2.56c-1.41,0-2.56,1.15-2.56,2.56
		c0,0.79,0.36,1.49,0.91,1.96c-0.83,0.26-1.59,0.71-2.22,1.32C20.14,67.07,19.84,66.15,19.84,65.17z M22.83,64.54
		c0-0.94,0.77-1.71,1.71-1.71c0.94,0,1.71,0.77,1.71,1.71c0,0.94-0.77,1.71-1.71,1.71C23.59,66.25,22.83,65.48,22.83,64.54z
		 M24.53,67.1c1.25,0,2.45,0.5,3.32,1.38c-0.85,0.85-2.03,1.38-3.32,1.38c-1.3,0-2.47-0.53-3.32-1.38
		C22.09,67.6,23.28,67.1,24.53,67.1z"/>
	<path class="st14" d="M44.38,53h-0.85c0,3.06,2.49,5.55,5.55,5.55s5.55-2.49,5.55-5.55h-0.85c0,0.98-0.31,1.9-0.82,2.65
		c-0.63-0.62-1.39-1.07-2.22-1.32c0.56-0.47,0.91-1.17,0.91-1.96c0-1.41-1.15-2.56-2.56-2.56c-1.41,0-2.56,1.15-2.56,2.56
		c0,0.79,0.36,1.49,0.91,1.96c-0.83,0.26-1.59,0.71-2.22,1.32C44.68,54.9,44.38,53.98,44.38,53z M47.37,52.37
		c0-0.94,0.77-1.71,1.71-1.71c0.94,0,1.71,0.77,1.71,1.71s-0.77,1.71-1.71,1.71C48.13,54.08,47.37,53.31,47.37,52.37z M49.08,54.93
		c1.25,0,2.45,0.5,3.32,1.38c-0.85,0.85-2.03,1.38-3.32,1.38c-1.3,0-2.47-0.53-3.32-1.38C46.63,55.43,47.82,54.93,49.08,54.93z"/>
	<path class="st14" d="M68.92,42.22h-0.85c0,3.06,2.49,5.55,5.55,5.55s5.55-2.49,5.55-5.55h-0.85c0,0.98-0.31,1.9-0.82,2.65
		c-0.63-0.62-1.39-1.07-2.22-1.32c0.56-0.47,0.91-1.17,0.91-1.96c0-1.41-1.15-2.56-2.56-2.56c-1.41,0-2.56,1.15-2.56,2.56
		c0,0.79,0.36,1.49,0.91,1.96c-0.83,0.26-1.59,0.71-2.22,1.32C69.23,44.12,68.92,43.21,68.92,42.22z M71.91,41.6
		c0-0.94,0.77-1.71,1.71-1.71c0.94,0,1.71,0.77,1.71,1.71s-0.77,1.71-1.71,1.71C72.67,43.3,71.91,42.54,71.91,41.6z M73.62,44.16
		c1.25,0,2.45,0.5,3.32,1.38c-0.85,0.85-2.03,1.38-3.32,1.38c-1.3,0-2.47-0.53-3.32-1.38C71.17,44.66,72.36,44.16,73.62,44.16z"/>
	<path class="st14" d="M118,42.22h-0.85c0,3.06,2.49,5.55,5.55,5.55c3.06,0,5.55-2.49,5.55-5.55h-0.85c0,0.98-0.31,1.9-0.82,2.65
		c-0.63-0.62-1.39-1.07-2.22-1.32c0.56-0.47,0.91-1.17,0.91-1.96c0-1.41-1.15-2.56-2.56-2.56c-1.41,0-2.56,1.15-2.56,2.56
		c0,0.79,0.36,1.49,0.91,1.96c-0.83,0.26-1.59,0.71-2.22,1.32C118.31,44.12,118,43.21,118,42.22z M120.99,41.6
		c0-0.94,0.77-1.71,1.71-1.71c0.94,0,1.71,0.77,1.71,1.71s-0.77,1.71-1.71,1.71C121.76,43.3,120.99,42.54,120.99,41.6z M122.7,44.16
		c1.25,0,2.45,0.5,3.32,1.38c-0.85,0.85-2.03,1.38-3.32,1.38c-1.3,0-2.47-0.53-3.32-1.38C120.25,44.66,121.44,44.16,122.7,44.16z"/>
	<path class="st14" d="M142.54,53h-0.85c0,3.06,2.49,5.55,5.55,5.55c3.06,0,5.55-2.49,5.55-5.55h-0.85c0,0.98-0.31,1.9-0.82,2.65
		c-0.63-0.62-1.39-1.07-2.22-1.32c0.56-0.47,0.91-1.17,0.91-1.96c0-1.41-1.15-2.56-2.56-2.56c-1.41,0-2.56,1.15-2.56,2.56
		c0,0.79,0.36,1.49,0.91,1.96c-0.83,0.26-1.59,0.71-2.22,1.32C142.85,54.9,142.54,53.98,142.54,53z M145.53,52.37
		c0-0.94,0.77-1.71,1.71-1.71c0.94,0,1.71,0.77,1.71,1.71s-0.77,1.71-1.71,1.71C146.3,54.08,145.53,53.31,145.53,52.37z
		 M147.24,54.93c1.25,0,2.45,0.5,3.32,1.38c-0.85,0.85-2.03,1.38-3.32,1.38c-1.3,0-2.47-0.53-3.32-1.38
		C144.79,55.43,145.99,54.93,147.24,54.93z"/>
	<path class="st14" d="M93.46,38.16h-0.85c0,3.06,2.49,5.55,5.55,5.55s5.55-2.49,5.55-5.55h-0.85c0,0.98-0.31,1.9-0.82,2.65
		c-0.63-0.62-1.39-1.07-2.22-1.32c0.56-0.47,0.91-1.17,0.91-1.96c0-1.41-1.15-2.56-2.56-2.56c-1.41,0-2.56,1.15-2.56,2.56
		c0,0.79,0.36,1.49,0.91,1.96c-0.83,0.26-1.59,0.71-2.22,1.32C93.77,40.06,93.46,39.14,93.46,38.16z M96.45,37.53
		c0-0.94,0.77-1.71,1.71-1.71c0.94,0,1.71,0.77,1.71,1.71c0,0.94-0.77,1.71-1.71,1.71C97.22,39.24,96.45,38.47,96.45,37.53z
		 M98.16,40.09c1.25,0,2.45,0.5,3.32,1.38c-0.85,0.85-2.03,1.38-3.32,1.38c-1.3,0-2.47-0.53-3.32-1.38
		C95.71,40.59,96.9,40.09,98.16,40.09z"/>
	<path class="st14" d="M167.08,65.58h-0.85c0,3.06,2.49,5.55,5.55,5.55c3.06,0,5.55-2.49,5.55-5.55h-0.85c0,0.98-0.31,1.9-0.82,2.65
		c-0.63-0.62-1.39-1.07-2.22-1.32c0.56-0.47,0.91-1.17,0.91-1.96c0-1.41-1.15-2.56-2.56-2.56c-1.41,0-2.56,1.15-2.56,2.56
		c0,0.79,0.36,1.49,0.91,1.96c-0.83,0.26-1.59,0.71-2.22,1.32C167.39,67.48,167.08,66.56,167.08,65.58z M170.07,64.95
		c0-0.94,0.77-1.71,1.71-1.71c0.94,0,1.71,0.77,1.71,1.71s-0.77,1.71-1.71,1.71C170.84,66.66,170.07,65.89,170.07,64.95z
		 M171.78,67.51c1.25,0,2.45,0.5,3.32,1.38c-0.85,0.85-2.03,1.38-3.32,1.38c-1.3,0-2.47-0.53-3.32-1.38
		C169.34,68.01,170.53,67.51,171.78,67.51z"/>
	<path class="st14" d="M93.93,66.22h-1.31c0,4.68,3.81,8.49,8.49,8.49s8.49-3.81,8.49-8.49h-1.31c0,1.51-0.47,2.9-1.26,4.06
		c-0.97-0.94-2.13-1.63-3.4-2.02c0.85-0.72,1.4-1.79,1.4-3c0-2.16-1.76-3.92-3.92-3.92c-2.16,0-3.92,1.76-3.92,3.92
		c0,1.2,0.54,2.28,1.4,3c-1.27,0.39-2.44,1.08-3.4,2.02C94.39,69.12,93.93,67.73,93.93,66.22z M98.5,65.26
		c0-1.44,1.17-2.61,2.61-2.61c1.44,0,2.61,1.17,2.61,2.61c0,1.44-1.17,2.61-2.61,2.61C99.67,67.87,98.5,66.7,98.5,65.26z
		 M101.11,69.18c1.92,0,3.74,0.76,5.08,2.11c-1.3,1.3-3.1,2.11-5.08,2.11c-1.98,0-3.78-0.81-5.08-2.11
		C97.37,69.94,99.19,69.18,101.11,69.18z"/>
	<path class="st14" d="M66.46,70.66h-1.31c0,4.68,3.81,8.49,8.49,8.49s8.49-3.81,8.49-8.49h-1.31c0,1.51-0.47,2.9-1.26,4.06
		c-0.97-0.94-2.13-1.63-3.4-2.02c0.85-0.72,1.4-1.79,1.4-3c0-2.16-1.76-3.92-3.92-3.92c-2.16,0-3.92,1.76-3.92,3.92
		c0,1.2,0.54,2.28,1.4,3c-1.27,0.39-2.44,1.08-3.4,2.02C66.92,73.57,66.46,72.17,66.46,70.66z M71.03,69.7
		c0-1.44,1.17-2.61,2.61-2.61c1.44,0,2.61,1.17,2.61,2.61s-1.17,2.61-2.61,2.61C72.2,72.31,71.03,71.14,71.03,69.7z M73.64,73.62
		c1.92,0,3.74,0.76,5.08,2.11c-1.3,1.3-3.1,2.11-5.08,2.11c-1.98,0-3.78-0.81-5.08-2.11C69.9,74.39,71.72,73.62,73.64,73.62z"/>
	<path class="st14" d="M121.85,72.73h-1.31c0,4.68,3.81,8.49,8.49,8.49s8.49-3.81,8.49-8.49h-1.31c0,1.51-0.47,2.9-1.26,4.06
		c-0.97-0.94-2.13-1.63-3.4-2.02c0.85-0.72,1.4-1.79,1.4-3c0-2.16-1.76-3.92-3.92-3.92c-2.16,0-3.92,1.76-3.92,3.92
		c0,1.2,0.54,2.28,1.4,3c-1.27,0.39-2.44,1.08-3.4,2.02C122.32,75.63,121.85,74.23,121.85,72.73z M126.43,71.77
		c0-1.44,1.17-2.61,2.61-2.61c1.44,0,2.61,1.17,2.61,2.61s-1.17,2.61-2.61,2.61C127.6,74.38,126.43,73.21,126.43,71.77z
		 M129.04,75.68c1.92,0,3.74,0.76,5.08,2.11c-1.3,1.3-3.1,2.11-5.08,2.11c-1.98,0-3.78-0.81-5.08-2.11
		C125.3,76.45,127.12,75.68,129.04,75.68z"/>
	<path class="st14" d="M149.78,83.61h-1.31c0,4.68,3.81,8.49,8.49,8.49s8.49-3.81,8.49-8.49h-1.31c0,1.51-0.47,2.9-1.26,4.06
		c-0.97-0.94-2.13-1.63-3.4-2.02c0.85-0.72,1.4-1.79,1.4-3c0-2.16-1.76-3.92-3.92-3.92c-2.16,0-3.92,1.76-3.92,3.92
		c0,1.2,0.54,2.28,1.4,3c-1.27,0.39-2.44,1.08-3.4,2.02C150.25,86.52,149.78,85.12,149.78,83.61z M154.35,82.65
		c0-1.44,1.17-2.61,2.61-2.61c1.44,0,2.61,1.17,2.61,2.61s-1.17,2.61-2.61,2.61C155.52,85.26,154.35,84.09,154.35,82.65z
		 M156.96,86.57c1.92,0,3.74,0.76,5.08,2.11c-1.3,1.3-3.1,2.11-5.08,2.11c-1.98,0-3.78-0.81-5.08-2.11
		C153.22,87.33,155.05,86.57,156.96,86.57z"/>
</g>
</svg>
