<?xml version="1.0" encoding="utf-8"?>
<!-- Generator: Adobe Illustrator 28.1.0, SVG Export Plug-In . SVG Version: 6.00 Build 0)  -->
<svg version="1.1" xmlns="http://www.w3.org/2000/svg" xmlns:xlink="http://www.w3.org/1999/xlink" x="0px" y="0px"
	 viewBox="0 0 358.28 157.66" style="enable-background:new 0 0 358.28 157.66;" xml:space="preserve">
<style type="text/css">
	.st0{display:none;fill:#F2F1F2;}
	.st1{display:none;fill:#2F332C;}
	.st2{display:none;}
	.st3{display:inline;fill:#A7BF39;}
	.st4{display:inline;fill:#60741C;}
	.st5{fill:none;stroke:#60741C;stroke-width:0.5;stroke-miterlimit:10;}
	.st6{fill:#A7BF39;}
	.st7{fill:#60741C;}
	.st8{display:inline;}
	.st9{fill:#4D8F41;}
	.st10{display:inline;fill:#809157;}
	.st11{fill:#48833D;}
	.st12{fill:#4B7637;}
</style>
<g id="Layer_2">
	<rect class="st0" width="358.28" height="157.66"/>
	<rect class="st1" width="358.28" height="157.66"/>
	<g class="st2">
		<path class="st3" d="M235.54,60.22h-2.46v-0.89h5.98v0.89h-2.47v7.2h-1.06V60.22z"/>
		<path class="st3" d="M239.67,64.71c0.02,1.43,0.94,2.02,1.99,2.02c0.76,0,1.21-0.13,1.61-0.3l0.18,0.75
			c-0.37,0.17-1.01,0.36-1.93,0.36c-1.79,0-2.85-1.18-2.85-2.93s1.03-3.13,2.72-3.13c1.89,0,2.4,1.67,2.4,2.73
			c0,0.22-0.02,0.38-0.04,0.49H239.67z M242.76,63.95c0.01-0.67-0.28-1.71-1.46-1.71c-1.07,0-1.54,0.98-1.62,1.71H242.76z"/>
		<path class="st3" d="M245.09,63.42c0-0.68-0.01-1.27-0.05-1.81h0.92l0.04,1.14h0.05c0.26-0.78,0.9-1.27,1.61-1.27
			c0.12,0,0.2,0.01,0.3,0.04v1c-0.11-0.02-0.22-0.04-0.36-0.04c-0.74,0-1.27,0.56-1.42,1.36c-0.02,0.14-0.05,0.31-0.05,0.49v3.09
			h-1.04V63.42z"/>
		<path class="st3" d="M250.58,59.95v1.67h1.51v0.8h-1.51v3.13c0,0.72,0.2,1.13,0.79,1.13c0.28,0,0.48-0.04,0.61-0.07l0.05,0.79
			c-0.2,0.08-0.53,0.14-0.94,0.14c-0.49,0-0.89-0.16-1.14-0.44c-0.3-0.31-0.41-0.83-0.41-1.51v-3.17h-0.9v-0.8h0.9v-1.39
			L250.58,59.95z"/>
		<path class="st3" d="M254.45,59.98c0.01,0.36-0.25,0.65-0.67,0.65c-0.37,0-0.64-0.29-0.64-0.65c0-0.37,0.28-0.66,0.66-0.66
			C254.2,59.32,254.45,59.61,254.45,59.98z M253.28,67.42v-5.8h1.05v5.8H253.28z"/>
		<path class="st3" d="M259.3,67.42l-0.08-0.73h-0.04c-0.32,0.46-0.95,0.86-1.78,0.86c-1.17,0-1.77-0.83-1.77-1.67
			c0-1.4,1.25-2.17,3.49-2.16V63.6c0-0.48-0.13-1.34-1.32-1.34c-0.54,0-1.1,0.17-1.51,0.43l-0.24-0.7c0.48-0.31,1.17-0.52,1.91-0.52
			c1.78,0,2.21,1.21,2.21,2.37v2.17c0,0.5,0.02,1,0.1,1.39H259.3z M259.14,64.46c-1.15-0.02-2.46,0.18-2.46,1.31
			c0,0.68,0.46,1.01,1,1.01c0.76,0,1.24-0.48,1.4-0.97c0.04-0.11,0.06-0.23,0.06-0.34V64.46z"/>
		<path class="st3" d="M261.87,63.42c0-0.68-0.01-1.27-0.05-1.81h0.92l0.04,1.14h0.05c0.26-0.78,0.9-1.27,1.61-1.27
			c0.12,0,0.2,0.01,0.3,0.04v1c-0.11-0.02-0.22-0.04-0.36-0.04c-0.74,0-1.27,0.56-1.42,1.36c-0.02,0.14-0.05,0.31-0.05,0.49v3.09
			h-1.04V63.42z"/>
		<path class="st3" d="M266.48,61.61l1.27,3.43c0.13,0.38,0.28,0.84,0.37,1.19h0.02c0.11-0.35,0.23-0.79,0.37-1.21l1.15-3.41h1.12
			l-1.58,4.14c-0.75,1.99-1.27,3.01-1.99,3.63c-0.52,0.46-1.03,0.64-1.3,0.68l-0.26-0.89c0.26-0.08,0.61-0.25,0.92-0.52
			c0.29-0.23,0.65-0.64,0.89-1.17c0.05-0.11,0.08-0.19,0.08-0.25c0-0.06-0.02-0.14-0.07-0.28l-2.15-5.35H266.48z"/>
		<path class="st3" d="M274.32,59.43c0.5-0.08,1.16-0.16,2-0.16c1.03,0,1.79,0.24,2.27,0.67c0.44,0.38,0.71,0.97,0.71,1.69
			c0,0.73-0.22,1.31-0.62,1.73c-0.55,0.59-1.45,0.89-2.47,0.89c-0.31,0-0.6-0.01-0.84-0.07v3.24h-1.04V59.43z M275.37,63.33
			c0.23,0.06,0.52,0.08,0.86,0.08c1.26,0,2.03-0.61,2.03-1.73c0-1.07-0.76-1.58-1.91-1.58c-0.46,0-0.8,0.04-0.98,0.08V63.33z"/>
		<path class="st3" d="M285.63,64.47c0,2.15-1.49,3.08-2.89,3.08c-1.57,0-2.78-1.15-2.78-2.99c0-1.94,1.27-3.08,2.88-3.08
			C284.5,61.48,285.63,62.69,285.63,64.47z M281.02,64.53c0,1.27,0.73,2.23,1.76,2.23c1.01,0,1.76-0.95,1.76-2.25
			c0-0.98-0.49-2.23-1.74-2.23C281.56,62.27,281.02,63.42,281.02,64.53z"/>
		<path class="st3" d="M288.14,59.98c0.01,0.36-0.25,0.65-0.67,0.65c-0.37,0-0.64-0.29-0.64-0.65c0-0.37,0.28-0.66,0.66-0.66
			C287.88,59.32,288.14,59.61,288.14,59.98z M286.96,67.42v-5.8h1.05v5.8H286.96z"/>
		<path class="st3" d="M289.77,63.18c0-0.6-0.01-1.09-0.05-1.57h0.94l0.06,0.96h0.02c0.29-0.55,0.96-1.09,1.92-1.09
			c0.8,0,2.05,0.48,2.05,2.47v3.47h-1.05v-3.35c0-0.94-0.35-1.72-1.34-1.72c-0.7,0-1.24,0.49-1.42,1.08
			c-0.05,0.13-0.07,0.31-0.07,0.49v3.49h-1.05V63.18z"/>
		<path class="st3" d="M297.65,59.95v1.67h1.51v0.8h-1.51v3.13c0,0.72,0.2,1.13,0.79,1.13c0.28,0,0.48-0.04,0.61-0.07l0.05,0.79
			c-0.2,0.08-0.53,0.14-0.94,0.14c-0.49,0-0.89-0.16-1.14-0.44c-0.3-0.31-0.41-0.83-0.41-1.51v-3.17h-0.9v-0.8h0.9v-1.39
			L297.65,59.95z"/>
		<path class="st3" d="M300.21,66.34c0.31,0.2,0.86,0.42,1.39,0.42c0.77,0,1.13-0.38,1.13-0.86c0-0.5-0.3-0.78-1.08-1.07
			c-1.04-0.37-1.54-0.95-1.54-1.64c0-0.94,0.76-1.7,2-1.7c0.59,0,1.1,0.17,1.43,0.36l-0.26,0.77c-0.23-0.14-0.65-0.34-1.19-0.34
			c-0.62,0-0.97,0.36-0.97,0.79c0,0.48,0.35,0.7,1.1,0.98c1.01,0.38,1.52,0.89,1.52,1.75c0,1.02-0.79,1.74-2.17,1.74
			c-0.64,0-1.22-0.16-1.63-0.4L300.21,66.34z"/>
		<path class="st4" d="M235.41,72.09v1.65h1.58v0.42h-1.58v1.66h-0.45v-1.66h-1.58v-0.42h1.58v-1.65H235.41z"/>
		<path class="st4" d="M238.92,71.84h-0.01l-0.79,0.43l-0.12-0.47l0.99-0.53h0.53v4.55h-0.59V71.84z"/>
		<path class="st4" d="M243.22,72.55c0,0.96-0.5,1.44-1.09,1.44c-0.57,0-1.06-0.46-1.06-1.37c0-0.91,0.5-1.42,1.1-1.42
			C242.8,71.19,243.22,71.68,243.22,72.55z M241.56,72.59c-0.01,0.58,0.2,1.02,0.59,1.02c0.41,0,0.59-0.43,0.59-1.04
			c0-0.55-0.16-1.02-0.59-1.02C241.76,71.56,241.56,72.02,241.56,72.59z M242.09,75.9l2.68-4.71h0.39l-2.68,4.71H242.09z
			 M246.19,74.43c0,0.96-0.5,1.44-1.09,1.44c-0.57,0-1.06-0.46-1.06-1.37c0-0.92,0.5-1.43,1.1-1.43
			C245.77,73.07,246.19,73.56,246.19,74.43z M244.52,74.47c-0.01,0.58,0.22,1.02,0.6,1.02c0.41,0,0.59-0.43,0.59-1.04
			c0-0.55-0.16-1.02-0.59-1.02C244.73,73.44,244.52,73.9,244.52,74.47z"/>
		<path class="st4" d="M251.72,75.66c-0.22,0.11-0.67,0.22-1.25,0.22c-1.33,0-2.33-0.84-2.33-2.39c0-1.48,1-2.48,2.47-2.48
			c0.59,0,0.96,0.13,1.12,0.21l-0.15,0.5c-0.23-0.11-0.56-0.2-0.95-0.2c-1.11,0-1.84,0.71-1.84,1.95c0,1.16,0.67,1.9,1.81,1.9
			c0.37,0,0.75-0.08,0.99-0.2L251.72,75.66z"/>
		<path class="st4" d="M256.36,73.41c0,1.62-0.99,2.49-2.19,2.49c-1.25,0-2.12-0.97-2.12-2.4c0-1.5,0.93-2.48,2.19-2.48
			C255.53,71.02,256.36,72.01,256.36,73.41z M252.7,73.49c0,1.01,0.55,1.91,1.51,1.91c0.97,0,1.51-0.89,1.51-1.96
			c0-0.94-0.49-1.92-1.51-1.92C253.21,71.52,252.7,72.45,252.7,73.49z"/>
		<path class="st4" d="M261.13,73.75c-0.04-0.66-0.08-1.45-0.07-2.04h-0.02c-0.16,0.55-0.36,1.14-0.59,1.79l-0.83,2.29h-0.46
			l-0.76-2.25c-0.22-0.67-0.41-1.27-0.55-1.83h-0.01c-0.01,0.59-0.05,1.38-0.09,2.09l-0.13,2.02h-0.58l0.33-4.72h0.78l0.81,2.28
			c0.2,0.58,0.36,1.1,0.48,1.59h0.02c0.12-0.48,0.29-0.99,0.5-1.59l0.84-2.28h0.78l0.29,4.72h-0.59L261.13,73.75z"/>
		<path class="st4" d="M266.76,73.75c-0.04-0.66-0.08-1.45-0.07-2.04h-0.02c-0.16,0.55-0.36,1.14-0.59,1.79l-0.83,2.29h-0.46
			l-0.76-2.25c-0.22-0.67-0.41-1.27-0.55-1.83h-0.01c-0.01,0.59-0.05,1.38-0.09,2.09l-0.13,2.02h-0.58l0.33-4.72h0.78l0.81,2.28
			c0.2,0.58,0.36,1.1,0.48,1.59h0.02c0.12-0.48,0.29-0.99,0.5-1.59l0.84-2.28h0.78l0.29,4.72h-0.59L266.76,73.75z"/>
		<path class="st4" d="M269.02,71.1v4.72h-0.61V71.1H269.02z"/>
		<path class="st4" d="M270,75.08c0.27,0.17,0.67,0.31,1.09,0.31c0.62,0,0.99-0.33,0.99-0.8c0-0.44-0.25-0.69-0.89-0.94
			c-0.77-0.27-1.25-0.67-1.25-1.34c0-0.74,0.61-1.28,1.53-1.28c0.48,0,0.83,0.11,1.04,0.23l-0.17,0.5c-0.15-0.08-0.47-0.22-0.9-0.22
			c-0.64,0-0.89,0.38-0.89,0.71c0,0.44,0.29,0.66,0.94,0.91c0.8,0.31,1.2,0.69,1.2,1.39c0,0.73-0.54,1.36-1.65,1.36
			c-0.46,0-0.95-0.13-1.21-0.3L270,75.08z"/>
		<path class="st4" d="M273.45,75.08c0.27,0.17,0.67,0.31,1.09,0.31c0.62,0,0.99-0.33,0.99-0.8c0-0.44-0.25-0.69-0.89-0.94
			c-0.77-0.27-1.25-0.67-1.25-1.34c0-0.74,0.61-1.28,1.53-1.28c0.48,0,0.83,0.11,1.04,0.23l-0.17,0.5c-0.15-0.08-0.47-0.22-0.9-0.22
			c-0.64,0-0.89,0.38-0.89,0.71c0,0.44,0.29,0.66,0.94,0.91c0.8,0.31,1.2,0.69,1.2,1.39c0,0.73-0.54,1.36-1.65,1.36
			c-0.46,0-0.95-0.13-1.21-0.3L273.45,75.08z"/>
		<path class="st4" d="M277.59,71.1v4.72h-0.61V71.1H277.59z"/>
		<path class="st4" d="M282.69,73.41c0,1.62-0.99,2.49-2.19,2.49c-1.25,0-2.12-0.97-2.12-2.4c0-1.5,0.93-2.48,2.19-2.48
			C281.86,71.02,282.69,72.01,282.69,73.41z M279.03,73.49c0,1.01,0.55,1.91,1.51,1.91c0.97,0,1.51-0.89,1.51-1.96
			c0-0.94-0.49-1.92-1.51-1.92C279.53,71.52,279.03,72.45,279.03,73.49z"/>
		<path class="st4" d="M283.48,75.82V71.1h0.67l1.51,2.39c0.35,0.55,0.62,1.05,0.85,1.53l0.01-0.01c-0.06-0.63-0.07-1.2-0.07-1.94
			V71.1h0.57v4.72h-0.62l-1.5-2.4c-0.33-0.53-0.64-1.06-0.88-1.58l-0.02,0.01c0.04,0.59,0.05,1.16,0.05,1.95v2.02H283.48z"/>
		<path class="st3" d="M233.86,88.95c0.47,0.29,1.15,0.53,1.87,0.53c1.07,0,1.69-0.56,1.69-1.38c0-0.75-0.43-1.19-1.52-1.61
			c-1.32-0.47-2.13-1.15-2.13-2.29c0-1.26,1.04-2.2,2.61-2.2c0.83,0,1.43,0.19,1.79,0.4l-0.29,0.85c-0.26-0.14-0.8-0.38-1.54-0.38
			c-1.1,0-1.52,0.66-1.52,1.21c0,0.76,0.49,1.13,1.61,1.56c1.37,0.53,2.06,1.19,2.06,2.37c0,1.25-0.92,2.33-2.83,2.33
			c-0.78,0-1.63-0.23-2.06-0.52L233.86,88.95z"/>
		<path class="st3" d="M240.54,87.51c0.02,1.43,0.94,2.02,1.99,2.02c0.76,0,1.21-0.13,1.61-0.3l0.18,0.75
			c-0.37,0.17-1.01,0.36-1.93,0.36c-1.79,0-2.85-1.18-2.85-2.93s1.03-3.13,2.72-3.13c1.9,0,2.4,1.67,2.4,2.73
			c0,0.22-0.02,0.38-0.04,0.49H240.54z M243.64,86.75c0.01-0.67-0.28-1.71-1.46-1.71c-1.07,0-1.54,0.98-1.62,1.71H243.64z"/>
		<path class="st3" d="M250.11,90c-0.28,0.14-0.89,0.34-1.67,0.34c-1.75,0-2.89-1.19-2.89-2.96c0-1.79,1.22-3.08,3.12-3.08
			c0.62,0,1.17,0.16,1.46,0.3l-0.24,0.82c-0.25-0.14-0.65-0.28-1.22-0.28c-1.33,0-2.05,0.98-2.05,2.19c0,1.34,0.86,2.17,2.01,2.17
			c0.6,0,1-0.16,1.29-0.29L250.11,90z"/>
		<path class="st3" d="M256.53,87.27c0,2.15-1.49,3.08-2.89,3.08c-1.57,0-2.78-1.15-2.78-2.99c0-1.94,1.27-3.08,2.88-3.08
			C255.4,84.28,256.53,85.49,256.53,87.27z M251.92,87.33c0,1.27,0.73,2.23,1.76,2.23c1.01,0,1.76-0.95,1.76-2.25
			c0-0.98-0.49-2.23-1.74-2.23C252.46,85.07,251.92,86.22,251.92,87.33z"/>
		<path class="st3" d="M257.86,85.99c0-0.6-0.01-1.09-0.05-1.57h0.94l0.06,0.96h0.02c0.29-0.55,0.96-1.09,1.92-1.09
			c0.8,0,2.05,0.48,2.05,2.47v3.47h-1.05v-3.35c0-0.94-0.35-1.72-1.34-1.72c-0.7,0-1.24,0.49-1.42,1.08
			c-0.05,0.13-0.07,0.31-0.07,0.49v3.49h-1.05V85.99z"/>
		<path class="st3" d="M269.53,81.7v7.02c0,0.52,0.01,1.1,0.05,1.5h-0.95l-0.05-1.01h-0.02c-0.32,0.65-1.03,1.14-1.98,1.14
			c-1.4,0-2.48-1.19-2.48-2.95c-0.01-1.93,1.19-3.12,2.6-3.12c0.89,0,1.49,0.42,1.75,0.89h0.02V81.7H269.53z M268.48,86.78
			c0-0.13-0.01-0.31-0.05-0.44c-0.16-0.67-0.73-1.22-1.52-1.22c-1.09,0-1.74,0.96-1.74,2.24c0,1.17,0.58,2.15,1.71,2.15
			c0.71,0,1.36-0.47,1.55-1.26c0.04-0.14,0.05-0.29,0.05-0.46V86.78z"/>
		<path class="st3" d="M274.5,90.22l-0.08-0.73h-0.04c-0.32,0.46-0.95,0.86-1.78,0.86c-1.17,0-1.77-0.83-1.77-1.67
			c0-1.4,1.25-2.17,3.49-2.16v-0.12c0-0.48-0.13-1.34-1.32-1.34c-0.54,0-1.1,0.17-1.51,0.43l-0.24-0.7
			c0.48-0.31,1.17-0.52,1.91-0.52c1.78,0,2.21,1.21,2.21,2.37v2.17c0,0.5,0.02,1,0.1,1.39H274.5z M274.35,87.26
			c-1.15-0.02-2.46,0.18-2.46,1.31c0,0.68,0.46,1.01,1,1.01c0.76,0,1.24-0.48,1.4-0.97c0.04-0.11,0.06-0.23,0.06-0.34V87.26z"/>
		<path class="st3" d="M277.07,86.22c0-0.68-0.01-1.27-0.05-1.81h0.92l0.04,1.14h0.05c0.26-0.78,0.9-1.27,1.61-1.27
			c0.12,0,0.2,0.01,0.3,0.04v1c-0.11-0.02-0.22-0.04-0.36-0.04c-0.74,0-1.27,0.56-1.42,1.36c-0.02,0.14-0.05,0.31-0.05,0.49v3.09
			h-1.04V86.22z"/>
		<path class="st3" d="M281.68,84.41l1.27,3.43c0.13,0.38,0.28,0.84,0.37,1.19h0.02c0.11-0.35,0.23-0.79,0.37-1.21l1.15-3.41h1.12
			l-1.58,4.14c-0.75,1.99-1.27,3.01-1.99,3.63c-0.52,0.46-1.03,0.64-1.3,0.68l-0.26-0.89c0.26-0.08,0.61-0.25,0.92-0.52
			c0.29-0.23,0.65-0.64,0.89-1.17c0.05-0.11,0.08-0.19,0.08-0.25c0-0.06-0.02-0.14-0.07-0.28l-2.15-5.35H281.68z"/>
		<path class="st3" d="M289.53,82.23c0.5-0.08,1.16-0.16,2-0.16c1.03,0,1.79,0.24,2.27,0.67c0.44,0.38,0.71,0.97,0.71,1.69
			c0,0.73-0.22,1.31-0.62,1.73c-0.55,0.59-1.45,0.89-2.47,0.89c-0.31,0-0.6-0.01-0.84-0.07v3.24h-1.04V82.23z M290.57,86.13
			c0.23,0.06,0.52,0.08,0.86,0.08c1.26,0,2.03-0.61,2.03-1.73c0-1.07-0.76-1.58-1.91-1.58c-0.46,0-0.8,0.04-0.98,0.08V86.13z"/>
		<path class="st3" d="M300.83,87.27c0,2.15-1.49,3.08-2.89,3.08c-1.57,0-2.78-1.15-2.78-2.99c0-1.94,1.27-3.08,2.88-3.08
			C299.7,84.28,300.83,85.49,300.83,87.27z M296.22,87.33c0,1.27,0.73,2.23,1.76,2.23c1.01,0,1.76-0.95,1.76-2.25
			c0-0.98-0.49-2.23-1.74-2.23C296.76,85.07,296.22,86.22,296.22,87.33z"/>
		<path class="st3" d="M303.34,82.78c0.01,0.36-0.25,0.65-0.67,0.65c-0.37,0-0.64-0.29-0.64-0.65c0-0.37,0.28-0.66,0.66-0.66
			C303.09,82.12,303.34,82.41,303.34,82.78z M302.17,90.22v-5.8h1.05v5.8H302.17z"/>
		<path class="st3" d="M304.97,85.99c0-0.6-0.01-1.09-0.05-1.57h0.94l0.06,0.96h0.02c0.29-0.55,0.96-1.09,1.92-1.09
			c0.8,0,2.05,0.48,2.05,2.47v3.47h-1.05v-3.35c0-0.94-0.35-1.72-1.34-1.72c-0.7,0-1.24,0.49-1.42,1.08
			c-0.05,0.13-0.07,0.31-0.07,0.49v3.49h-1.05V85.99z"/>
		<path class="st3" d="M312.86,82.75v1.67h1.51v0.8h-1.51v3.13c0,0.72,0.2,1.13,0.79,1.13c0.28,0,0.48-0.04,0.61-0.07l0.05,0.79
			c-0.2,0.08-0.53,0.14-0.94,0.14c-0.49,0-0.89-0.16-1.14-0.44c-0.3-0.31-0.41-0.83-0.41-1.51v-3.17h-0.9v-0.8h0.9v-1.39
			L312.86,82.75z"/>
		<path class="st3" d="M315.41,89.14c0.31,0.2,0.86,0.42,1.39,0.42c0.77,0,1.13-0.38,1.13-0.86c0-0.5-0.3-0.78-1.08-1.07
			c-1.04-0.37-1.54-0.95-1.54-1.64c0-0.94,0.76-1.7,2-1.7c0.59,0,1.1,0.17,1.43,0.36l-0.26,0.77c-0.23-0.14-0.65-0.34-1.19-0.34
			c-0.62,0-0.97,0.36-0.97,0.79c0,0.48,0.35,0.7,1.1,0.98c1.01,0.38,1.52,0.89,1.52,1.75c0,1.02-0.79,1.74-2.17,1.74
			c-0.64,0-1.22-0.16-1.63-0.4L315.41,89.14z"/>
		<path class="st4" d="M235.41,94.89v1.65h1.58v0.42h-1.58v1.66h-0.45v-1.66h-1.58v-0.42h1.58v-1.65H235.41z"/>
		<path class="st4" d="M237.73,97.91c0.18,0.11,0.58,0.29,1.01,0.29c0.79,0,1.04-0.5,1.03-0.88c-0.01-0.64-0.58-0.91-1.18-0.91
			h-0.34v-0.46h0.34c0.45,0,1.02-0.23,1.02-0.77c0-0.36-0.23-0.69-0.8-0.69c-0.36,0-0.71,0.16-0.91,0.3l-0.16-0.45
			c0.24-0.17,0.7-0.35,1.19-0.35c0.9,0,1.3,0.53,1.3,1.09c0,0.47-0.28,0.87-0.84,1.07v0.01c0.56,0.11,1.02,0.53,1.02,1.17
			c0,0.73-0.57,1.37-1.66,1.37c-0.51,0-0.96-0.16-1.18-0.31L237.73,97.91z"/>
		<path class="st4" d="M243.22,95.35c0,0.96-0.5,1.44-1.09,1.44c-0.57,0-1.06-0.46-1.06-1.37c0-0.91,0.5-1.42,1.1-1.42
			C242.8,93.99,243.22,94.48,243.22,95.35z M241.56,95.39c-0.01,0.58,0.2,1.02,0.59,1.02c0.41,0,0.59-0.43,0.59-1.04
			c0-0.55-0.16-1.01-0.59-1.01C241.76,94.36,241.56,94.82,241.56,95.39z M242.09,98.7l2.68-4.71h0.39l-2.68,4.71H242.09z
			 M246.19,97.23c0,0.96-0.5,1.44-1.09,1.44c-0.57,0-1.06-0.46-1.06-1.37c0-0.92,0.5-1.43,1.1-1.43
			C245.77,95.87,246.19,96.36,246.19,97.23z M244.52,97.27c-0.01,0.58,0.22,1.02,0.6,1.02c0.41,0,0.59-0.43,0.59-1.04
			c0-0.55-0.16-1.02-0.59-1.02C244.73,96.24,244.52,96.7,244.52,97.27z"/>
		<path class="st4" d="M251.72,98.46c-0.22,0.11-0.67,0.22-1.25,0.22c-1.33,0-2.33-0.84-2.33-2.39c0-1.48,1-2.48,2.47-2.48
			c0.59,0,0.96,0.13,1.12,0.21l-0.15,0.5c-0.23-0.11-0.56-0.2-0.95-0.2c-1.11,0-1.84,0.71-1.84,1.95c0,1.16,0.67,1.9,1.81,1.9
			c0.37,0,0.75-0.08,0.99-0.2L251.72,98.46z"/>
		<path class="st4" d="M256.36,96.21c0,1.62-0.99,2.49-2.19,2.49c-1.25,0-2.12-0.97-2.12-2.4c0-1.5,0.93-2.48,2.19-2.48
			C255.53,93.82,256.36,94.81,256.36,96.21z M252.7,96.29c0,1.01,0.55,1.91,1.51,1.91c0.97,0,1.51-0.89,1.51-1.96
			c0-0.94-0.49-1.92-1.51-1.92C253.21,94.32,252.7,95.25,252.7,96.29z"/>
		<path class="st4" d="M261.13,96.55c-0.04-0.66-0.08-1.45-0.07-2.04h-0.02c-0.16,0.55-0.36,1.14-0.59,1.79l-0.83,2.29h-0.46
			l-0.76-2.25c-0.22-0.67-0.41-1.27-0.55-1.83h-0.01c-0.01,0.59-0.05,1.38-0.09,2.09l-0.13,2.02h-0.58l0.33-4.72h0.78l0.81,2.28
			c0.2,0.58,0.36,1.1,0.48,1.59h0.02c0.12-0.48,0.29-0.99,0.5-1.59l0.84-2.28h0.78l0.29,4.72h-0.59L261.13,96.55z"/>
		<path class="st4" d="M266.76,96.55c-0.04-0.66-0.08-1.45-0.07-2.04h-0.02c-0.16,0.55-0.36,1.14-0.59,1.79l-0.83,2.29h-0.46
			l-0.76-2.25c-0.22-0.67-0.41-1.27-0.55-1.83h-0.01c-0.01,0.59-0.05,1.38-0.09,2.09l-0.13,2.02h-0.58l0.33-4.72h0.78l0.81,2.28
			c0.2,0.58,0.36,1.1,0.48,1.59h0.02c0.12-0.48,0.29-0.99,0.5-1.59l0.84-2.28h0.78l0.29,4.72h-0.59L266.76,96.55z"/>
		<path class="st4" d="M269.02,93.9v4.72h-0.61V93.9H269.02z"/>
		<path class="st4" d="M270,97.88c0.27,0.17,0.67,0.31,1.09,0.31c0.62,0,0.99-0.33,0.99-0.8c0-0.44-0.25-0.69-0.89-0.94
			c-0.77-0.27-1.25-0.67-1.25-1.34c0-0.74,0.61-1.28,1.53-1.28c0.48,0,0.83,0.11,1.04,0.23l-0.17,0.5c-0.15-0.08-0.47-0.22-0.9-0.22
			c-0.64,0-0.89,0.38-0.89,0.71c0,0.44,0.29,0.66,0.94,0.91c0.8,0.31,1.2,0.69,1.2,1.39c0,0.73-0.54,1.36-1.65,1.36
			c-0.46,0-0.95-0.13-1.21-0.3L270,97.88z"/>
		<path class="st4" d="M273.45,97.88c0.27,0.17,0.67,0.31,1.09,0.31c0.62,0,0.99-0.33,0.99-0.8c0-0.44-0.25-0.69-0.89-0.94
			c-0.77-0.27-1.25-0.67-1.25-1.34c0-0.74,0.61-1.28,1.53-1.28c0.48,0,0.83,0.11,1.04,0.23l-0.17,0.5c-0.15-0.08-0.47-0.22-0.9-0.22
			c-0.64,0-0.89,0.38-0.89,0.71c0,0.44,0.29,0.66,0.94,0.91c0.8,0.31,1.2,0.69,1.2,1.39c0,0.73-0.54,1.36-1.65,1.36
			c-0.46,0-0.95-0.13-1.21-0.3L273.45,97.88z"/>
		<path class="st4" d="M277.59,93.9v4.72h-0.61V93.9H277.59z"/>
		<path class="st4" d="M282.69,96.21c0,1.62-0.99,2.49-2.19,2.49c-1.25,0-2.12-0.97-2.12-2.4c0-1.5,0.93-2.48,2.19-2.48
			C281.86,93.82,282.69,94.81,282.69,96.21z M279.03,96.29c0,1.01,0.55,1.91,1.51,1.91c0.97,0,1.51-0.89,1.51-1.96
			c0-0.94-0.49-1.92-1.51-1.92C279.53,94.32,279.03,95.25,279.03,96.29z"/>
		<path class="st4" d="M283.48,98.62V93.9h0.67l1.51,2.39c0.35,0.55,0.62,1.05,0.85,1.53l0.01-0.01c-0.06-0.63-0.07-1.2-0.07-1.94
			V93.9h0.57v4.72h-0.62l-1.5-2.4c-0.33-0.53-0.64-1.06-0.88-1.58l-0.02,0.01c0.04,0.59,0.05,1.16,0.05,1.95v2.02H283.48z"/>
		<path class="st3" d="M235.05,104.93v8.08H234v-8.08H235.05z"/>
		<path class="st3" d="M236.96,108.79c0-0.6-0.01-1.09-0.05-1.57h0.94l0.06,0.96h0.02c0.29-0.55,0.96-1.09,1.92-1.09
			c0.8,0,2.05,0.48,2.05,2.47v3.47h-1.05v-3.35c0-0.94-0.35-1.72-1.34-1.72c-0.7,0-1.24,0.49-1.42,1.08
			c-0.05,0.13-0.07,0.31-0.07,0.49v3.49h-1.05V108.79z"/>
		<path class="st3" d="M243.87,107.21l1.14,3.26c0.19,0.53,0.35,1.01,0.47,1.49h0.04c0.13-0.48,0.3-0.96,0.49-1.49l1.13-3.26h1.1
			l-2.28,5.8h-1.01l-2.21-5.8H243.87z"/>
		<path class="st3" d="M250.41,105.58c0.01,0.36-0.25,0.65-0.67,0.65c-0.37,0-0.64-0.29-0.64-0.65c0-0.37,0.28-0.66,0.66-0.66
			C250.16,104.92,250.41,105.21,250.41,105.58z M249.23,113.02v-5.8h1.05v5.8H249.23z"/>
		<path class="st3" d="M253.31,105.55v1.67h1.51v0.8h-1.51v3.13c0,0.72,0.2,1.13,0.79,1.13c0.28,0,0.48-0.04,0.61-0.07l0.05,0.79
			c-0.2,0.08-0.53,0.14-0.94,0.14c-0.49,0-0.89-0.16-1.14-0.44c-0.3-0.31-0.41-0.83-0.41-1.51v-3.17h-0.9v-0.8h0.9v-1.39
			L253.31,105.55z"/>
		<path class="st3" d="M256.53,110.31c0.02,1.43,0.94,2.02,1.99,2.02c0.76,0,1.21-0.13,1.61-0.3l0.18,0.75
			c-0.37,0.17-1.01,0.36-1.93,0.36c-1.79,0-2.85-1.18-2.85-2.93s1.03-3.13,2.72-3.13c1.89,0,2.4,1.67,2.4,2.73
			c0,0.22-0.02,0.38-0.04,0.49H256.53z M259.62,109.55c0.01-0.67-0.28-1.72-1.46-1.72c-1.07,0-1.54,0.98-1.62,1.72H259.62z"/>
		<path class="st3" d="M264.53,105.03c0.5-0.08,1.16-0.16,2-0.16c1.03,0,1.79,0.24,2.27,0.67c0.44,0.38,0.71,0.97,0.71,1.69
			c0,0.73-0.22,1.31-0.62,1.73c-0.55,0.59-1.45,0.89-2.47,0.89c-0.31,0-0.6-0.01-0.84-0.07v3.24h-1.04V105.03z M265.58,108.93
			c0.23,0.06,0.52,0.08,0.86,0.08c1.26,0,2.03-0.61,2.03-1.73c0-1.07-0.76-1.58-1.91-1.58c-0.46,0-0.8,0.04-0.98,0.08V108.93z"/>
		<path class="st3" d="M275.83,110.07c0,2.15-1.49,3.08-2.89,3.08c-1.57,0-2.78-1.15-2.78-2.99c0-1.94,1.27-3.08,2.88-3.08
			C274.71,107.08,275.83,108.29,275.83,110.07z M271.23,110.13c0,1.27,0.73,2.23,1.76,2.23c1.01,0,1.76-0.95,1.76-2.25
			c0-0.98-0.49-2.23-1.74-2.23C271.77,107.87,271.23,109.02,271.23,110.13z"/>
		<path class="st3" d="M278.34,105.58c0.01,0.36-0.25,0.65-0.67,0.65c-0.37,0-0.64-0.29-0.64-0.65c0-0.37,0.28-0.66,0.66-0.66
			C278.09,104.92,278.34,105.21,278.34,105.58z M277.17,113.02v-5.8h1.05v5.8H277.17z"/>
		<path class="st3" d="M279.98,108.79c0-0.6-0.01-1.09-0.05-1.57h0.94l0.06,0.96h0.02c0.29-0.55,0.96-1.09,1.92-1.09
			c0.8,0,2.05,0.48,2.05,2.47v3.47h-1.05v-3.35c0-0.94-0.35-1.72-1.34-1.72c-0.7,0-1.24,0.49-1.42,1.08
			c-0.05,0.13-0.07,0.31-0.07,0.49v3.49h-1.05V108.79z"/>
		<path class="st3" d="M287.86,105.55v1.67h1.51v0.8h-1.51v3.13c0,0.72,0.2,1.13,0.79,1.13c0.28,0,0.48-0.04,0.61-0.07l0.05,0.79
			c-0.2,0.08-0.53,0.14-0.94,0.14c-0.49,0-0.89-0.16-1.14-0.44c-0.3-0.31-0.41-0.83-0.41-1.51v-3.17h-0.9v-0.8h0.9v-1.39
			L287.86,105.55z"/>
		<path class="st3" d="M290.42,111.94c0.31,0.2,0.86,0.42,1.39,0.42c0.77,0,1.13-0.38,1.13-0.86c0-0.5-0.3-0.78-1.08-1.07
			c-1.04-0.37-1.54-0.95-1.54-1.64c0-0.94,0.76-1.7,2-1.7c0.59,0,1.1,0.17,1.43,0.36l-0.26,0.77c-0.23-0.14-0.65-0.34-1.19-0.34
			c-0.62,0-0.97,0.36-0.97,0.79c0,0.48,0.35,0.7,1.1,0.98c1.01,0.38,1.52,0.89,1.52,1.75c0,1.02-0.79,1.74-2.17,1.74
			c-0.64,0-1.22-0.16-1.63-0.4L290.42,111.94z"/>
		<path class="st4" d="M235.41,117.69v1.65h1.58v0.42h-1.58v1.66h-0.45v-1.66h-1.58v-0.42h1.58v-1.65H235.41z"/>
		<path class="st4" d="M240.3,117.38h-1.74l-0.17,1.17c0.1-0.01,0.2-0.03,0.37-0.03c0.35,0,0.7,0.08,0.98,0.25
			c0.36,0.2,0.65,0.6,0.65,1.17c0,0.89-0.71,1.55-1.7,1.55c-0.5,0-0.92-0.14-1.13-0.28l0.15-0.47c0.19,0.11,0.56,0.25,0.97,0.25
			c0.58,0,1.08-0.38,1.08-0.99c-0.01-0.59-0.4-1.01-1.31-1.01c-0.26,0-0.46,0.03-0.63,0.05l0.29-2.19h2.18V117.38z"/>
		<path class="st4" d="M243.22,118.15c0,0.96-0.5,1.44-1.09,1.44c-0.57,0-1.06-0.46-1.06-1.37c0-0.91,0.5-1.42,1.1-1.42
			C242.8,116.79,243.22,117.28,243.22,118.15z M241.56,118.19c-0.01,0.58,0.2,1.02,0.59,1.02c0.41,0,0.59-0.43,0.59-1.04
			c0-0.55-0.16-1.02-0.59-1.02C241.76,117.16,241.56,117.62,241.56,118.19z M242.09,121.5l2.68-4.71h0.39l-2.68,4.71H242.09z
			 M246.19,120.03c0,0.96-0.5,1.44-1.09,1.44c-0.57,0-1.06-0.46-1.06-1.37c0-0.92,0.5-1.43,1.1-1.43
			C245.77,118.67,246.19,119.16,246.19,120.03z M244.52,120.07c-0.01,0.58,0.22,1.02,0.6,1.02c0.41,0,0.59-0.43,0.59-1.04
			c0-0.55-0.16-1.02-0.59-1.02C244.73,119.04,244.52,119.5,244.52,120.07z"/>
		<path class="st4" d="M251.72,121.26c-0.22,0.11-0.67,0.22-1.25,0.22c-1.33,0-2.33-0.84-2.33-2.39c0-1.48,1-2.48,2.47-2.48
			c0.59,0,0.96,0.13,1.12,0.21l-0.15,0.5c-0.23-0.11-0.56-0.2-0.95-0.2c-1.11,0-1.84,0.71-1.84,1.95c0,1.16,0.67,1.9,1.81,1.9
			c0.37,0,0.75-0.08,0.99-0.2L251.72,121.26z"/>
		<path class="st4" d="M256.36,119.01c0,1.62-0.99,2.49-2.19,2.49c-1.25,0-2.12-0.97-2.12-2.4c0-1.5,0.93-2.48,2.19-2.48
			C255.53,116.62,256.36,117.61,256.36,119.01z M252.7,119.09c0,1.01,0.55,1.91,1.51,1.91c0.97,0,1.51-0.89,1.51-1.96
			c0-0.94-0.49-1.92-1.51-1.92C253.21,117.12,252.7,118.05,252.7,119.09z"/>
		<path class="st4" d="M261.13,119.35c-0.04-0.66-0.08-1.45-0.07-2.04h-0.02c-0.16,0.55-0.36,1.14-0.59,1.79l-0.83,2.29h-0.46
			l-0.76-2.25c-0.22-0.67-0.41-1.27-0.55-1.83h-0.01c-0.01,0.59-0.05,1.38-0.09,2.09l-0.13,2.02h-0.58l0.33-4.72h0.78l0.81,2.28
			c0.2,0.58,0.36,1.1,0.48,1.59h0.02c0.12-0.48,0.29-0.99,0.5-1.59l0.84-2.28h0.78l0.29,4.72h-0.59L261.13,119.35z"/>
		<path class="st4" d="M266.76,119.35c-0.04-0.66-0.08-1.45-0.07-2.04h-0.02c-0.16,0.55-0.36,1.14-0.59,1.79l-0.83,2.29h-0.46
			l-0.76-2.25c-0.22-0.67-0.41-1.27-0.55-1.83h-0.01c-0.01,0.59-0.05,1.38-0.09,2.09l-0.13,2.02h-0.58l0.33-4.72h0.78l0.81,2.28
			c0.2,0.58,0.36,1.1,0.48,1.59h0.02c0.12-0.48,0.29-0.99,0.5-1.59l0.84-2.28h0.78l0.29,4.72h-0.59L266.76,119.35z"/>
		<path class="st4" d="M269.02,116.7v4.72h-0.61v-4.72H269.02z"/>
		<path class="st4" d="M270,120.68c0.27,0.17,0.67,0.31,1.09,0.31c0.62,0,0.99-0.33,0.99-0.8c0-0.44-0.25-0.69-0.89-0.94
			c-0.77-0.27-1.25-0.67-1.25-1.34c0-0.74,0.61-1.28,1.53-1.28c0.48,0,0.83,0.11,1.04,0.23l-0.17,0.5c-0.15-0.08-0.47-0.22-0.9-0.22
			c-0.64,0-0.89,0.38-0.89,0.71c0,0.44,0.29,0.66,0.94,0.91c0.8,0.31,1.2,0.69,1.2,1.39c0,0.73-0.54,1.36-1.65,1.36
			c-0.46,0-0.95-0.13-1.21-0.3L270,120.68z"/>
		<path class="st4" d="M273.45,120.68c0.27,0.17,0.67,0.31,1.09,0.31c0.62,0,0.99-0.33,0.99-0.8c0-0.44-0.25-0.69-0.89-0.94
			c-0.77-0.27-1.25-0.67-1.25-1.34c0-0.74,0.61-1.28,1.53-1.28c0.48,0,0.83,0.11,1.04,0.23l-0.17,0.5c-0.15-0.08-0.47-0.22-0.9-0.22
			c-0.64,0-0.89,0.38-0.89,0.71c0,0.44,0.29,0.66,0.94,0.91c0.8,0.31,1.2,0.69,1.2,1.39c0,0.73-0.54,1.36-1.65,1.36
			c-0.46,0-0.95-0.13-1.21-0.3L273.45,120.68z"/>
		<path class="st4" d="M277.59,116.7v4.72h-0.61v-4.72H277.59z"/>
		<path class="st4" d="M282.69,119.01c0,1.62-0.99,2.49-2.19,2.49c-1.25,0-2.12-0.97-2.12-2.4c0-1.5,0.93-2.48,2.19-2.48
			C281.86,116.62,282.69,117.61,282.69,119.01z M279.03,119.09c0,1.01,0.55,1.91,1.51,1.91c0.97,0,1.51-0.89,1.51-1.96
			c0-0.94-0.49-1.92-1.51-1.92C279.53,117.12,279.03,118.05,279.03,119.09z"/>
		<path class="st4" d="M283.48,121.42v-4.72h0.67l1.51,2.39c0.35,0.55,0.62,1.05,0.85,1.53l0.01-0.01c-0.06-0.63-0.07-1.2-0.07-1.94
			v-1.98h0.57v4.72h-0.62l-1.5-2.4c-0.33-0.53-0.64-1.06-0.88-1.58l-0.02,0.01c0.04,0.59,0.05,1.16,0.05,1.95v2.02H283.48z"/>
		<path class="st3" d="M235.8,135.82v-3.43l-2.55-4.65h1.19l1.14,2.23c0.31,0.61,0.55,1.1,0.8,1.67h0.02
			c0.23-0.53,0.5-1.06,0.82-1.67l1.16-2.23h1.19l-2.71,4.64v3.44H235.8z"/>
		<path class="st3" d="M244.8,132.87c0,2.15-1.49,3.08-2.89,3.08c-1.57,0-2.78-1.15-2.78-2.99c0-1.94,1.27-3.08,2.88-3.08
			C243.68,129.88,244.8,131.09,244.8,132.87z M240.2,132.93c0,1.27,0.73,2.23,1.76,2.23c1.01,0,1.76-0.95,1.76-2.25
			c0-0.98-0.49-2.23-1.74-2.23C240.74,130.67,240.2,131.82,240.2,132.93z"/>
		<path class="st3" d="M250.99,134.24c0,0.6,0.01,1.13,0.05,1.58h-0.94l-0.06-0.95h-0.02c-0.28,0.47-0.89,1.08-1.92,1.08
			c-0.91,0-2-0.5-2-2.54v-3.39h1.05v3.21c0,1.1,0.34,1.85,1.3,1.85c0.71,0,1.2-0.49,1.39-0.96c0.06-0.16,0.1-0.35,0.1-0.54v-3.56
			h1.05V134.24z"/>
	</g>
	<line class="st5" x1="126.59" y1="132.02" x2="225" y2="132.02"/>
	<line class="st5" x1="155.83" y1="109.39" x2="225" y2="109.39"/>
	<line class="st5" x1="175.8" y1="86.75" x2="225" y2="86.75"/>
	<line class="st5" x1="196.22" y1="64.11" x2="225" y2="64.11"/>
	<g>
		<path class="st6" d="M235.53,60.22h-2.46v-0.89h5.98v0.89h-2.47v7.2h-1.06V60.22z"/>
		<path class="st6" d="M239.66,64.71c0.02,1.43,0.94,2.02,1.99,2.02c0.76,0,1.21-0.13,1.61-0.3l0.18,0.75
			c-0.37,0.17-1.01,0.36-1.93,0.36c-1.79,0-2.85-1.18-2.85-2.93s1.03-3.13,2.72-3.13c1.9,0,2.4,1.67,2.4,2.73
			c0,0.22-0.02,0.38-0.04,0.49H239.66z M242.75,63.96c0.01-0.67-0.28-1.71-1.46-1.71c-1.07,0-1.54,0.98-1.62,1.71H242.75z"/>
		<path class="st6" d="M245.08,63.43c0-0.68-0.01-1.27-0.05-1.81h0.92l0.04,1.14h0.05c0.26-0.78,0.9-1.27,1.61-1.27
			c0.12,0,0.2,0.01,0.3,0.04v1c-0.11-0.02-0.22-0.04-0.36-0.04c-0.74,0-1.27,0.56-1.42,1.36c-0.02,0.14-0.05,0.31-0.05,0.49v3.09
			h-1.04V63.43z"/>
		<path class="st6" d="M250.56,59.95v1.67h1.51v0.8h-1.51v3.13c0,0.72,0.2,1.13,0.79,1.13c0.28,0,0.48-0.04,0.61-0.07l0.05,0.79
			c-0.2,0.08-0.53,0.14-0.94,0.14c-0.49,0-0.89-0.16-1.14-0.44c-0.3-0.31-0.41-0.83-0.41-1.51v-3.17h-0.9v-0.8h0.9v-1.39
			L250.56,59.95z"/>
		<path class="st6" d="M254.44,59.99c0.01,0.36-0.25,0.65-0.67,0.65c-0.37,0-0.64-0.29-0.64-0.65c0-0.37,0.28-0.66,0.66-0.66
			C254.19,59.33,254.44,59.61,254.44,59.99z M253.26,67.42v-5.8h1.05v5.8H253.26z"/>
		<path class="st6" d="M259.29,67.42l-0.08-0.73h-0.04c-0.32,0.46-0.95,0.86-1.78,0.86c-1.17,0-1.77-0.83-1.77-1.67
			c0-1.4,1.25-2.17,3.49-2.16v-0.12c0-0.48-0.13-1.34-1.32-1.34c-0.54,0-1.1,0.17-1.51,0.43l-0.24-0.7
			c0.48-0.31,1.17-0.52,1.91-0.52c1.78,0,2.21,1.21,2.21,2.37v2.17c0,0.5,0.02,1,0.1,1.39H259.29z M259.13,64.46
			c-1.15-0.02-2.46,0.18-2.46,1.31c0,0.68,0.46,1.01,1,1.01c0.76,0,1.24-0.48,1.4-0.97c0.04-0.11,0.06-0.23,0.06-0.34V64.46z"/>
		<path class="st6" d="M261.86,63.43c0-0.68-0.01-1.27-0.05-1.81h0.92l0.04,1.14h0.05c0.26-0.78,0.9-1.27,1.61-1.27
			c0.12,0,0.2,0.01,0.3,0.04v1c-0.11-0.02-0.22-0.04-0.36-0.04c-0.74,0-1.27,0.56-1.42,1.36c-0.02,0.14-0.05,0.31-0.05,0.49v3.09
			h-1.04V63.43z"/>
		<path class="st6" d="M266.46,61.62l1.27,3.43c0.13,0.38,0.28,0.84,0.37,1.19h0.02c0.11-0.35,0.23-0.79,0.37-1.21l1.15-3.41h1.12
			l-1.58,4.14c-0.75,1.99-1.27,3.01-1.99,3.63c-0.52,0.46-1.03,0.64-1.3,0.68l-0.26-0.89c0.26-0.08,0.61-0.25,0.92-0.52
			c0.29-0.23,0.65-0.64,0.89-1.17c0.05-0.11,0.08-0.19,0.08-0.25c0-0.06-0.02-0.14-0.07-0.28l-2.15-5.35H266.46z"/>
		<path class="st6" d="M274.31,59.43c0.5-0.08,1.16-0.16,2-0.16c1.03,0,1.79,0.24,2.27,0.67c0.44,0.38,0.71,0.97,0.71,1.69
			c0,0.73-0.22,1.31-0.62,1.73c-0.55,0.59-1.45,0.89-2.47,0.89c-0.31,0-0.6-0.01-0.84-0.07v3.24h-1.04V59.43z M275.36,63.33
			c0.23,0.06,0.52,0.08,0.86,0.08c1.26,0,2.03-0.61,2.03-1.73c0-1.07-0.76-1.58-1.91-1.58c-0.46,0-0.8,0.04-0.98,0.08V63.33z"/>
		<path class="st6" d="M285.61,64.47c0,2.15-1.49,3.08-2.89,3.08c-1.57,0-2.78-1.15-2.78-2.99c0-1.94,1.27-3.08,2.88-3.08
			C284.49,61.48,285.61,62.7,285.61,64.47z M281.01,64.53c0,1.27,0.73,2.23,1.76,2.23c1.01,0,1.76-0.95,1.76-2.25
			c0-0.98-0.49-2.23-1.74-2.23C281.55,62.28,281.01,63.43,281.01,64.53z"/>
		<path class="st6" d="M288.12,59.99c0.01,0.36-0.25,0.65-0.67,0.65c-0.37,0-0.64-0.29-0.64-0.65c0-0.37,0.28-0.66,0.66-0.66
			C287.87,59.33,288.12,59.61,288.12,59.99z M286.95,67.42v-5.8H288v5.8H286.95z"/>
		<path class="st6" d="M289.76,63.19c0-0.6-0.01-1.09-0.05-1.57h0.94l0.06,0.96h0.02c0.29-0.55,0.96-1.09,1.92-1.09
			c0.8,0,2.05,0.48,2.05,2.47v3.47h-1.05v-3.35c0-0.94-0.35-1.72-1.34-1.72c-0.7,0-1.24,0.49-1.42,1.08
			c-0.05,0.13-0.07,0.31-0.07,0.49v3.49h-1.05V63.19z"/>
		<path class="st6" d="M297.64,59.95v1.67h1.51v0.8h-1.51v3.13c0,0.72,0.2,1.13,0.79,1.13c0.28,0,0.48-0.04,0.61-0.07l0.05,0.79
			c-0.2,0.08-0.53,0.14-0.94,0.14c-0.49,0-0.89-0.16-1.14-0.44c-0.3-0.31-0.41-0.83-0.41-1.51v-3.17h-0.9v-0.8h0.9v-1.39
			L297.64,59.95z"/>
		<path class="st6" d="M300.2,66.34c0.31,0.2,0.86,0.42,1.39,0.42c0.77,0,1.13-0.38,1.13-0.86c0-0.5-0.3-0.78-1.08-1.07
			c-1.04-0.37-1.54-0.95-1.54-1.64c0-0.94,0.76-1.7,2-1.7c0.59,0,1.1,0.17,1.43,0.36l-0.26,0.77c-0.23-0.14-0.65-0.34-1.19-0.34
			c-0.62,0-0.97,0.36-0.97,0.79c0,0.48,0.35,0.7,1.1,0.98c1.01,0.38,1.52,0.89,1.52,1.75c0,1.02-0.79,1.74-2.17,1.74
			c-0.64,0-1.22-0.16-1.63-0.4L300.2,66.34z"/>
		<path class="st7" d="M235.39,72.1v1.65h1.58v0.42h-1.58v1.66h-0.45v-1.66h-1.58v-0.42h1.58V72.1H235.39z"/>
		<path class="st7" d="M240.29,71.79h-1.74l-0.18,1.17c0.1-0.01,0.2-0.03,0.37-0.03c0.35,0,0.7,0.08,0.98,0.25
			c0.36,0.2,0.65,0.6,0.65,1.17c0,0.89-0.71,1.55-1.69,1.55c-0.5,0-0.92-0.14-1.13-0.28l0.15-0.47c0.19,0.11,0.56,0.25,0.97,0.25
			c0.58,0,1.08-0.38,1.08-0.99c-0.01-0.59-0.4-1.01-1.31-1.01c-0.26,0-0.46,0.03-0.63,0.05l0.29-2.19h2.18V71.79z"/>
		<path class="st7" d="M243.21,72.55c0,0.96-0.5,1.44-1.09,1.44c-0.57,0-1.06-0.46-1.06-1.37c0-0.91,0.5-1.42,1.1-1.42
			C242.79,71.19,243.21,71.68,243.21,72.55z M241.54,72.59c-0.01,0.58,0.2,1.02,0.59,1.02c0.41,0,0.59-0.43,0.59-1.04
			c0-0.55-0.16-1.02-0.59-1.02C241.75,71.56,241.54,72.02,241.54,72.59z M242.08,75.9l2.67-4.71h0.39l-2.68,4.71H242.08z
			 M246.17,74.43c0,0.96-0.5,1.44-1.08,1.44c-0.57,0-1.06-0.46-1.06-1.37c0-0.92,0.5-1.43,1.1-1.43
			C245.76,73.08,246.17,73.57,246.17,74.43z M244.51,74.48c-0.01,0.58,0.22,1.02,0.6,1.02c0.41,0,0.59-0.43,0.59-1.04
			c0-0.55-0.16-1.02-0.59-1.02C244.72,73.45,244.51,73.9,244.51,74.48z"/>
		<path class="st7" d="M251.7,75.67c-0.22,0.11-0.67,0.22-1.25,0.22c-1.33,0-2.33-0.84-2.33-2.39c0-1.48,1-2.48,2.47-2.48
			c0.59,0,0.96,0.13,1.12,0.21l-0.15,0.5c-0.23-0.11-0.56-0.2-0.95-0.2c-1.11,0-1.84,0.71-1.84,1.95c0,1.16,0.67,1.9,1.81,1.9
			c0.37,0,0.75-0.08,0.99-0.2L251.7,75.67z"/>
		<path class="st7" d="M256.35,73.41c0,1.62-0.99,2.49-2.19,2.49c-1.25,0-2.12-0.97-2.12-2.4c0-1.5,0.93-2.48,2.19-2.48
			C255.52,71.02,256.35,72.01,256.35,73.41z M252.69,73.49c0,1.01,0.55,1.91,1.51,1.91c0.97,0,1.51-0.89,1.51-1.96
			c0-0.94-0.49-1.92-1.51-1.92C253.19,71.52,252.69,72.45,252.69,73.49z"/>
		<path class="st7" d="M261.12,73.75c-0.04-0.66-0.08-1.45-0.07-2.04h-0.02c-0.16,0.55-0.36,1.14-0.59,1.79l-0.83,2.29h-0.46
			l-0.76-2.25c-0.22-0.67-0.41-1.27-0.55-1.83h-0.01c-0.01,0.59-0.05,1.38-0.09,2.09l-0.13,2.02h-0.58l0.33-4.72h0.78l0.81,2.28
			c0.2,0.58,0.36,1.1,0.48,1.59h0.02c0.12-0.48,0.29-0.99,0.5-1.59l0.84-2.28h0.78l0.29,4.72h-0.59L261.12,73.75z"/>
		<path class="st7" d="M266.75,73.75c-0.04-0.66-0.08-1.45-0.07-2.04h-0.02c-0.16,0.55-0.36,1.14-0.59,1.79l-0.83,2.29h-0.46
			L264,73.55c-0.22-0.67-0.41-1.27-0.55-1.83h-0.01c-0.01,0.59-0.05,1.38-0.09,2.09l-0.13,2.02h-0.58l0.33-4.72h0.78l0.81,2.28
			c0.2,0.58,0.36,1.1,0.48,1.59h0.02c0.12-0.48,0.29-0.99,0.5-1.59l0.84-2.28h0.78l0.29,4.72h-0.59L266.75,73.75z"/>
		<path class="st7" d="M269.01,71.1v4.72h-0.61V71.1H269.01z"/>
		<path class="st7" d="M269.99,75.08c0.27,0.17,0.67,0.31,1.09,0.31c0.62,0,0.99-0.33,0.99-0.8c0-0.44-0.25-0.69-0.89-0.94
			c-0.77-0.27-1.25-0.67-1.25-1.34c0-0.74,0.61-1.28,1.53-1.28c0.48,0,0.83,0.11,1.04,0.23l-0.17,0.5c-0.15-0.08-0.47-0.22-0.9-0.22
			c-0.64,0-0.89,0.38-0.89,0.71c0,0.44,0.29,0.66,0.94,0.91c0.8,0.31,1.2,0.69,1.2,1.39c0,0.73-0.54,1.36-1.65,1.36
			c-0.46,0-0.95-0.13-1.21-0.3L269.99,75.08z"/>
		<path class="st7" d="M273.44,75.08c0.27,0.17,0.67,0.31,1.09,0.31c0.62,0,0.99-0.33,0.99-0.8c0-0.44-0.25-0.69-0.89-0.94
			c-0.77-0.27-1.25-0.67-1.25-1.34c0-0.74,0.61-1.28,1.53-1.28c0.48,0,0.83,0.11,1.04,0.23l-0.17,0.5c-0.15-0.08-0.47-0.22-0.9-0.22
			c-0.64,0-0.89,0.38-0.89,0.71c0,0.44,0.29,0.66,0.94,0.91c0.8,0.31,1.2,0.69,1.2,1.39c0,0.73-0.54,1.36-1.65,1.36
			c-0.46,0-0.95-0.13-1.21-0.3L273.44,75.08z"/>
		<path class="st7" d="M277.58,71.1v4.72h-0.61V71.1H277.58z"/>
		<path class="st7" d="M282.68,73.41c0,1.62-0.99,2.49-2.19,2.49c-1.25,0-2.12-0.97-2.12-2.4c0-1.5,0.93-2.48,2.19-2.48
			C281.85,71.02,282.68,72.01,282.68,73.41z M279.02,73.49c0,1.01,0.55,1.91,1.51,1.91c0.97,0,1.51-0.89,1.51-1.96
			c0-0.94-0.49-1.92-1.51-1.92C279.52,71.52,279.02,72.45,279.02,73.49z"/>
		<path class="st7" d="M283.47,75.82V71.1h0.67l1.51,2.39c0.35,0.55,0.62,1.05,0.85,1.53l0.01-0.01c-0.06-0.63-0.07-1.2-0.07-1.94
			V71.1h0.57v4.72h-0.62l-1.5-2.4c-0.33-0.53-0.64-1.06-0.88-1.58l-0.02,0.01c0.04,0.59,0.05,1.16,0.05,1.95v2.02H283.47z"/>
		<path class="st6" d="M233.85,88.95c0.47,0.29,1.15,0.53,1.87,0.53c1.07,0,1.69-0.56,1.69-1.38c0-0.75-0.43-1.19-1.52-1.61
			c-1.32-0.47-2.14-1.15-2.14-2.29c0-1.26,1.04-2.2,2.61-2.2c0.83,0,1.43,0.19,1.79,0.4l-0.29,0.85c-0.26-0.14-0.8-0.38-1.54-0.38
			c-1.1,0-1.52,0.66-1.52,1.21c0,0.76,0.49,1.13,1.61,1.56c1.37,0.53,2.06,1.19,2.06,2.37c0,1.25-0.92,2.33-2.83,2.33
			c-0.78,0-1.63-0.23-2.06-0.52L233.85,88.95z"/>
		<path class="st6" d="M240.53,87.51c0.02,1.43,0.94,2.02,1.99,2.02c0.76,0,1.21-0.13,1.61-0.3l0.18,0.75
			c-0.37,0.17-1.01,0.36-1.93,0.36c-1.79,0-2.85-1.18-2.85-2.93s1.03-3.13,2.72-3.13c1.9,0,2.4,1.67,2.4,2.73
			c0,0.22-0.02,0.38-0.04,0.49H240.53z M243.63,86.76c0.01-0.67-0.28-1.71-1.46-1.71c-1.07,0-1.54,0.98-1.62,1.71H243.63z"/>
		<path class="st6" d="M250.1,90.01c-0.28,0.14-0.89,0.34-1.67,0.34c-1.75,0-2.89-1.19-2.89-2.96c0-1.79,1.22-3.08,3.12-3.08
			c0.62,0,1.17,0.16,1.46,0.3l-0.24,0.82c-0.25-0.14-0.65-0.28-1.22-0.28c-1.33,0-2.05,0.98-2.05,2.19c0,1.34,0.86,2.17,2.01,2.17
			c0.6,0,1-0.16,1.29-0.29L250.1,90.01z"/>
		<path class="st6" d="M256.51,87.27c0,2.15-1.49,3.08-2.89,3.08c-1.57,0-2.78-1.15-2.78-2.99c0-1.94,1.27-3.08,2.88-3.08
			C255.39,84.29,256.51,85.5,256.51,87.27z M251.91,87.33c0,1.27,0.73,2.23,1.76,2.23c1.01,0,1.76-0.95,1.76-2.25
			c0-0.98-0.49-2.23-1.74-2.23C252.45,85.08,251.91,86.23,251.91,87.33z"/>
		<path class="st6" d="M257.85,85.99c0-0.6-0.01-1.09-0.05-1.57h0.94l0.06,0.96h0.02c0.29-0.55,0.96-1.09,1.92-1.09
			c0.8,0,2.05,0.48,2.05,2.47v3.47h-1.05v-3.35c0-0.94-0.35-1.72-1.34-1.72c-0.7,0-1.24,0.49-1.42,1.08
			c-0.05,0.13-0.07,0.31-0.07,0.49v3.49h-1.05V85.99z"/>
		<path class="st6" d="M269.52,81.71v7.02c0,0.52,0.01,1.1,0.05,1.5h-0.95l-0.05-1.01h-0.02c-0.32,0.65-1.03,1.14-1.98,1.14
			c-1.4,0-2.48-1.19-2.48-2.95c-0.01-1.93,1.19-3.12,2.6-3.12c0.89,0,1.49,0.42,1.75,0.89h0.02v-3.47H269.52z M268.47,86.78
			c0-0.13-0.01-0.31-0.05-0.44c-0.16-0.67-0.73-1.22-1.52-1.22c-1.09,0-1.74,0.96-1.74,2.24c0,1.17,0.58,2.15,1.71,2.15
			c0.71,0,1.36-0.47,1.55-1.26c0.04-0.14,0.05-0.29,0.05-0.46V86.78z"/>
		<path class="st6" d="M274.49,90.22l-0.08-0.73h-0.04c-0.32,0.46-0.95,0.86-1.78,0.86c-1.17,0-1.77-0.83-1.77-1.67
			c0-1.4,1.25-2.17,3.49-2.16v-0.12c0-0.48-0.13-1.34-1.32-1.34c-0.54,0-1.1,0.17-1.51,0.43l-0.24-0.7
			c0.48-0.31,1.17-0.52,1.91-0.52c1.78,0,2.21,1.21,2.21,2.37v2.17c0,0.5,0.02,1,0.1,1.39H274.49z M274.34,87.26
			c-1.15-0.02-2.46,0.18-2.46,1.31c0,0.68,0.46,1.01,1,1.01c0.76,0,1.24-0.48,1.4-0.97c0.04-0.11,0.06-0.23,0.06-0.34V87.26z"/>
		<path class="st6" d="M277.06,86.23c0-0.68-0.01-1.27-0.05-1.81h0.92l0.04,1.14h0.05c0.26-0.78,0.9-1.27,1.61-1.27
			c0.12,0,0.2,0.01,0.3,0.04v1c-0.11-0.02-0.22-0.04-0.36-0.04c-0.74,0-1.27,0.56-1.42,1.36c-0.02,0.14-0.05,0.31-0.05,0.49v3.09
			h-1.04V86.23z"/>
		<path class="st6" d="M281.67,84.42l1.27,3.43c0.13,0.38,0.28,0.84,0.37,1.19h0.02c0.11-0.35,0.23-0.79,0.37-1.21l1.15-3.41h1.12
			l-1.58,4.14c-0.75,1.99-1.27,3.01-1.99,3.63c-0.52,0.46-1.03,0.64-1.3,0.68l-0.26-0.89c0.26-0.08,0.61-0.25,0.92-0.52
			c0.29-0.23,0.65-0.64,0.89-1.17c0.05-0.11,0.08-0.19,0.08-0.25c0-0.06-0.02-0.14-0.07-0.28l-2.15-5.35H281.67z"/>
		<path class="st6" d="M289.52,82.23c0.5-0.08,1.16-0.16,2-0.16c1.03,0,1.79,0.24,2.27,0.67c0.44,0.38,0.71,0.97,0.71,1.69
			c0,0.73-0.22,1.31-0.62,1.73c-0.55,0.59-1.45,0.89-2.47,0.89c-0.31,0-0.6-0.01-0.84-0.07v3.24h-1.04V82.23z M290.56,86.13
			c0.23,0.06,0.52,0.08,0.86,0.08c1.26,0,2.03-0.61,2.03-1.73c0-1.07-0.76-1.58-1.91-1.58c-0.46,0-0.8,0.04-0.98,0.08V86.13z"/>
		<path class="st6" d="M300.82,87.27c0,2.15-1.49,3.08-2.89,3.08c-1.57,0-2.78-1.15-2.78-2.99c0-1.94,1.27-3.08,2.88-3.08
			C299.69,84.29,300.82,85.5,300.82,87.27z M296.21,87.33c0,1.27,0.73,2.23,1.76,2.23c1.01,0,1.76-0.95,1.76-2.25
			c0-0.98-0.49-2.23-1.74-2.23C296.75,85.08,296.21,86.23,296.21,87.33z"/>
		<path class="st6" d="M303.33,82.79c0.01,0.36-0.25,0.65-0.67,0.65c-0.37,0-0.64-0.29-0.64-0.65c0-0.37,0.28-0.66,0.66-0.66
			C303.08,82.13,303.33,82.41,303.33,82.79z M302.15,90.22v-5.8h1.05v5.8H302.15z"/>
		<path class="st6" d="M304.96,85.99c0-0.6-0.01-1.09-0.05-1.57h0.94l0.06,0.96h0.02c0.29-0.55,0.96-1.09,1.92-1.09
			c0.8,0,2.05,0.48,2.05,2.47v3.47h-1.05v-3.35c0-0.94-0.35-1.72-1.34-1.72c-0.7,0-1.24,0.49-1.42,1.08
			c-0.05,0.13-0.07,0.31-0.07,0.49v3.49h-1.05V85.99z"/>
		<path class="st6" d="M312.84,82.75v1.67h1.51v0.8h-1.51v3.13c0,0.72,0.2,1.13,0.79,1.13c0.28,0,0.48-0.04,0.61-0.07l0.05,0.79
			c-0.2,0.08-0.53,0.14-0.94,0.14c-0.49,0-0.89-0.16-1.14-0.44c-0.3-0.31-0.41-0.83-0.41-1.51v-3.17h-0.9v-0.8h0.9v-1.39
			L312.84,82.75z"/>
		<path class="st6" d="M315.4,89.14c0.31,0.2,0.86,0.42,1.39,0.42c0.77,0,1.13-0.38,1.13-0.86c0-0.5-0.3-0.78-1.08-1.07
			c-1.04-0.37-1.54-0.95-1.54-1.64c0-0.94,0.76-1.7,2-1.7c0.59,0,1.1,0.17,1.43,0.36l-0.26,0.77c-0.23-0.14-0.65-0.34-1.19-0.34
			c-0.62,0-0.97,0.36-0.97,0.79c0,0.48,0.35,0.7,1.1,0.98c1.01,0.38,1.52,0.89,1.52,1.75c0,1.02-0.79,1.74-2.17,1.74
			c-0.64,0-1.22-0.16-1.63-0.4L315.4,89.14z"/>
		<path class="st7" d="M235.39,94.9v1.65h1.58v0.42h-1.58v1.66h-0.45v-1.66h-1.58v-0.42h1.58V94.9H235.39z"/>
		<path class="st7" d="M238.91,94.64h-0.01l-0.79,0.43l-0.12-0.47l0.99-0.53h0.52v4.55h-0.6V94.64z"/>
		<path class="st7" d="M244.18,96.3c0,1.55-0.57,2.4-1.58,2.4c-0.89,0-1.49-0.83-1.51-2.34c0-1.53,0.66-2.37,1.58-2.37
			C243.64,93.99,244.18,94.85,244.18,96.3z M241.71,96.37c0,1.18,0.36,1.86,0.92,1.86c0.63,0,0.93-0.74,0.93-1.9
			c0-1.12-0.29-1.86-0.92-1.86C242.11,94.47,241.71,95.13,241.71,96.37z"/>
		<path class="st7" d="M246.8,95.35c0,0.96-0.5,1.44-1.09,1.44c-0.57,0-1.06-0.46-1.06-1.37c0-0.91,0.5-1.42,1.1-1.42
			C246.38,93.99,246.8,94.48,246.8,95.35z M245.14,95.39c-0.01,0.58,0.2,1.02,0.59,1.02c0.41,0,0.59-0.43,0.59-1.04
			c0-0.55-0.16-1.01-0.59-1.01C245.34,94.36,245.14,94.82,245.14,95.39z M245.67,98.7l2.68-4.71h0.39l-2.68,4.71H245.67z
			 M249.77,97.23c0,0.96-0.5,1.44-1.09,1.44c-0.57,0-1.06-0.46-1.06-1.37c0-0.92,0.5-1.43,1.1-1.43
			C249.35,95.88,249.77,96.37,249.77,97.23z M248.1,97.28c-0.01,0.58,0.22,1.02,0.59,1.02c0.41,0,0.59-0.43,0.59-1.04
			c0-0.55-0.16-1.02-0.59-1.02C248.31,96.25,248.1,96.7,248.1,97.28z"/>
		<path class="st7" d="M255.3,98.47c-0.22,0.11-0.67,0.22-1.25,0.22c-1.33,0-2.33-0.84-2.33-2.39c0-1.48,1-2.48,2.47-2.48
			c0.59,0,0.96,0.13,1.12,0.21l-0.15,0.5c-0.23-0.11-0.56-0.2-0.95-0.2c-1.11,0-1.84,0.71-1.84,1.95c0,1.16,0.67,1.9,1.81,1.9
			c0.37,0,0.75-0.08,0.99-0.2L255.3,98.47z"/>
		<path class="st7" d="M259.94,96.21c0,1.62-0.99,2.49-2.19,2.49c-1.25,0-2.12-0.97-2.12-2.4c0-1.5,0.93-2.48,2.19-2.48
			C259.11,93.82,259.94,94.81,259.94,96.21z M256.28,96.29c0,1.01,0.55,1.91,1.51,1.91c0.97,0,1.51-0.89,1.51-1.96
			c0-0.94-0.49-1.92-1.51-1.92C256.79,94.32,256.28,95.25,256.28,96.29z"/>
		<path class="st7" d="M264.71,96.55c-0.04-0.66-0.08-1.45-0.07-2.04h-0.02c-0.16,0.55-0.36,1.14-0.59,1.79l-0.83,2.29h-0.46
			l-0.76-2.25c-0.22-0.67-0.41-1.27-0.55-1.83h-0.01c-0.01,0.59-0.05,1.38-0.09,2.09l-0.13,2.02h-0.58l0.33-4.72h0.78l0.81,2.28
			c0.2,0.58,0.36,1.1,0.48,1.59h0.02c0.12-0.48,0.29-0.99,0.5-1.59l0.84-2.28h0.78l0.29,4.72h-0.59L264.71,96.55z"/>
		<path class="st7" d="M270.34,96.55c-0.04-0.66-0.08-1.45-0.07-2.04h-0.02c-0.16,0.55-0.36,1.14-0.59,1.79l-0.83,2.29h-0.46
			l-0.76-2.25c-0.22-0.67-0.41-1.27-0.55-1.83h-0.01c-0.01,0.59-0.05,1.38-0.09,2.09l-0.13,2.02h-0.58l0.33-4.72h0.78l0.81,2.28
			c0.2,0.58,0.36,1.1,0.48,1.59h0.02c0.12-0.48,0.29-0.99,0.5-1.59l0.84-2.28h0.78l0.29,4.72h-0.59L270.34,96.55z"/>
		<path class="st7" d="M272.6,93.9v4.72h-0.61V93.9H272.6z"/>
		<path class="st7" d="M273.58,97.88c0.27,0.17,0.67,0.31,1.09,0.31c0.62,0,0.99-0.33,0.99-0.8c0-0.44-0.25-0.69-0.89-0.94
			c-0.77-0.27-1.25-0.67-1.25-1.34c0-0.74,0.61-1.28,1.53-1.28c0.48,0,0.83,0.11,1.04,0.23l-0.17,0.5c-0.15-0.08-0.47-0.22-0.9-0.22
			c-0.64,0-0.89,0.38-0.89,0.71c0,0.44,0.29,0.66,0.94,0.91c0.8,0.31,1.2,0.69,1.2,1.39c0,0.73-0.54,1.36-1.65,1.36
			c-0.46,0-0.95-0.13-1.21-0.3L273.58,97.88z"/>
		<path class="st7" d="M277.03,97.88c0.27,0.17,0.67,0.31,1.09,0.31c0.62,0,0.99-0.33,0.99-0.8c0-0.44-0.25-0.69-0.89-0.94
			c-0.77-0.27-1.25-0.67-1.25-1.34c0-0.74,0.61-1.28,1.53-1.28c0.48,0,0.83,0.11,1.04,0.23l-0.17,0.5c-0.15-0.08-0.47-0.22-0.9-0.22
			c-0.64,0-0.89,0.38-0.89,0.71c0,0.44,0.29,0.66,0.94,0.91c0.8,0.31,1.2,0.69,1.2,1.39c0,0.73-0.54,1.36-1.65,1.36
			c-0.46,0-0.95-0.13-1.21-0.3L277.03,97.88z"/>
		<path class="st7" d="M281.17,93.9v4.72h-0.61V93.9H281.17z"/>
		<path class="st7" d="M286.27,96.21c0,1.62-0.99,2.49-2.19,2.49c-1.25,0-2.12-0.97-2.12-2.4c0-1.5,0.93-2.48,2.19-2.48
			C285.44,93.82,286.27,94.81,286.27,96.21z M282.61,96.29c0,1.01,0.55,1.91,1.51,1.91c0.97,0,1.51-0.89,1.51-1.96
			c0-0.94-0.49-1.92-1.51-1.92C283.11,94.32,282.61,95.25,282.61,96.29z"/>
		<path class="st7" d="M287.06,98.62V93.9h0.67l1.51,2.39c0.35,0.55,0.62,1.05,0.85,1.53l0.01-0.01c-0.06-0.63-0.07-1.2-0.07-1.94
			V93.9h0.57v4.72h-0.62l-1.5-2.4c-0.33-0.53-0.64-1.06-0.88-1.58l-0.02,0.01c0.04,0.59,0.05,1.16,0.05,1.95v2.02H287.06z"/>
		<path class="st6" d="M235.04,104.94v8.08h-1.04v-8.08H235.04z"/>
		<path class="st6" d="M236.95,108.79c0-0.6-0.01-1.09-0.05-1.57h0.94l0.06,0.96h0.02c0.29-0.55,0.96-1.09,1.92-1.09
			c0.8,0,2.05,0.48,2.05,2.47v3.47h-1.06v-3.35c0-0.94-0.35-1.72-1.34-1.72c-0.7,0-1.24,0.49-1.42,1.08
			c-0.05,0.13-0.07,0.31-0.07,0.49v3.49h-1.06V108.79z"/>
		<path class="st6" d="M243.86,107.22l1.14,3.26c0.19,0.53,0.35,1.01,0.47,1.49h0.04c0.13-0.48,0.3-0.96,0.49-1.49l1.13-3.26h1.1
			l-2.28,5.8h-1.01l-2.21-5.8H243.86z"/>
		<path class="st6" d="M250.4,105.59c0.01,0.36-0.25,0.65-0.67,0.65c-0.37,0-0.64-0.29-0.64-0.65c0-0.37,0.28-0.66,0.66-0.66
			C250.14,104.93,250.4,105.21,250.4,105.59z M249.22,113.02v-5.8h1.05v5.8H249.22z"/>
		<path class="st6" d="M253.3,105.55v1.67h1.51v0.8h-1.51v3.13c0,0.72,0.2,1.13,0.79,1.13c0.28,0,0.48-0.04,0.61-0.07l0.05,0.79
			c-0.2,0.08-0.53,0.14-0.94,0.14c-0.49,0-0.89-0.16-1.14-0.44c-0.3-0.31-0.41-0.83-0.41-1.51v-3.17h-0.9v-0.8h0.9v-1.39
			L253.3,105.55z"/>
		<path class="st6" d="M256.52,110.31c0.02,1.43,0.94,2.02,1.99,2.02c0.76,0,1.21-0.13,1.61-0.3l0.18,0.75
			c-0.37,0.17-1.01,0.36-1.93,0.36c-1.79,0-2.85-1.18-2.85-2.93s1.03-3.13,2.72-3.13c1.89,0,2.4,1.67,2.4,2.73
			c0,0.22-0.02,0.38-0.04,0.49H256.52z M259.61,109.56c0.01-0.67-0.28-1.72-1.46-1.72c-1.07,0-1.54,0.98-1.62,1.72H259.61z"/>
		<path class="st6" d="M264.52,105.03c0.5-0.08,1.16-0.16,2-0.16c1.03,0,1.79,0.24,2.27,0.67c0.44,0.38,0.71,0.97,0.71,1.69
			c0,0.73-0.22,1.31-0.62,1.73c-0.55,0.59-1.45,0.89-2.47,0.89c-0.31,0-0.6-0.01-0.84-0.07v3.24h-1.04V105.03z M265.56,108.93
			c0.23,0.06,0.52,0.08,0.86,0.08c1.26,0,2.03-0.61,2.03-1.73c0-1.07-0.76-1.58-1.91-1.58c-0.46,0-0.8,0.04-0.98,0.08V108.93z"/>
		<path class="st6" d="M275.82,110.07c0,2.15-1.49,3.08-2.89,3.08c-1.57,0-2.78-1.15-2.78-2.99c0-1.94,1.27-3.08,2.88-3.08
			C274.69,107.09,275.82,108.3,275.82,110.07z M271.22,110.13c0,1.27,0.73,2.23,1.76,2.23c1.01,0,1.76-0.95,1.76-2.25
			c0-0.98-0.49-2.23-1.74-2.23C271.75,107.88,271.22,109.03,271.22,110.13z"/>
		<path class="st6" d="M278.33,105.59c0.01,0.36-0.25,0.65-0.67,0.65c-0.37,0-0.64-0.29-0.64-0.65c0-0.37,0.28-0.66,0.66-0.66
			C278.08,104.93,278.33,105.21,278.33,105.59z M277.16,113.02v-5.8h1.05v5.8H277.16z"/>
		<path class="st6" d="M279.96,108.79c0-0.6-0.01-1.09-0.05-1.57h0.94l0.06,0.96h0.02c0.29-0.55,0.96-1.09,1.92-1.09
			c0.8,0,2.05,0.48,2.05,2.47v3.47h-1.05v-3.35c0-0.94-0.35-1.72-1.34-1.72c-0.7,0-1.24,0.49-1.42,1.08
			c-0.05,0.13-0.07,0.31-0.07,0.49v3.49h-1.05V108.79z"/>
		<path class="st6" d="M287.85,105.55v1.67h1.51v0.8h-1.51v3.13c0,0.72,0.2,1.13,0.79,1.13c0.28,0,0.48-0.04,0.61-0.07l0.05,0.79
			c-0.2,0.08-0.53,0.14-0.94,0.14c-0.49,0-0.89-0.16-1.14-0.44c-0.3-0.31-0.41-0.83-0.41-1.51v-3.17h-0.9v-0.8h0.9v-1.39
			L287.85,105.55z"/>
		<path class="st6" d="M290.4,111.94c0.31,0.2,0.86,0.42,1.39,0.42c0.77,0,1.13-0.38,1.13-0.86c0-0.5-0.3-0.78-1.08-1.07
			c-1.04-0.37-1.54-0.95-1.54-1.64c0-0.94,0.76-1.7,2-1.7c0.59,0,1.1,0.17,1.43,0.36l-0.26,0.77c-0.23-0.14-0.65-0.34-1.19-0.34
			c-0.62,0-0.97,0.36-0.97,0.79c0,0.48,0.35,0.7,1.1,0.98c1.01,0.38,1.52,0.89,1.52,1.75c0,1.02-0.79,1.74-2.17,1.74
			c-0.64,0-1.22-0.16-1.63-0.4L290.4,111.94z"/>
		<path class="st7" d="M235.39,117.7v1.65h1.58v0.42h-1.58v1.66h-0.45v-1.66h-1.58v-0.42h1.58v-1.65H235.39z"/>
		<path class="st7" d="M237.57,121.42v-0.38l0.48-0.47c1.16-1.11,1.69-1.69,1.69-2.38c0-0.46-0.22-0.89-0.9-0.89
			c-0.41,0-0.76,0.21-0.97,0.38l-0.2-0.43c0.31-0.27,0.76-0.46,1.29-0.46c0.98,0,1.39,0.67,1.39,1.32c0,0.84-0.61,1.52-1.57,2.44
			l-0.36,0.34v0.01h2.04v0.51H237.57z"/>
		<path class="st7" d="M244.18,119.1c0,1.55-0.57,2.4-1.58,2.4c-0.89,0-1.49-0.83-1.51-2.34c0-1.53,0.66-2.37,1.58-2.37
			C243.64,116.79,244.18,117.65,244.18,119.1z M241.71,119.17c0,1.18,0.36,1.86,0.92,1.86c0.63,0,0.93-0.74,0.93-1.9
			c0-1.12-0.29-1.86-0.92-1.86C242.11,117.27,241.71,117.93,241.71,119.17z"/>
		<path class="st7" d="M246.8,118.15c0,0.96-0.5,1.44-1.09,1.44c-0.57,0-1.06-0.46-1.06-1.37c0-0.91,0.5-1.42,1.1-1.42
			C246.38,116.79,246.8,117.28,246.8,118.15z M245.14,118.19c-0.01,0.58,0.2,1.02,0.59,1.02c0.41,0,0.59-0.43,0.59-1.04
			c0-0.55-0.16-1.02-0.59-1.02C245.34,117.16,245.14,117.62,245.14,118.19z M245.67,121.5l2.68-4.71h0.39l-2.68,4.71H245.67z
			 M249.77,120.03c0,0.96-0.5,1.44-1.09,1.44c-0.57,0-1.06-0.46-1.06-1.37c0-0.92,0.5-1.43,1.1-1.43
			C249.35,118.68,249.77,119.17,249.77,120.03z M248.1,120.08c-0.01,0.58,0.22,1.02,0.59,1.02c0.41,0,0.59-0.43,0.59-1.04
			c0-0.55-0.16-1.02-0.59-1.02C248.31,119.05,248.1,119.5,248.1,120.08z"/>
		<path class="st7" d="M255.3,121.27c-0.22,0.11-0.67,0.22-1.25,0.22c-1.33,0-2.33-0.84-2.33-2.39c0-1.48,1-2.48,2.47-2.48
			c0.59,0,0.96,0.13,1.12,0.21l-0.15,0.5c-0.23-0.11-0.56-0.2-0.95-0.2c-1.11,0-1.84,0.71-1.84,1.95c0,1.16,0.67,1.9,1.81,1.9
			c0.37,0,0.75-0.08,0.99-0.2L255.3,121.27z"/>
		<path class="st7" d="M259.94,119.01c0,1.62-0.99,2.49-2.19,2.49c-1.25,0-2.12-0.97-2.12-2.4c0-1.5,0.93-2.48,2.19-2.48
			C259.11,116.62,259.94,117.61,259.94,119.01z M256.28,119.09c0,1.01,0.55,1.91,1.51,1.91c0.97,0,1.51-0.89,1.51-1.96
			c0-0.94-0.49-1.92-1.51-1.92C256.79,117.12,256.28,118.05,256.28,119.09z"/>
		<path class="st7" d="M264.71,119.35c-0.04-0.66-0.08-1.45-0.07-2.04h-0.02c-0.16,0.55-0.36,1.14-0.59,1.79l-0.83,2.29h-0.46
			l-0.76-2.25c-0.22-0.67-0.41-1.27-0.55-1.83h-0.01c-0.01,0.59-0.05,1.38-0.09,2.09l-0.13,2.02h-0.58l0.33-4.72h0.78l0.81,2.28
			c0.2,0.58,0.36,1.1,0.48,1.59h0.02c0.12-0.48,0.29-0.99,0.5-1.59l0.84-2.28h0.78l0.29,4.72h-0.59L264.71,119.35z"/>
		<path class="st7" d="M270.34,119.35c-0.04-0.66-0.08-1.45-0.07-2.04h-0.02c-0.16,0.55-0.36,1.14-0.59,1.79l-0.83,2.29h-0.46
			l-0.76-2.25c-0.22-0.67-0.41-1.27-0.55-1.83h-0.01c-0.01,0.59-0.05,1.38-0.09,2.09l-0.13,2.02h-0.58l0.33-4.72h0.78l0.81,2.28
			c0.2,0.58,0.36,1.1,0.48,1.59h0.02c0.12-0.48,0.29-0.99,0.5-1.59l0.84-2.28h0.78l0.29,4.72h-0.59L270.34,119.35z"/>
		<path class="st7" d="M272.6,116.7v4.72h-0.61v-4.72H272.6z"/>
		<path class="st7" d="M273.58,120.68c0.27,0.17,0.67,0.31,1.09,0.31c0.62,0,0.99-0.33,0.99-0.8c0-0.44-0.25-0.69-0.89-0.94
			c-0.77-0.27-1.25-0.67-1.25-1.34c0-0.74,0.61-1.28,1.53-1.28c0.48,0,0.83,0.11,1.04,0.23l-0.17,0.5c-0.15-0.08-0.47-0.22-0.9-0.22
			c-0.64,0-0.89,0.38-0.89,0.71c0,0.44,0.29,0.66,0.94,0.91c0.8,0.31,1.2,0.69,1.2,1.39c0,0.73-0.54,1.36-1.65,1.36
			c-0.46,0-0.95-0.13-1.21-0.3L273.58,120.68z"/>
		<path class="st7" d="M277.03,120.68c0.27,0.17,0.67,0.31,1.09,0.31c0.62,0,0.99-0.33,0.99-0.8c0-0.44-0.25-0.69-0.89-0.94
			c-0.77-0.27-1.25-0.67-1.25-1.34c0-0.74,0.61-1.28,1.53-1.28c0.48,0,0.83,0.11,1.04,0.23l-0.17,0.5c-0.15-0.08-0.47-0.22-0.9-0.22
			c-0.64,0-0.89,0.38-0.89,0.71c0,0.44,0.29,0.66,0.94,0.91c0.8,0.31,1.2,0.69,1.2,1.39c0,0.73-0.54,1.36-1.65,1.36
			c-0.46,0-0.95-0.13-1.21-0.3L277.03,120.68z"/>
		<path class="st7" d="M281.17,116.7v4.72h-0.61v-4.72H281.17z"/>
		<path class="st7" d="M286.27,119.01c0,1.62-0.99,2.49-2.19,2.49c-1.25,0-2.12-0.97-2.12-2.4c0-1.5,0.93-2.48,2.19-2.48
			C285.44,116.62,286.27,117.61,286.27,119.01z M282.61,119.09c0,1.01,0.55,1.91,1.51,1.91c0.97,0,1.51-0.89,1.51-1.96
			c0-0.94-0.49-1.92-1.51-1.92C283.11,117.12,282.61,118.05,282.61,119.09z"/>
		<path class="st7" d="M287.06,121.42v-4.72h0.67l1.51,2.39c0.35,0.55,0.62,1.05,0.85,1.53l0.01-0.01c-0.06-0.63-0.07-1.2-0.07-1.94
			v-1.98h0.57v4.72h-0.62l-1.5-2.4c-0.33-0.53-0.64-1.06-0.88-1.58l-0.02,0.01c0.04,0.59,0.05,1.16,0.05,1.95v2.02H287.06z"/>
		<path class="st6" d="M235.79,135.82v-3.43l-2.55-4.65h1.19l1.14,2.23c0.31,0.61,0.55,1.1,0.8,1.67h0.02
			c0.23-0.53,0.5-1.06,0.82-1.67l1.16-2.23h1.19l-2.71,4.64v3.44H235.79z"/>
		<path class="st6" d="M244.79,132.87c0,2.15-1.49,3.08-2.89,3.08c-1.57,0-2.78-1.15-2.78-2.99c0-1.94,1.27-3.08,2.88-3.08
			C243.66,129.89,244.79,131.1,244.79,132.87z M240.18,132.93c0,1.27,0.73,2.23,1.76,2.23c1.01,0,1.76-0.95,1.76-2.25
			c0-0.98-0.49-2.23-1.74-2.23C240.72,130.68,240.18,131.83,240.18,132.93z"/>
		<path class="st6" d="M250.98,134.24c0,0.6,0.01,1.13,0.05,1.58h-0.94l-0.06-0.95h-0.02c-0.28,0.47-0.89,1.08-1.92,1.08
			c-0.91,0-2-0.5-2-2.54v-3.39h1.05v3.21c0,1.1,0.34,1.85,1.3,1.85c0.71,0,1.2-0.49,1.39-0.96c0.06-0.16,0.1-0.35,0.1-0.54v-3.56
			h1.05V134.24z"/>
		<path class="st6" d="M252.74,131.83c0-0.68-0.01-1.27-0.05-1.81h0.92l0.04,1.14h0.05c0.26-0.78,0.9-1.27,1.61-1.27
			c0.12,0,0.2,0.01,0.3,0.04v1c-0.11-0.02-0.22-0.04-0.36-0.04c-0.74,0-1.27,0.56-1.42,1.36c-0.02,0.14-0.05,0.31-0.05,0.49v3.09
			h-1.04V131.83z"/>
		<path class="st6" d="M261.64,134.55c0.47,0.29,1.15,0.53,1.87,0.53c1.07,0,1.69-0.56,1.69-1.38c0-0.75-0.43-1.19-1.52-1.61
			c-1.32-0.47-2.13-1.15-2.13-2.29c0-1.26,1.04-2.2,2.61-2.2c0.83,0,1.43,0.19,1.79,0.4l-0.29,0.85c-0.26-0.14-0.8-0.38-1.54-0.38
			c-1.1,0-1.52,0.66-1.52,1.21c0,0.76,0.49,1.13,1.61,1.56c1.37,0.53,2.06,1.19,2.06,2.37c0,1.25-0.92,2.33-2.83,2.33
			c-0.78,0-1.63-0.23-2.06-0.52L261.64,134.55z"/>
		<path class="st6" d="M268.32,133.11c0.02,1.43,0.94,2.02,1.99,2.02c0.76,0,1.21-0.13,1.61-0.3l0.18,0.75
			c-0.37,0.17-1.01,0.36-1.93,0.36c-1.79,0-2.85-1.18-2.85-2.93s1.03-3.13,2.72-3.13c1.89,0,2.4,1.67,2.4,2.73
			c0,0.22-0.02,0.38-0.04,0.49H268.32z M271.42,132.36c0.01-0.67-0.28-1.71-1.46-1.71c-1.07,0-1.54,0.98-1.62,1.71H271.42z"/>
		<path class="st6" d="M274.34,133.11c0.02,1.43,0.94,2.02,1.99,2.02c0.76,0,1.21-0.13,1.61-0.3l0.18,0.75
			c-0.37,0.17-1.01,0.36-1.93,0.36c-1.79,0-2.85-1.18-2.85-2.93s1.03-3.13,2.72-3.13c1.89,0,2.4,1.67,2.4,2.73
			c0,0.22-0.02,0.38-0.04,0.49H274.34z M277.43,132.36c0.01-0.67-0.28-1.71-1.46-1.71c-1.07,0-1.54,0.98-1.62,1.71H277.43z"/>
		<path class="st6" d="M284.77,127.31v7.02c0,0.52,0.01,1.1,0.05,1.5h-0.95l-0.05-1.01h-0.02c-0.32,0.65-1.03,1.14-1.98,1.14
			c-1.4,0-2.48-1.19-2.48-2.95c-0.01-1.93,1.19-3.12,2.6-3.12c0.89,0,1.49,0.42,1.75,0.89h0.02v-3.47H284.77z M283.72,132.38
			c0-0.13-0.01-0.31-0.05-0.44c-0.16-0.67-0.73-1.22-1.52-1.22c-1.09,0-1.74,0.96-1.74,2.24c0,1.17,0.58,2.15,1.71,2.15
			c0.71,0,1.36-0.47,1.55-1.26c0.04-0.14,0.05-0.29,0.05-0.46V132.38z"/>
		<path class="st6" d="M285.64,136.3l3.35-8.7h0.82l-3.36,8.7H285.64z"/>
		<path class="st6" d="M290.54,134.55c0.47,0.29,1.15,0.53,1.87,0.53c1.07,0,1.69-0.56,1.69-1.38c0-0.75-0.43-1.19-1.52-1.61
			c-1.32-0.47-2.13-1.15-2.13-2.29c0-1.26,1.04-2.2,2.61-2.2c0.83,0,1.43,0.19,1.79,0.4l-0.29,0.85c-0.26-0.14-0.8-0.38-1.54-0.38
			c-1.1,0-1.52,0.66-1.52,1.21c0,0.76,0.49,1.13,1.61,1.56c1.37,0.53,2.06,1.19,2.06,2.37c0,1.25-0.92,2.33-2.83,2.33
			c-0.78,0-1.63-0.23-2.06-0.52L290.54,134.55z"/>
		<path class="st6" d="M301.42,134.24c0,0.6,0.01,1.13,0.05,1.58h-0.94l-0.06-0.95h-0.02c-0.28,0.47-0.89,1.08-1.92,1.08
			c-0.91,0-2-0.5-2-2.54v-3.39h1.05v3.21c0,1.1,0.34,1.85,1.3,1.85c0.71,0,1.2-0.49,1.39-0.96c0.06-0.16,0.1-0.35,0.1-0.54v-3.56
			h1.05V134.24z"/>
		<path class="st6" d="M303.17,131.91c0-0.74-0.02-1.34-0.05-1.89h0.95l0.05,1h0.02c0.43-0.71,1.12-1.13,2.06-1.13
			c1.4,0,2.46,1.19,2.46,2.95c0,2.09-1.27,3.12-2.64,3.12c-0.77,0-1.44-0.34-1.79-0.91h-0.02v3.15h-1.04V131.91z M304.22,133.46
			c0,0.16,0.02,0.3,0.05,0.43c0.19,0.73,0.83,1.24,1.58,1.24c1.12,0,1.76-0.91,1.76-2.24c0-1.16-0.61-2.16-1.73-2.16
			c-0.72,0-1.39,0.52-1.59,1.31c-0.04,0.13-0.07,0.29-0.07,0.43V133.46z"/>
		<path class="st6" d="M310.59,133.11c0.02,1.43,0.94,2.02,1.99,2.02c0.76,0,1.21-0.13,1.61-0.3l0.18,0.75
			c-0.37,0.17-1.01,0.36-1.93,0.36c-1.79,0-2.85-1.18-2.85-2.93s1.03-3.13,2.72-3.13c1.89,0,2.4,1.67,2.4,2.73
			c0,0.22-0.02,0.38-0.04,0.49H310.59z M313.68,132.36c0.01-0.67-0.28-1.71-1.46-1.71c-1.07,0-1.54,0.98-1.62,1.71H313.68z"/>
		<path class="st6" d="M316.01,131.83c0-0.68-0.01-1.27-0.05-1.81h0.92l0.04,1.14h0.05c0.26-0.78,0.9-1.27,1.61-1.27
			c0.12,0,0.2,0.01,0.3,0.04v1c-0.11-0.02-0.22-0.04-0.36-0.04c-0.74,0-1.27,0.56-1.42,1.36c-0.02,0.14-0.05,0.31-0.05,0.49v3.09
			h-1.04V131.83z"/>
		<path class="st6" d="M322.52,135.82v-8.08h1.14l2.59,4.09c0.6,0.95,1.07,1.8,1.45,2.63l0.02-0.01c-0.1-1.08-0.12-2.06-0.12-3.32
			v-3.38h0.98v8.08h-1.06l-2.57-4.1c-0.56-0.9-1.1-1.82-1.51-2.7l-0.04,0.01c0.06,1.02,0.08,1.99,0.08,3.33v3.45H322.52z"/>
		<path class="st6" d="M335.63,132.87c0,2.15-1.49,3.08-2.89,3.08c-1.57,0-2.78-1.15-2.78-2.99c0-1.94,1.27-3.08,2.88-3.08
			C334.5,129.89,335.63,131.1,335.63,132.87z M331.02,132.93c0,1.27,0.73,2.23,1.76,2.23c1.01,0,1.76-0.95,1.76-2.25
			c0-0.98-0.49-2.23-1.74-2.23C331.56,130.68,331.02,131.83,331.02,132.93z"/>
		<path class="st6" d="M341.98,127.31v7.02c0,0.52,0.01,1.1,0.05,1.5h-0.95l-0.05-1.01h-0.02c-0.32,0.65-1.03,1.14-1.98,1.14
			c-1.4,0-2.48-1.19-2.48-2.95c-0.01-1.93,1.19-3.12,2.6-3.12c0.89,0,1.49,0.42,1.75,0.89h0.02v-3.47H341.98z M340.92,132.38
			c0-0.13-0.01-0.31-0.05-0.44c-0.16-0.67-0.73-1.22-1.52-1.22c-1.09,0-1.74,0.96-1.74,2.24c0,1.17,0.58,2.15,1.71,2.15
			c0.71,0,1.36-0.47,1.55-1.26c0.04-0.14,0.05-0.29,0.05-0.46V132.38z"/>
		<path class="st6" d="M344.32,133.11c0.02,1.43,0.94,2.02,1.99,2.02c0.76,0,1.21-0.13,1.61-0.3l0.18,0.75
			c-0.37,0.17-1.01,0.36-1.93,0.36c-1.79,0-2.85-1.18-2.85-2.93s1.03-3.13,2.72-3.13c1.89,0,2.4,1.67,2.4,2.73
			c0,0.22-0.02,0.38-0.04,0.49H344.32z M347.41,132.36c0.01-0.67-0.28-1.71-1.46-1.71c-1.07,0-1.54,0.98-1.62,1.71H347.41z"/>
	</g>
</g>
<g id="Layer_1" class="st2">
	<g class="st8">
		<path class="st9" d="M100.43,123.7c-3.53,0-6.39,2.86-6.39,6.39c0,3.53,2.86,6.39,6.39,6.39c3.53,0,6.39-2.86,6.39-6.39l0,0
			C106.82,126.56,103.96,123.7,100.43,123.7z M97.33,134.06c0.06-0.8,0.45-2.18,3.11-2.18s3.05,1.38,3.11,2.18
			C101.72,135.49,99.15,135.49,97.33,134.06L97.33,134.06z M100.43,130.28c-0.81,0-1.46-0.66-1.46-1.46c0-0.81,0.66-1.46,1.46-1.46
			s1.46,0.66,1.46,1.46C101.9,129.62,101.24,130.28,100.43,130.28z M104.64,132.87c-0.38-1-1.21-1.76-2.24-2.05
			c1.11-1.09,1.13-2.87,0.04-3.98c-1.09-1.11-2.87-1.13-3.98-0.04s-1.13,2.87-0.04,3.98c0.01,0.01,0.03,0.03,0.04,0.04
			c-1.03,0.29-1.86,1.05-2.24,2.05c-1.54-2.32-0.9-5.45,1.42-6.99c2.32-1.54,5.45-0.9,6.99,1.42
			C105.75,129,105.75,131.19,104.64,132.87z"/>
		<path class="st9" d="M109.44,127.03l-1.15-0.2l0.66-0.93c0.53-0.7,0.47-1.68-0.15-2.3l-1.88-1.89c-0.61-0.62-1.59-0.69-2.28-0.16
			l-0.95,0.68l-0.19-1.13c-0.12-0.87-0.86-1.51-1.73-1.52H99.1c-0.87,0-1.61,0.64-1.73,1.5l-0.2,1.15l-0.93-0.66
			c-0.7-0.53-1.68-0.47-2.3,0.15l-1.89,1.88c-0.62,0.61-0.69,1.59-0.16,2.28l0.68,0.95l-1.13,0.19c-0.87,0.12-1.51,0.86-1.52,1.73
			v2.67c0,0.87,0.64,1.61,1.5,1.73l1.15,0.2l-0.66,0.93c-0.53,0.7-0.47,1.68,0.15,2.3l1.88,1.89c0.33,0.33,0.78,0.51,1.24,0.51
			c0.37,0,0.74-0.12,1.04-0.35l0.95-0.68l0.19,1.13c0.12,0.87,0.86,1.51,1.73,1.52h2.66c0.87,0,1.61-0.64,1.73-1.5l0.2-1.15
			l0.93,0.66c0.3,0.23,0.68,0.36,1.06,0.36c0.46,0,0.91-0.18,1.24-0.51l1.89-1.89c0.62-0.61,0.69-1.59,0.16-2.28l-0.68-0.95
			l1.13-0.19c0.87-0.12,1.51-0.86,1.52-1.73v-2.66C110.95,127.89,110.3,127.15,109.44,127.03z M109.59,131.43
			c0,0.2-0.15,0.37-0.35,0.39h-0.03l-2.2,0.38c-0.37,0.07-0.61,0.42-0.54,0.79c0.02,0.09,0.05,0.18,0.11,0.26l1.31,1.84l0.02,0.02
			c0.11,0.16,0.09,0.37-0.05,0.51l-1.89,1.91c-0.14,0.14-0.37,0.15-0.52,0.03l-0.02-0.03l-1.83-1.29c-0.3-0.22-0.73-0.14-0.94,0.16
			c-0.06,0.08-0.1,0.18-0.11,0.28l-0.38,2.22v0.03c-0.03,0.19-0.2,0.33-0.39,0.33H99.1c-0.2,0-0.37-0.15-0.39-0.35v-0.03l-0.37-2.2
			c-0.06-0.37-0.42-0.61-0.78-0.55c-0.1,0.02-0.19,0.05-0.27,0.11l-1.84,1.31l-0.02,0.02c-0.16,0.11-0.37,0.09-0.51-0.05L93,135.63
			c-0.14-0.14-0.16-0.37-0.03-0.52l0.02-0.02l1.3-1.83c0.22-0.3,0.14-0.73-0.16-0.94c-0.08-0.06-0.18-0.1-0.28-0.11l-2.22-0.38H91.6
			c-0.19-0.03-0.33-0.2-0.33-0.39v-2.66c0-0.2,0.15-0.37,0.35-0.39h0.03l2.2-0.38c0.37-0.07,0.61-0.42,0.54-0.79
			c-0.02-0.09-0.05-0.18-0.11-0.26l-1.31-1.84l-0.02-0.02c-0.11-0.16-0.09-0.37,0.05-0.51l1.89-1.91c0.14-0.14,0.37-0.16,0.52-0.03
			l0.02,0.02l1.83,1.3c0.3,0.22,0.73,0.14,0.94-0.16c0.06-0.08,0.1-0.18,0.11-0.28l0.38-2.22v-0.03c0.03-0.19,0.2-0.33,0.39-0.33
			h2.66c0.2,0,0.37,0.15,0.39,0.35v0.03l0.37,2.2c0.07,0.37,0.42,0.61,0.78,0.55c0.1-0.02,0.19-0.06,0.27-0.11l1.84-1.31l0.02-0.02
			c0.16-0.11,0.37-0.09,0.51,0.05l1.91,1.89c0.14,0.14,0.16,0.37,0.03,0.52l-0.02,0.02l-1.3,1.83c-0.22,0.3-0.14,0.73,0.16,0.94
			c0.08,0.06,0.18,0.1,0.28,0.11l2.22,0.38h0.03c0.19,0.03,0.33,0.2,0.33,0.39L109.59,131.43z"/>
	</g>
	<path class="st10" d="M92.13,93.38h-1.63c0,5.85,4.76,10.62,10.62,10.62s10.62-4.76,10.62-10.62h-1.63c0,1.88-0.58,3.63-1.58,5.08
		c-1.21-1.18-2.67-2.04-4.26-2.53c1.07-0.9,1.75-2.24,1.75-3.75c0-2.7-2.2-4.9-4.9-4.9c-2.7,0-4.9,2.2-4.9,4.9
		c0,1.5,0.68,2.85,1.75,3.75c-1.59,0.49-3.05,1.36-4.26,2.53C92.71,97.01,92.13,95.26,92.13,93.38z M97.84,92.18
		c0-1.8,1.47-3.27,3.27-3.27c1.8,0,3.27,1.47,3.27,3.27s-1.47,3.27-3.27,3.27C99.31,95.45,97.84,93.98,97.84,92.18z M101.11,97.08
		c2.4,0,4.68,0.96,6.36,2.64c-1.63,1.63-3.88,2.64-6.36,2.64c-2.48,0-4.73-1.01-6.36-2.64C96.43,98.04,98.71,97.08,101.11,97.08z"/>
	<path class="st10" d="M122.27,103.97h-1.63c0,5.85,4.76,10.62,10.62,10.62c5.85,0,10.62-4.76,10.62-10.62h-1.63
		c0,1.88-0.58,3.63-1.58,5.08c-1.21-1.18-2.67-2.04-4.26-2.53c1.07-0.9,1.75-2.24,1.75-3.75c0-2.7-2.2-4.9-4.9-4.9
		c-2.7,0-4.9,2.2-4.9,4.9c0,1.5,0.68,2.85,1.75,3.75c-1.59,0.49-3.05,1.36-4.26,2.53C122.86,107.61,122.27,105.86,122.27,103.97z
		 M127.99,102.77c0-1.8,1.47-3.27,3.27-3.27c1.8,0,3.27,1.47,3.27,3.27s-1.47,3.27-3.27,3.27
		C129.46,106.04,127.99,104.57,127.99,102.77z M131.26,107.67c2.4,0,4.68,0.96,6.36,2.64c-1.63,1.63-3.88,2.64-6.36,2.64
		c-2.48,0-4.73-1.01-6.36-2.64C126.58,108.63,128.86,107.67,131.26,107.67z"/>
	<path class="st10" d="M59.64,104.83h-1.63c0,5.85,4.76,10.62,10.62,10.62s10.62-4.76,10.62-10.62h-1.63c0,1.88-0.58,3.63-1.58,5.08
		c-1.21-1.18-2.67-2.04-4.26-2.53c1.07-0.9,1.75-2.24,1.75-3.75c0-2.7-2.2-4.9-4.9-4.9c-2.7,0-4.9,2.2-4.9,4.9
		c0,1.5,0.68,2.85,1.75,3.75c-1.59,0.49-3.05,1.36-4.26,2.53C60.23,108.46,59.64,106.71,59.64,104.83z M65.36,103.62
		c0-1.8,1.47-3.27,3.27-3.27c1.8,0,3.27,1.47,3.27,3.27s-1.47,3.27-3.27,3.27C66.83,106.89,65.36,105.42,65.36,103.62z
		 M68.63,108.52c2.4,0,4.68,0.96,6.36,2.64c-1.63,1.63-3.88,2.64-6.36,2.64c-2.48,0-4.73-1.01-6.36-2.64
		C63.95,109.48,66.23,108.52,68.63,108.52z"/>
	<path class="st10" d="M38.07,83.77h-1.31c0,4.68,3.81,8.49,8.49,8.49s8.49-3.81,8.49-8.49h-1.31c0,1.51-0.47,2.9-1.26,4.06
		c-0.97-0.94-2.13-1.63-3.4-2.02c0.85-0.72,1.4-1.79,1.4-3c0-2.16-1.76-3.92-3.92-3.92c-2.16,0-3.92,1.76-3.92,3.92
		c0,1.2,0.54,2.28,1.4,3c-1.27,0.39-2.44,1.08-3.4,2.02C38.54,86.67,38.07,85.27,38.07,83.77z M42.65,82.8
		c0-1.44,1.17-2.61,2.61-2.61c1.44,0,2.61,1.17,2.61,2.61s-1.17,2.61-2.61,2.61C43.82,85.42,42.65,84.24,42.65,82.8z M45.26,86.72
		c1.92,0,3.74,0.76,5.08,2.11c-1.3,1.3-3.1,2.11-5.08,2.11c-1.98,0-3.78-0.81-5.08-2.11C41.52,87.49,43.34,86.72,45.26,86.72z"/>
	<path class="st10" d="M19.84,65.17h-0.85c0,3.06,2.49,5.55,5.55,5.55s5.55-2.49,5.55-5.55h-0.85c0,0.98-0.31,1.9-0.82,2.65
		c-0.63-0.62-1.39-1.07-2.22-1.32c0.56-0.47,0.91-1.17,0.91-1.96c0-1.41-1.15-2.56-2.56-2.56c-1.41,0-2.56,1.15-2.56,2.56
		c0,0.79,0.36,1.49,0.91,1.96c-0.83,0.26-1.59,0.71-2.22,1.32C20.14,67.07,19.84,66.15,19.84,65.17z M22.83,64.54
		c0-0.94,0.77-1.71,1.71-1.71c0.94,0,1.71,0.77,1.71,1.71c0,0.94-0.77,1.71-1.71,1.71C23.59,66.25,22.83,65.48,22.83,64.54z
		 M24.53,67.1c1.25,0,2.45,0.5,3.32,1.38c-0.85,0.85-2.03,1.38-3.32,1.38c-1.3,0-2.47-0.53-3.32-1.38
		C22.09,67.6,23.28,67.1,24.53,67.1z"/>
	<path class="st10" d="M44.38,53h-0.85c0,3.06,2.49,5.55,5.55,5.55s5.55-2.49,5.55-5.55h-0.85c0,0.98-0.31,1.9-0.82,2.65
		c-0.63-0.62-1.39-1.07-2.22-1.32c0.56-0.47,0.91-1.17,0.91-1.96c0-1.41-1.15-2.56-2.56-2.56c-1.41,0-2.56,1.15-2.56,2.56
		c0,0.79,0.36,1.49,0.91,1.96c-0.83,0.26-1.59,0.71-2.22,1.32C44.68,54.9,44.38,53.98,44.38,53z M47.37,52.37
		c0-0.94,0.77-1.71,1.71-1.71c0.94,0,1.71,0.77,1.71,1.71s-0.77,1.71-1.71,1.71C48.13,54.08,47.37,53.31,47.37,52.37z M49.08,54.93
		c1.25,0,2.45,0.5,3.32,1.38c-0.85,0.85-2.03,1.38-3.32,1.38c-1.3,0-2.47-0.53-3.32-1.38C46.63,55.43,47.82,54.93,49.08,54.93z"/>
	<path class="st10" d="M68.92,42.22h-0.85c0,3.06,2.49,5.55,5.55,5.55s5.55-2.49,5.55-5.55h-0.85c0,0.98-0.31,1.9-0.82,2.65
		c-0.63-0.62-1.39-1.07-2.22-1.32c0.56-0.47,0.91-1.17,0.91-1.96c0-1.41-1.15-2.56-2.56-2.56c-1.41,0-2.56,1.15-2.56,2.56
		c0,0.79,0.36,1.49,0.91,1.96c-0.83,0.26-1.59,0.71-2.22,1.32C69.23,44.12,68.92,43.21,68.92,42.22z M71.91,41.6
		c0-0.94,0.77-1.71,1.71-1.71c0.94,0,1.71,0.77,1.71,1.71s-0.77,1.71-1.71,1.71C72.67,43.3,71.91,42.54,71.91,41.6z M73.62,44.16
		c1.25,0,2.45,0.5,3.32,1.38c-0.85,0.85-2.03,1.38-3.32,1.38c-1.3,0-2.47-0.53-3.32-1.38C71.17,44.66,72.36,44.16,73.62,44.16z"/>
	<path class="st10" d="M118,42.22h-0.85c0,3.06,2.49,5.55,5.55,5.55c3.06,0,5.55-2.49,5.55-5.55h-0.85c0,0.98-0.31,1.9-0.82,2.65
		c-0.63-0.62-1.39-1.07-2.22-1.32c0.56-0.47,0.91-1.17,0.91-1.96c0-1.41-1.15-2.56-2.56-2.56c-1.41,0-2.56,1.15-2.56,2.56
		c0,0.79,0.36,1.49,0.91,1.96c-0.83,0.26-1.59,0.71-2.22,1.32C118.31,44.12,118,43.21,118,42.22z M120.99,41.6
		c0-0.94,0.77-1.71,1.71-1.71c0.94,0,1.71,0.77,1.71,1.71s-0.77,1.71-1.71,1.71C121.76,43.3,120.99,42.54,120.99,41.6z M122.7,44.16
		c1.25,0,2.45,0.5,3.32,1.38c-0.85,0.85-2.03,1.38-3.32,1.38c-1.3,0-2.47-0.53-3.32-1.38C120.25,44.66,121.44,44.16,122.7,44.16z"/>
	<path class="st10" d="M142.54,53h-0.85c0,3.06,2.49,5.55,5.55,5.55c3.06,0,5.55-2.49,5.55-5.55h-0.85c0,0.98-0.31,1.9-0.82,2.65
		c-0.63-0.62-1.39-1.07-2.22-1.32c0.56-0.47,0.91-1.17,0.91-1.96c0-1.41-1.15-2.56-2.56-2.56c-1.41,0-2.56,1.15-2.56,2.56
		c0,0.79,0.36,1.49,0.91,1.96c-0.83,0.26-1.59,0.71-2.22,1.32C142.85,54.9,142.54,53.98,142.54,53z M145.53,52.37
		c0-0.94,0.77-1.71,1.71-1.71c0.94,0,1.71,0.77,1.71,1.71s-0.77,1.71-1.71,1.71C146.3,54.08,145.53,53.31,145.53,52.37z
		 M147.24,54.93c1.25,0,2.45,0.5,3.32,1.38c-0.85,0.85-2.03,1.38-3.32,1.38c-1.3,0-2.47-0.53-3.32-1.38
		C144.79,55.43,145.99,54.93,147.24,54.93z"/>
	<path class="st10" d="M93.46,38.16h-0.85c0,3.06,2.49,5.55,5.55,5.55s5.55-2.49,5.55-5.55h-0.85c0,0.98-0.31,1.9-0.82,2.65
		c-0.63-0.62-1.39-1.07-2.22-1.32c0.56-0.47,0.91-1.17,0.91-1.96c0-1.41-1.15-2.56-2.56-2.56c-1.41,0-2.56,1.15-2.56,2.56
		c0,0.79,0.36,1.49,0.91,1.96c-0.83,0.26-1.59,0.71-2.22,1.32C93.77,40.06,93.46,39.14,93.46,38.16z M96.45,37.53
		c0-0.94,0.77-1.71,1.71-1.71c0.94,0,1.71,0.77,1.71,1.71c0,0.94-0.77,1.71-1.71,1.71C97.22,39.24,96.45,38.47,96.45,37.53z
		 M98.16,40.09c1.25,0,2.45,0.5,3.32,1.38c-0.85,0.85-2.03,1.38-3.32,1.38c-1.3,0-2.47-0.53-3.32-1.38
		C95.71,40.59,96.9,40.09,98.16,40.09z"/>
	<path class="st10" d="M167.08,65.58h-0.85c0,3.06,2.49,5.55,5.55,5.55c3.06,0,5.55-2.49,5.55-5.55h-0.85c0,0.98-0.31,1.9-0.82,2.65
		c-0.63-0.62-1.39-1.07-2.22-1.32c0.56-0.47,0.91-1.17,0.91-1.96c0-1.41-1.15-2.56-2.56-2.56c-1.41,0-2.56,1.15-2.56,2.56
		c0,0.79,0.36,1.49,0.91,1.96c-0.83,0.26-1.59,0.71-2.22,1.32C167.39,67.48,167.08,66.56,167.08,65.58z M170.07,64.95
		c0-0.94,0.77-1.71,1.71-1.71c0.94,0,1.71,0.77,1.71,1.71s-0.77,1.71-1.71,1.71C170.84,66.66,170.07,65.89,170.07,64.95z
		 M171.78,67.51c1.25,0,2.45,0.5,3.32,1.38c-0.85,0.85-2.03,1.38-3.32,1.38c-1.3,0-2.47-0.53-3.32-1.38
		C169.34,68.01,170.53,67.51,171.78,67.51z"/>
	<path class="st10" d="M93.93,66.22h-1.31c0,4.68,3.81,8.49,8.49,8.49s8.49-3.81,8.49-8.49h-1.31c0,1.51-0.47,2.9-1.26,4.06
		c-0.97-0.94-2.13-1.63-3.4-2.02c0.85-0.72,1.4-1.79,1.4-3c0-2.16-1.76-3.92-3.92-3.92c-2.16,0-3.92,1.76-3.92,3.92
		c0,1.2,0.54,2.28,1.4,3c-1.27,0.39-2.44,1.08-3.4,2.02C94.39,69.12,93.93,67.73,93.93,66.22z M98.5,65.26
		c0-1.44,1.17-2.61,2.61-2.61c1.44,0,2.61,1.17,2.61,2.61c0,1.44-1.17,2.61-2.61,2.61C99.67,67.87,98.5,66.7,98.5,65.26z
		 M101.11,69.18c1.92,0,3.74,0.76,5.08,2.11c-1.3,1.3-3.1,2.11-5.08,2.11c-1.98,0-3.78-0.81-5.08-2.11
		C97.37,69.94,99.19,69.18,101.11,69.18z"/>
	<path class="st10" d="M66.46,70.66h-1.31c0,4.68,3.81,8.49,8.49,8.49s8.49-3.81,8.49-8.49h-1.31c0,1.51-0.47,2.9-1.26,4.06
		c-0.97-0.94-2.13-1.63-3.4-2.02c0.85-0.72,1.4-1.79,1.4-3c0-2.16-1.76-3.92-3.92-3.92c-2.16,0-3.92,1.76-3.92,3.92
		c0,1.2,0.54,2.28,1.4,3c-1.27,0.39-2.44,1.08-3.4,2.02C66.92,73.57,66.46,72.17,66.46,70.66z M71.03,69.7
		c0-1.44,1.17-2.61,2.61-2.61c1.44,0,2.61,1.17,2.61,2.61s-1.17,2.61-2.61,2.61C72.2,72.31,71.03,71.14,71.03,69.7z M73.64,73.62
		c1.92,0,3.74,0.76,5.08,2.11c-1.3,1.3-3.1,2.11-5.08,2.11c-1.98,0-3.78-0.81-5.08-2.11C69.9,74.39,71.72,73.62,73.64,73.62z"/>
	<path class="st10" d="M121.85,72.73h-1.31c0,4.68,3.81,8.49,8.49,8.49s8.49-3.81,8.49-8.49h-1.31c0,1.51-0.47,2.9-1.26,4.06
		c-0.97-0.94-2.13-1.63-3.4-2.02c0.85-0.72,1.4-1.79,1.4-3c0-2.16-1.76-3.92-3.92-3.92c-2.16,0-3.92,1.76-3.92,3.92
		c0,1.2,0.54,2.28,1.4,3c-1.27,0.39-2.44,1.08-3.4,2.02C122.32,75.63,121.85,74.23,121.85,72.73z M126.43,71.77
		c0-1.44,1.17-2.61,2.61-2.61c1.44,0,2.61,1.17,2.61,2.61s-1.17,2.61-2.61,2.61C127.6,74.38,126.43,73.21,126.43,71.77z
		 M129.04,75.68c1.92,0,3.74,0.76,5.08,2.11c-1.3,1.3-3.1,2.11-5.08,2.11c-1.98,0-3.78-0.81-5.08-2.11
		C125.3,76.45,127.12,75.68,129.04,75.68z"/>
	<path class="st10" d="M149.78,83.61h-1.31c0,4.68,3.81,8.49,8.49,8.49s8.49-3.81,8.49-8.49h-1.31c0,1.51-0.47,2.9-1.26,4.06
		c-0.97-0.94-2.13-1.63-3.4-2.02c0.85-0.72,1.4-1.79,1.4-3c0-2.16-1.76-3.92-3.92-3.92c-2.16,0-3.92,1.76-3.92,3.92
		c0,1.2,0.54,2.28,1.4,3c-1.27,0.39-2.44,1.08-3.4,2.02C150.25,86.52,149.78,85.12,149.78,83.61z M154.35,82.65
		c0-1.44,1.17-2.61,2.61-2.61c1.44,0,2.61,1.17,2.61,2.61s-1.17,2.61-2.61,2.61C155.52,85.26,154.35,84.09,154.35,82.65z
		 M156.96,86.57c1.92,0,3.74,0.76,5.08,2.11c-1.3,1.3-3.1,2.11-5.08,2.11c-1.98,0-3.78-0.81-5.08-2.11
		C153.22,87.33,155.05,86.57,156.96,86.57z"/>
</g>
<g id="Layer_3">
	<g>
		<path class="st11" d="M95.55,120.65l0.02,0c0.01,0,0.02,0,0.04,0c0.69,0,2.22,0.95,2.69,2.77c0.3,1.18,0.34,2.77-0.13,3.66
			c0.41,0.63,1.57,1.35,2.76,1.68c0.32,0.09,0.65,0.14,0.98,0.14c1.18,0,1.98-0.58,2.12-0.82c0.04-0.09,0.3-0.74,0.42-1.53
			c0.17-1.09,0.21-2.15,0.11-3.15c-0.44-4.63-3.63-7.37-6.56-7.68c-0.17-0.02-0.34-0.03-0.5-0.03c-2.56,0-5.34,2.04-6.01,6.59
			c0.73-0.46,1.53-0.86,2.39-1.2C94.73,120.75,95.52,120.66,95.55,120.65z"/>
		<path class="st11" d="M93.41,132.26l-0.01-0.02c-0.36-0.57-0.33-2.41,1.04-3.74c0.85-0.83,2.22-1.67,3.23-1.71
			c0.34-0.67,0.38-2.04,0.07-3.23c-0.42-1.64-1.77-2.35-2.14-2.35h0c-0.1,0.01-0.79,0.11-1.54,0.4c-1.03,0.4-1.96,0.89-2.79,1.48
			c-3.79,2.7-4.57,6.83-3.37,9.52c0.86,1.93,2.89,3.12,5.3,3.12c1.15,0,2.37-0.26,3.64-0.76c-0.77-0.4-1.51-0.89-2.23-1.47
			C93.9,132.92,93.43,132.29,93.41,132.26z"/>
		<path class="st11" d="M108.46,129.01c-0.21-1.29-0.96-3.18-3.3-5.04c0.04,0.86-0.02,1.76-0.16,2.67
			c-0.14,0.92-0.45,1.65-0.47,1.68l-0.01,0.02c-0.25,0.47-1.29,1.13-2.63,1.13c-0.38,0-0.76-0.05-1.14-0.16
			c-1.17-0.33-2.56-1.09-3.1-1.94c-0.76,0.04-1.95,0.69-2.83,1.55c-1.22,1.19-1.15,2.7-0.96,3.02c0.06,0.08,0.49,0.63,1.11,1.13
			c0.86,0.69,1.76,1.25,2.68,1.68c1.34,0.61,2.7,0.92,4.05,0.92c2.43,0,4.63-1.03,5.88-2.77
			C108.38,131.81,108.69,130.42,108.46,129.01z"/>
	</g>
	<path class="st12" d="M94.02,92.63c0-3.08,2.51-5.58,5.58-5.58c3.08,0,5.58,2.51,5.58,5.58c0,0.59-0.17,1.53-0.55,2.19l-3.89,6.74
		l-0.71-1.23l3.54-6.13c0.25-0.44,0.39-1.14,0.39-1.58c0-2.4-1.95-4.35-4.35-4.35c-2.4,0-4.35,1.95-4.35,4.35
		c0,0.16,0.02,0.34,0.05,0.53h-0.19c-0.34,0-0.69,0.05-1.03,0.13C94.04,93.06,94.02,92.83,94.02,92.63z M98.52,104.19
		c-0.85,0.49-1.81,0.75-2.79,0.75c-1.99,0-3.85-1.07-4.84-2.79c-0.75-1.29-0.94-2.8-0.56-4.24c0.39-1.44,1.31-2.65,2.6-3.39
		c0.52-0.3,1.42-0.62,2.17-0.62h0.64h7.15l-0.71,1.23h-6.01h-1.07c-0.5,0-1.18,0.23-1.56,0.45c-1.01,0.58-1.73,1.52-2.03,2.64
		c-0.3,1.12-0.15,2.3,0.43,3.3c0.77,1.34,2.22,2.18,3.77,2.18c0.76,0,1.51-0.2,2.17-0.58c0.14-0.08,0.29-0.19,0.43-0.3l0.1,0.17
		c0.17,0.29,0.39,0.57,0.63,0.83C98.88,103.96,98.69,104.09,98.52,104.19z M108.32,102.15c-0.99,1.72-2.85,2.79-4.84,2.79
		c-0.98,0-1.94-0.26-2.79-0.75c-0.52-0.3-1.24-0.92-1.62-1.57l-3.89-6.74h1.42l3,5.2l0,0l0.53,0.92c0.09,0.16,0.22,0.32,0.38,0.49
		l0,0c0.24,0.25,0.53,0.49,0.79,0.63c0.66,0.38,1.41,0.58,2.17,0.58c0,0,0,0,0,0c1.55,0,3-0.83,3.77-2.18
		c0.58-1.01,0.74-2.18,0.43-3.3c-0.3-1.12-1.02-2.06-2.03-2.64c-0.14-0.08-0.3-0.16-0.48-0.22l0.1-0.17c0.17-0.29,0.3-0.62,0.4-0.96
		c0.22,0.09,0.42,0.18,0.6,0.28c1.29,0.75,2.22,1.95,2.6,3.39C109.27,99.35,109.07,100.85,108.32,102.15z"/>
	<path class="st12" d="M124.38,101.42c0-3.08,2.51-5.58,5.58-5.58c3.08,0,5.58,2.51,5.58,5.58c0,0.59-0.17,1.53-0.55,2.19
		l-3.89,6.74l-0.71-1.23l3.54-6.13c0.25-0.44,0.39-1.14,0.39-1.58c0-2.4-1.95-4.35-4.35-4.35s-4.35,1.95-4.35,4.35
		c0,0.16,0.02,0.34,0.05,0.53h-0.19c-0.34,0-0.69,0.05-1.03,0.13C124.4,101.84,124.38,101.62,124.38,101.42z M128.88,112.97
		c-0.85,0.49-1.81,0.75-2.79,0.75c-1.99,0-3.85-1.07-4.84-2.79c-0.75-1.29-0.94-2.8-0.56-4.24c0.39-1.44,1.31-2.65,2.6-3.39
		c0.52-0.3,1.42-0.62,2.17-0.62h0.64h7.15l-0.71,1.23h-6.01h-1.07c-0.5,0-1.18,0.23-1.56,0.45c-1.01,0.58-1.73,1.52-2.03,2.64
		c-0.3,1.12-0.15,2.3,0.43,3.3c0.77,1.34,2.22,2.18,3.77,2.18c0.76,0,1.51-0.2,2.17-0.58c0.14-0.08,0.29-0.19,0.43-0.3l0.1,0.17
		c0.17,0.29,0.39,0.57,0.63,0.83C129.24,112.74,129.05,112.87,128.88,112.97z M138.68,110.93c-0.99,1.72-2.85,2.79-4.84,2.79
		c-0.98,0-1.94-0.26-2.79-0.75c-0.52-0.3-1.24-0.92-1.62-1.57l-3.89-6.74h1.42l3,5.2l0,0l0.53,0.92c0.09,0.16,0.22,0.32,0.38,0.49
		l0,0c0.24,0.25,0.53,0.49,0.79,0.63c0.66,0.38,1.41,0.58,2.17,0.58c0,0,0,0,0,0c1.55,0,3-0.83,3.77-2.18
		c0.58-1.01,0.74-2.18,0.43-3.3s-1.02-2.06-2.03-2.64c-0.14-0.08-0.3-0.16-0.48-0.22l0.1-0.17c0.17-0.29,0.3-0.62,0.4-0.96
		c0.22,0.09,0.42,0.18,0.6,0.28c1.29,0.75,2.22,1.95,2.6,3.39C139.63,108.13,139.43,109.64,138.68,110.93z"/>
	<path class="st12" d="M62.37,104.31c0-3.08,2.51-5.58,5.58-5.58c3.08,0,5.58,2.51,5.58,5.58c0,0.59-0.17,1.53-0.55,2.19l-3.89,6.74
		l-0.71-1.23l3.54-6.13c0.25-0.44,0.39-1.14,0.39-1.58c0-2.4-1.95-4.35-4.35-4.35c-2.4,0-4.35,1.95-4.35,4.35
		c0,0.16,0.02,0.34,0.05,0.53h-0.19c-0.34,0-0.69,0.05-1.03,0.13C62.39,104.73,62.37,104.51,62.37,104.31z M66.86,115.87
		c-0.85,0.49-1.81,0.75-2.79,0.75c-1.99,0-3.85-1.07-4.84-2.79c-0.75-1.29-0.94-2.8-0.56-4.24c0.39-1.44,1.31-2.65,2.6-3.39
		c0.52-0.3,1.42-0.62,2.17-0.62h0.64h7.15l-0.71,1.23h-6.01h-1.07c-0.5,0-1.18,0.23-1.56,0.45c-1.01,0.58-1.73,1.52-2.03,2.64
		c-0.3,1.12-0.15,2.3,0.43,3.3c0.77,1.34,2.22,2.18,3.77,2.18c0.76,0,1.51-0.2,2.17-0.58c0.14-0.08,0.29-0.19,0.43-0.3l0.1,0.17
		c0.17,0.29,0.39,0.57,0.63,0.83C67.22,115.64,67.04,115.77,66.86,115.87z M76.67,113.82c-0.99,1.72-2.85,2.79-4.84,2.79
		c-0.98,0-1.94-0.26-2.79-0.75c-0.52-0.3-1.24-0.92-1.62-1.57l-3.89-6.74h1.42l3,5.2l0,0l0.53,0.92c0.09,0.16,0.22,0.32,0.38,0.49
		l0,0c0.24,0.25,0.53,0.49,0.79,0.63c0.66,0.38,1.41,0.58,2.17,0.58c0,0,0,0,0,0c1.55,0,3-0.83,3.77-2.18
		c0.58-1.01,0.74-2.18,0.43-3.3c-0.3-1.12-1.02-2.06-2.03-2.64c-0.14-0.08-0.3-0.16-0.48-0.22l0.1-0.17c0.17-0.29,0.3-0.62,0.4-0.96
		c0.22,0.09,0.42,0.18,0.6,0.28c1.29,0.75,2.22,1.95,2.6,3.39C77.61,111.02,77.41,112.53,76.67,113.82z"/>
	<path class="st12" d="M152.57,80.5c0-2.64,2.15-4.79,4.79-4.79c2.64,0,4.79,2.15,4.79,4.79c0,0.51-0.15,1.32-0.47,1.88l-3.34,5.79
		l-0.61-1.06l3.04-5.26c0.22-0.37,0.33-0.98,0.33-1.35c0-2.06-1.68-3.74-3.74-3.74c-2.06,0-3.74,1.68-3.74,3.74
		c0,0.14,0.01,0.29,0.04,0.45h-0.17c-0.29,0-0.59,0.04-0.89,0.11C152.59,80.87,152.57,80.68,152.57,80.5z M156.43,90.43
		c-0.73,0.42-1.56,0.64-2.39,0.64c-1.71,0-3.3-0.92-4.16-2.4c-0.64-1.11-0.81-2.4-0.48-3.64c0.33-1.24,1.12-2.27,2.23-2.91
		c0.44-0.26,1.21-0.53,1.87-0.53h0.55h6.14l-0.61,1.06h-5.16h-0.92c-0.43,0-1.01,0.2-1.34,0.39c-0.86,0.5-1.48,1.3-1.74,2.27
		c-0.26,0.96-0.13,1.97,0.37,2.83c0.67,1.15,1.91,1.87,3.24,1.87c0.65,0,1.3-0.17,1.86-0.5c0.12-0.07,0.25-0.16,0.37-0.26l0.08,0.14
		c0.14,0.25,0.33,0.49,0.54,0.71C156.74,90.23,156.58,90.34,156.43,90.43z M164.85,88.67c-0.85,1.48-2.45,2.4-4.16,2.4
		c-0.84,0-1.66-0.22-2.39-0.64c-0.44-0.26-1.07-0.79-1.39-1.35l-3.34-5.79h1.22l2.58,4.47l0,0l0.46,0.79
		c0.08,0.13,0.19,0.28,0.33,0.42l0,0c0.21,0.21,0.46,0.42,0.68,0.54c0.57,0.33,1.21,0.5,1.86,0.5c0,0,0,0,0,0
		c1.33,0,2.57-0.72,3.24-1.87c0.5-0.86,0.63-1.87,0.37-2.83c-0.26-0.96-0.88-1.77-1.74-2.27c-0.12-0.07-0.26-0.13-0.41-0.19
		l0.08-0.14c0.14-0.25,0.26-0.53,0.35-0.82c0.19,0.07,0.36,0.16,0.51,0.24c1.11,0.64,1.9,1.67,2.23,2.91
		C165.66,86.27,165.49,87.56,164.85,88.67z"/>
	<path class="st12" d="M124.64,69.62c0-2.64,2.15-4.79,4.79-4.79c2.64,0,4.79,2.15,4.79,4.79c0,0.51-0.15,1.32-0.47,1.88l-3.34,5.79
		l-0.61-1.06l3.04-5.26c0.22-0.37,0.33-0.98,0.33-1.35c0-2.06-1.68-3.74-3.74-3.74c-2.06,0-3.74,1.68-3.74,3.74
		c0,0.14,0.01,0.29,0.04,0.45h-0.17c-0.29,0-0.59,0.04-0.89,0.11C124.66,69.99,124.64,69.79,124.64,69.62z M128.5,79.54
		c-0.73,0.42-1.56,0.64-2.39,0.64c-1.71,0-3.3-0.92-4.16-2.4c-0.64-1.11-0.81-2.4-0.48-3.64c0.33-1.24,1.12-2.27,2.23-2.91
		c0.44-0.26,1.21-0.53,1.87-0.53h0.55h6.14l-0.61,1.06h-5.16h-0.92c-0.43,0-1.01,0.2-1.34,0.39c-0.86,0.5-1.48,1.3-1.74,2.27
		c-0.26,0.96-0.13,1.97,0.37,2.83c0.67,1.15,1.91,1.87,3.24,1.87c0.65,0,1.3-0.17,1.86-0.5c0.12-0.07,0.25-0.16,0.37-0.26l0.08,0.14
		c0.14,0.25,0.33,0.49,0.54,0.71C128.81,79.34,128.65,79.46,128.5,79.54z M136.92,77.79c-0.85,1.48-2.45,2.4-4.16,2.4
		c-0.84,0-1.66-0.22-2.39-0.64c-0.44-0.26-1.07-0.79-1.39-1.35l-3.34-5.79h1.22l2.58,4.47l0,0l0.46,0.79
		c0.08,0.13,0.19,0.28,0.33,0.42l0,0c0.21,0.21,0.46,0.42,0.68,0.54c0.57,0.33,1.21,0.5,1.86,0.5c0,0,0,0,0,0
		c1.33,0,2.57-0.72,3.24-1.87c0.5-0.86,0.63-1.87,0.37-2.83c-0.26-0.96-0.88-1.77-1.74-2.27c-0.12-0.07-0.26-0.13-0.41-0.19
		l0.08-0.14c0.14-0.25,0.26-0.53,0.35-0.82c0.19,0.07,0.36,0.16,0.51,0.24c1.11,0.64,1.9,1.67,2.23,2.91
		C137.73,75.39,137.56,76.68,136.92,77.79z"/>
	<path class="st12" d="M96.72,63.11c0-2.64,2.15-4.79,4.79-4.79c2.64,0,4.79,2.15,4.79,4.79c0,0.51-0.15,1.32-0.47,1.88l-3.34,5.79
		l-0.61-1.06l3.04-5.26c0.22-0.37,0.33-0.98,0.33-1.35c0-2.06-1.68-3.74-3.74-3.74c-2.06,0-3.74,1.68-3.74,3.74
		c0,0.14,0.01,0.29,0.04,0.45h-0.17c-0.29,0-0.59,0.04-0.89,0.11C96.73,63.48,96.72,63.28,96.72,63.11z M100.58,73.04
		c-0.73,0.42-1.56,0.64-2.39,0.64c-1.71,0-3.3-0.92-4.16-2.4c-0.64-1.11-0.81-2.4-0.48-3.64c0.33-1.24,1.12-2.27,2.23-2.91
		c0.44-0.26,1.21-0.53,1.87-0.53h0.55h6.14l-0.61,1.06h-5.16h-0.92c-0.43,0-1.01,0.2-1.34,0.39c-0.86,0.5-1.48,1.3-1.74,2.27
		c-0.26,0.96-0.13,1.97,0.37,2.83c0.67,1.15,1.91,1.87,3.24,1.87c0.65,0,1.3-0.17,1.86-0.5c0.12-0.07,0.25-0.16,0.37-0.26L100.5,72
		c0.14,0.25,0.33,0.49,0.54,0.71C100.89,72.84,100.73,72.95,100.58,73.04z M108.99,71.28c-0.85,1.48-2.45,2.4-4.16,2.4
		c-0.84,0-1.66-0.22-2.39-0.64c-0.44-0.26-1.07-0.79-1.39-1.35l-3.34-5.79h1.22l2.58,4.47l0,0l0.46,0.79
		c0.08,0.13,0.19,0.28,0.33,0.42l0,0c0.21,0.21,0.46,0.42,0.68,0.54c0.57,0.33,1.21,0.5,1.86,0.5c0,0,0,0,0,0
		c1.33,0,2.57-0.72,3.24-1.87c0.5-0.86,0.63-1.87,0.37-2.83c-0.26-0.96-0.88-1.77-1.74-2.27c-0.12-0.07-0.26-0.13-0.41-0.19
		l0.08-0.14c0.14-0.25,0.26-0.53,0.35-0.82c0.19,0.07,0.36,0.16,0.51,0.24c1.11,0.64,1.9,1.67,2.23,2.91
		C109.8,68.88,109.63,70.17,108.99,71.28z"/>
	<path class="st12" d="M69.24,67.56c0-2.64,2.15-4.79,4.79-4.79c2.64,0,4.79,2.15,4.79,4.79c0,0.51-0.15,1.32-0.47,1.88l-3.34,5.79
		l-0.61-1.06l3.04-5.26c0.22-0.37,0.33-0.98,0.33-1.35c0-2.06-1.68-3.74-3.74-3.74c-2.06,0-3.74,1.68-3.74,3.74
		c0,0.14,0.01,0.29,0.04,0.45h-0.17c-0.29,0-0.59,0.04-0.89,0.11C69.26,67.92,69.24,67.73,69.24,67.56z M73.1,77.48
		c-0.73,0.42-1.56,0.64-2.39,0.64c-1.71,0-3.3-0.92-4.16-2.4c-0.64-1.11-0.81-2.4-0.48-3.64c0.33-1.24,1.12-2.27,2.23-2.91
		c0.44-0.26,1.21-0.53,1.87-0.53h0.55h6.14l-0.61,1.06h-5.16h-0.92c-0.43,0-1.01,0.2-1.34,0.39c-0.86,0.5-1.48,1.3-1.74,2.27
		c-0.26,0.96-0.13,1.97,0.37,2.83c0.67,1.15,1.91,1.87,3.24,1.87c0.65,0,1.3-0.17,1.86-0.5c0.12-0.07,0.25-0.16,0.37-0.26l0.08,0.14
		c0.14,0.25,0.33,0.49,0.54,0.71C73.41,77.28,73.25,77.39,73.1,77.48z M81.52,75.72c-0.85,1.48-2.45,2.4-4.16,2.4
		c-0.84,0-1.66-0.22-2.39-0.64c-0.44-0.26-1.07-0.79-1.39-1.35l-3.34-5.79h1.22l2.58,4.47l0,0l0.46,0.79
		c0.08,0.13,0.19,0.28,0.33,0.42l0,0c0.21,0.21,0.46,0.42,0.68,0.54c0.57,0.33,1.21,0.5,1.86,0.5c0,0,0,0,0,0
		c1.33,0,2.57-0.72,3.24-1.87c0.5-0.86,0.63-1.87,0.37-2.83c-0.26-0.96-0.88-1.77-1.74-2.27c-0.12-0.07-0.26-0.13-0.41-0.19
		l0.08-0.14c0.14-0.25,0.26-0.53,0.35-0.82c0.19,0.07,0.36,0.16,0.51,0.24c1.11,0.64,1.9,1.67,2.23,2.91
		C82.33,73.32,82.16,74.61,81.52,75.72z"/>
	<path class="st12" d="M40.86,80.66c0-2.64,2.15-4.79,4.79-4.79c2.64,0,4.79,2.15,4.79,4.79c0,0.51-0.15,1.32-0.47,1.88l-3.34,5.79
		l-0.61-1.06l3.04-5.26c0.22-0.37,0.33-0.98,0.33-1.35c0-2.06-1.68-3.74-3.74-3.74c-2.06,0-3.74,1.68-3.74,3.74
		c0,0.14,0.01,0.29,0.04,0.45H41.8c-0.29,0-0.59,0.04-0.89,0.11C40.88,81.02,40.86,80.83,40.86,80.66z M44.72,90.58
		c-0.73,0.42-1.56,0.64-2.39,0.64c-1.71,0-3.3-0.92-4.16-2.4c-0.64-1.11-0.81-2.4-0.48-3.64c0.33-1.24,1.12-2.27,2.23-2.91
		c0.44-0.26,1.21-0.53,1.87-0.53h0.55h6.14l-0.61,1.06h-5.16H41.8c-0.43,0-1.01,0.2-1.34,0.39c-0.86,0.5-1.48,1.3-1.74,2.27
		c-0.26,0.96-0.13,1.97,0.37,2.83c0.67,1.15,1.91,1.87,3.24,1.87c0.65,0,1.3-0.17,1.86-0.5c0.12-0.07,0.25-0.16,0.37-0.26l0.08,0.14
		c0.14,0.25,0.33,0.49,0.54,0.71C45.03,90.38,44.87,90.49,44.72,90.58z M53.14,88.82c-0.85,1.48-2.45,2.4-4.16,2.4
		c-0.84,0-1.66-0.22-2.39-0.64c-0.44-0.26-1.07-0.79-1.39-1.35l-3.34-5.79h1.22l2.58,4.47l0,0l0.46,0.79
		c0.08,0.13,0.19,0.28,0.33,0.42l0,0c0.21,0.21,0.46,0.42,0.68,0.54c0.57,0.33,1.21,0.5,1.86,0.5c0,0,0,0,0,0
		c1.33,0,2.57-0.72,3.24-1.87c0.5-0.86,0.63-1.87,0.37-2.83c-0.26-0.96-0.88-1.77-1.74-2.27c-0.12-0.07-0.26-0.13-0.41-0.19
		l0.08-0.14c0.14-0.25,0.26-0.53,0.35-0.82c0.19,0.07,0.36,0.16,0.51,0.24c1.11,0.64,1.9,1.67,2.23,2.91
		C53.95,86.42,53.78,87.72,53.14,88.82z"/>
	<path class="st12" d="M99.03,30.94c0-1.46,1.19-2.65,2.65-2.65c1.46,0,2.65,1.19,2.65,2.65c0,0.28-0.08,0.73-0.26,1.04l-1.85,3.2
		l-0.34-0.59l1.68-2.91c0.12-0.21,0.18-0.54,0.18-0.75c0-1.14-0.93-2.07-2.07-2.07c-1.14,0-2.07,0.93-2.07,2.07
		c0,0.08,0.01,0.16,0.02,0.25h-0.09c-0.16,0-0.33,0.02-0.49,0.06C99.04,31.14,99.03,31.03,99.03,30.94z M101.17,36.43
		c-0.4,0.23-0.86,0.36-1.32,0.36c-0.95,0-1.83-0.51-2.3-1.33c-0.35-0.61-0.45-1.33-0.27-2.01c0.18-0.68,0.62-1.26,1.24-1.61
		c0.24-0.14,0.67-0.29,1.03-0.29h0.3h3.4l-0.34,0.59h-2.85h-0.51c-0.24,0-0.56,0.11-0.74,0.21c-0.48,0.28-0.82,0.72-0.96,1.25
		c-0.14,0.53-0.07,1.09,0.21,1.57c0.37,0.64,1.05,1.03,1.79,1.03c0.36,0,0.72-0.1,1.03-0.28c0.07-0.04,0.14-0.09,0.21-0.14
		l0.05,0.08c0.08,0.14,0.18,0.27,0.3,0.39C101.34,36.32,101.25,36.38,101.17,36.43z M105.82,35.46c-0.47,0.82-1.35,1.33-2.3,1.33
		c-0.46,0-0.92-0.12-1.32-0.36c-0.24-0.14-0.59-0.44-0.77-0.75l-1.85-3.2h0.68l1.43,2.47l0,0l0.25,0.44
		c0.04,0.07,0.1,0.15,0.18,0.23l0,0c0.11,0.12,0.25,0.23,0.37,0.3c0.31,0.18,0.67,0.28,1.03,0.28c0,0,0,0,0,0
		c0.74,0,1.42-0.4,1.79-1.03c0.28-0.48,0.35-1.03,0.21-1.57c-0.14-0.53-0.48-0.98-0.96-1.26c-0.07-0.04-0.14-0.07-0.23-0.11
		l0.05-0.08c0.08-0.14,0.14-0.3,0.19-0.46c0.1,0.04,0.2,0.09,0.28,0.13c0.61,0.35,1.05,0.93,1.24,1.61
		C106.27,34.13,106.18,34.84,105.82,35.46z"/>
	<path class="st12" d="M121.93,39.44c0-1.46,1.19-2.65,2.65-2.65c1.46,0,2.65,1.19,2.65,2.65c0,0.28-0.08,0.73-0.26,1.04l-1.85,3.2
		l-0.34-0.59l1.68-2.91c0.12-0.21,0.18-0.54,0.18-0.75c0-1.14-0.93-2.07-2.07-2.07c-1.14,0-2.07,0.93-2.07,2.07
		c0,0.08,0.01,0.16,0.02,0.25h-0.09c-0.16,0-0.33,0.02-0.49,0.06C121.94,39.64,121.93,39.53,121.93,39.44z M124.06,44.93
		c-0.4,0.23-0.86,0.36-1.32,0.36c-0.95,0-1.83-0.51-2.3-1.33c-0.35-0.61-0.45-1.33-0.27-2.01c0.18-0.68,0.62-1.26,1.24-1.61
		c0.24-0.14,0.67-0.29,1.03-0.29h0.3h3.4l-0.34,0.59h-2.85h-0.51c-0.24,0-0.56,0.11-0.74,0.21c-0.48,0.28-0.82,0.72-0.96,1.25
		c-0.14,0.53-0.07,1.09,0.21,1.57c0.37,0.64,1.05,1.03,1.79,1.03c0.36,0,0.72-0.1,1.03-0.28c0.07-0.04,0.14-0.09,0.21-0.14
		l0.05,0.08c0.08,0.14,0.18,0.27,0.3,0.39C124.24,44.82,124.15,44.88,124.06,44.93z M128.72,43.95c-0.47,0.82-1.35,1.33-2.3,1.33
		c-0.46,0-0.92-0.12-1.32-0.36c-0.24-0.14-0.59-0.44-0.77-0.75l-1.85-3.2h0.68l1.43,2.47l0,0l0.25,0.44
		c0.04,0.07,0.1,0.15,0.18,0.23l0,0c0.11,0.12,0.25,0.23,0.37,0.3c0.31,0.18,0.67,0.28,1.03,0.28c0,0,0,0,0,0
		c0.74,0,1.42-0.4,1.79-1.03c0.28-0.48,0.35-1.03,0.21-1.57s-0.48-0.98-0.96-1.26c-0.07-0.04-0.14-0.07-0.23-0.11l0.05-0.08
		c0.08-0.14,0.14-0.3,0.19-0.46c0.1,0.04,0.2,0.09,0.28,0.13c0.61,0.35,1.05,0.93,1.24,1.61C129.17,42.63,129.08,43.34,128.72,43.95
		z"/>
	<path class="st12" d="M71.39,38.44c0-1.46,1.19-2.65,2.65-2.65c1.46,0,2.65,1.19,2.65,2.65c0,0.28-0.08,0.73-0.26,1.04l-1.85,3.2
		l-0.34-0.59l1.68-2.91c0.12-0.21,0.18-0.54,0.18-0.75c0-1.14-0.93-2.07-2.07-2.07c-1.14,0-2.07,0.93-2.07,2.07
		c0,0.08,0.01,0.16,0.02,0.25H71.9c-0.16,0-0.33,0.02-0.49,0.06C71.4,38.64,71.39,38.54,71.39,38.44z M73.52,43.93
		c-0.4,0.23-0.86,0.36-1.32,0.36c-0.95,0-1.83-0.51-2.3-1.33c-0.35-0.61-0.45-1.33-0.27-2.01c0.18-0.68,0.62-1.26,1.24-1.61
		c0.24-0.14,0.67-0.29,1.03-0.29h0.3h3.4l-0.34,0.59h-2.85H71.9c-0.24,0-0.56,0.11-0.74,0.21c-0.48,0.28-0.82,0.72-0.96,1.25
		c-0.14,0.53-0.07,1.09,0.21,1.57c0.37,0.64,1.05,1.03,1.79,1.03c0.36,0,0.72-0.1,1.03-0.28c0.07-0.04,0.14-0.09,0.21-0.14
		l0.05,0.08c0.08,0.14,0.18,0.27,0.3,0.39C73.69,43.82,73.6,43.88,73.52,43.93z M78.18,42.96c-0.47,0.82-1.35,1.33-2.3,1.33
		c-0.46,0-0.92-0.12-1.32-0.36c-0.24-0.14-0.59-0.44-0.77-0.75l-1.85-3.2h0.68l1.43,2.47l0,0l0.25,0.44
		c0.04,0.07,0.1,0.15,0.18,0.23l0,0c0.11,0.12,0.25,0.23,0.37,0.3c0.31,0.18,0.67,0.28,1.03,0.28c0,0,0,0,0,0
		c0.74,0,1.42-0.4,1.79-1.03c0.28-0.48,0.35-1.03,0.21-1.57s-0.48-0.98-0.96-1.26c-0.07-0.04-0.14-0.07-0.23-0.11l0.05-0.08
		c0.08-0.14,0.14-0.3,0.19-0.46c0.1,0.04,0.2,0.09,0.28,0.13c0.61,0.35,1.05,0.93,1.24,1.61C78.63,41.63,78.53,42.35,78.18,42.96z"
		/>
	<path class="st12" d="M46.21,48.78c0-1.46,1.19-2.65,2.65-2.65c1.46,0,2.65,1.19,2.65,2.65c0,0.28-0.08,0.73-0.26,1.04l-1.85,3.2
		l-0.34-0.59l1.68-2.91c0.12-0.21,0.18-0.54,0.18-0.75c0-1.14-0.93-2.07-2.07-2.07s-2.07,0.93-2.07,2.07c0,0.08,0.01,0.16,0.02,0.25
		h-0.09c-0.16,0-0.33,0.02-0.49,0.06C46.22,48.99,46.21,48.88,46.21,48.78z M48.34,54.27c-0.4,0.23-0.86,0.36-1.32,0.36
		c-0.95,0-1.83-0.51-2.3-1.33c-0.35-0.61-0.45-1.33-0.27-2.01c0.18-0.68,0.62-1.26,1.24-1.61c0.24-0.14,0.67-0.29,1.03-0.29h0.3h3.4
		l-0.34,0.59h-2.85h-0.51c-0.24,0-0.56,0.11-0.74,0.21c-0.48,0.28-0.82,0.72-0.96,1.25c-0.14,0.53-0.07,1.09,0.21,1.57
		c0.37,0.64,1.05,1.03,1.79,1.03c0.36,0,0.72-0.1,1.03-0.28c0.07-0.04,0.14-0.09,0.21-0.14l0.05,0.08c0.08,0.14,0.18,0.27,0.3,0.39
		C48.51,54.16,48.43,54.22,48.34,54.27z M53,53.3c-0.47,0.82-1.35,1.33-2.3,1.33c-0.46,0-0.92-0.12-1.32-0.36
		c-0.24-0.14-0.59-0.44-0.77-0.75l-1.85-3.2h0.68l1.43,2.47l0,0l0.25,0.44c0.04,0.07,0.1,0.15,0.18,0.23l0,0
		c0.11,0.12,0.25,0.23,0.37,0.3c0.31,0.18,0.67,0.28,1.03,0.28c0,0,0,0,0,0c0.74,0,1.42-0.4,1.79-1.03
		c0.28-0.48,0.35-1.03,0.21-1.57s-0.48-0.98-0.96-1.26c-0.07-0.04-0.14-0.07-0.23-0.11L51.55,50c0.08-0.14,0.14-0.3,0.19-0.46
		c0.1,0.04,0.2,0.09,0.28,0.13c0.61,0.35,1.05,0.93,1.24,1.61C53.45,51.97,53.35,52.69,53,53.3z"/>
	<path class="st12" d="M145.04,48.78c0-1.46,1.19-2.65,2.65-2.65c1.46,0,2.65,1.19,2.65,2.65c0,0.28-0.08,0.73-0.26,1.04l-1.85,3.2
		l-0.34-0.59l1.68-2.91c0.12-0.21,0.18-0.54,0.18-0.75c0-1.14-0.93-2.07-2.07-2.07c-1.14,0-2.07,0.93-2.07,2.07
		c0,0.08,0.01,0.16,0.02,0.25h-0.09c-0.16,0-0.33,0.02-0.49,0.06C145.05,48.99,145.04,48.88,145.04,48.78z M147.18,54.27
		c-0.4,0.23-0.86,0.36-1.32,0.36c-0.95,0-1.83-0.51-2.3-1.33c-0.35-0.61-0.45-1.33-0.27-2.01c0.18-0.68,0.62-1.26,1.24-1.61
		c0.24-0.14,0.67-0.29,1.03-0.29h0.3h3.4l-0.34,0.59h-2.85h-0.51c-0.24,0-0.56,0.11-0.74,0.21c-0.48,0.28-0.82,0.72-0.96,1.25
		c-0.14,0.53-0.07,1.09,0.21,1.57c0.37,0.64,1.05,1.03,1.79,1.03c0.36,0,0.72-0.1,1.03-0.28c0.07-0.04,0.14-0.09,0.21-0.14
		l0.05,0.08c0.08,0.14,0.18,0.27,0.3,0.39C147.35,54.16,147.26,54.22,147.18,54.27z M151.84,53.3c-0.47,0.82-1.35,1.33-2.3,1.33
		c-0.46,0-0.92-0.12-1.32-0.36c-0.24-0.14-0.59-0.44-0.77-0.75l-1.85-3.2h0.68l1.43,2.47l0,0l0.25,0.44
		c0.04,0.07,0.1,0.15,0.18,0.23l0,0c0.11,0.12,0.25,0.23,0.37,0.3c0.31,0.18,0.67,0.28,1.03,0.28c0,0,0,0,0,0
		c0.74,0,1.42-0.4,1.79-1.03c0.28-0.48,0.35-1.03,0.21-1.57s-0.48-0.98-0.96-1.26c-0.07-0.04-0.14-0.07-0.23-0.11l0.05-0.08
		c0.08-0.14,0.14-0.3,0.19-0.46c0.1,0.04,0.2,0.09,0.28,0.13c0.61,0.35,1.05,0.93,1.24,1.61C152.28,51.97,152.19,52.69,151.84,53.3z
		"/>
	<path class="st12" d="M21.56,61.17c0-1.46,1.19-2.65,2.65-2.65c1.46,0,2.65,1.19,2.65,2.65c0,0.28-0.08,0.73-0.26,1.04l-1.85,3.2
		l-0.34-0.59l1.68-2.91c0.12-0.21,0.18-0.54,0.18-0.75c0-1.14-0.93-2.07-2.07-2.07s-2.07,0.93-2.07,2.07c0,0.08,0.01,0.16,0.02,0.25
		h-0.09c-0.16,0-0.33,0.02-0.49,0.06C21.57,61.37,21.56,61.26,21.56,61.17z M23.69,66.65c-0.4,0.23-0.86,0.36-1.32,0.36
		c-0.95,0-1.83-0.51-2.3-1.33c-0.35-0.61-0.45-1.33-0.27-2.01c0.18-0.68,0.62-1.26,1.24-1.61c0.24-0.14,0.67-0.29,1.03-0.29h0.3h3.4
		l-0.34,0.59h-2.85h-0.51c-0.24,0-0.56,0.11-0.74,0.21c-0.48,0.28-0.82,0.72-0.96,1.25c-0.14,0.53-0.07,1.09,0.21,1.57
		c0.37,0.64,1.05,1.03,1.79,1.03c0.36,0,0.72-0.1,1.03-0.28c0.07-0.04,0.14-0.09,0.21-0.14l0.05,0.08c0.08,0.14,0.18,0.27,0.3,0.39
		C23.86,66.55,23.78,66.61,23.69,66.65z M28.35,65.68c-0.47,0.82-1.35,1.33-2.3,1.33c-0.46,0-0.92-0.12-1.32-0.36
		c-0.24-0.14-0.59-0.44-0.77-0.75l-1.85-3.2h0.68l1.43,2.47l0,0l0.25,0.44c0.04,0.07,0.1,0.15,0.18,0.23l0,0
		c0.11,0.12,0.25,0.23,0.37,0.3c0.31,0.18,0.67,0.28,1.03,0.28c0,0,0,0,0,0c0.74,0,1.42-0.4,1.79-1.03
		c0.28-0.48,0.35-1.03,0.21-1.57c-0.14-0.53-0.48-0.98-0.96-1.26c-0.07-0.04-0.14-0.07-0.23-0.11l0.05-0.08
		c0.08-0.14,0.14-0.3,0.19-0.46c0.1,0.04,0.2,0.09,0.28,0.13c0.61,0.35,1.05,0.93,1.24,1.61C28.8,64.36,28.7,65.07,28.35,65.68z"/>
	<path class="st12" d="M170.32,61.17c0-1.46,1.19-2.65,2.65-2.65c1.46,0,2.65,1.19,2.65,2.65c0,0.28-0.08,0.73-0.26,1.04l-1.85,3.2
		l-0.34-0.59l1.68-2.91c0.12-0.21,0.18-0.54,0.18-0.75c0-1.14-0.93-2.07-2.07-2.07c-1.14,0-2.07,0.93-2.07,2.07
		c0,0.08,0.01,0.16,0.02,0.25h-0.09c-0.16,0-0.33,0.02-0.49,0.06C170.33,61.37,170.32,61.26,170.32,61.17z M172.46,66.65
		c-0.4,0.23-0.86,0.36-1.32,0.36c-0.95,0-1.83-0.51-2.3-1.33c-0.35-0.61-0.45-1.33-0.27-2.01c0.18-0.68,0.62-1.26,1.24-1.61
		c0.24-0.14,0.67-0.29,1.03-0.29h0.3h3.4l-0.34,0.59h-2.85h-0.51c-0.24,0-0.56,0.11-0.74,0.21c-0.48,0.28-0.82,0.72-0.96,1.25
		c-0.14,0.53-0.07,1.09,0.21,1.57c0.37,0.64,1.05,1.03,1.79,1.03c0.36,0,0.72-0.1,1.03-0.28c0.07-0.04,0.14-0.09,0.21-0.14
		l0.05,0.08c0.08,0.14,0.18,0.27,0.3,0.39C172.63,66.55,172.54,66.61,172.46,66.65z M177.12,65.68c-0.47,0.82-1.35,1.33-2.3,1.33
		c-0.46,0-0.92-0.12-1.32-0.36c-0.24-0.14-0.59-0.44-0.77-0.75l-1.85-3.2h0.68l1.43,2.47l0,0l0.25,0.44
		c0.04,0.07,0.1,0.15,0.18,0.23l0,0c0.11,0.12,0.25,0.23,0.37,0.3c0.31,0.18,0.67,0.28,1.03,0.28c0,0,0,0,0,0
		c0.74,0,1.42-0.4,1.79-1.03c0.28-0.48,0.35-1.03,0.21-1.57c-0.14-0.53-0.48-0.98-0.96-1.26c-0.07-0.04-0.14-0.07-0.23-0.11
		l0.05-0.08c0.08-0.14,0.14-0.3,0.19-0.46c0.1,0.04,0.2,0.09,0.28,0.13c0.61,0.35,1.05,0.93,1.24,1.61
		C177.57,64.36,177.47,65.07,177.12,65.68z"/>
</g>
</svg>
